<svg xmlns="http://www.w3.org/2000/svg" width="48" height="48" viewBox="0 0 48 48">
  <g fill="#4562FF" fill-rule="evenodd">
    <rect width="48" height="48" opacity=".25" rx="1.714"/>
    <g fill-rule="nonzero">
      <path
        d="M14.264 20.75c.298.211 1.198.837 2.699 1.877 1.5 1.04 2.65 1.84 3.448 2.402.088.061.275.195.56.401.285.207.522.373.71.5.19.128.417.27.685.428.268.158.52.277.757.355.237.08.456.119.658.119h.027c.202 0 .421-.04.658-.119.237-.078.49-.197.757-.355.267-.158.496-.3.684-.427.189-.128.426-.294.711-.5.285-.207.472-.34.56-.402.807-.562 2.86-1.988 6.16-4.279a6.253 6.253 0 0 0 1.606-1.619c.43-.631.645-1.294.645-1.987 0-.58-.209-1.075-.625-1.488a2.034 2.034 0 0 0-1.481-.618H14.106c-.676 0-1.196.228-1.56.684-.364.457-.546 1.027-.546 1.711 0 .553.241 1.152.724 1.797s.996 1.152 1.54 1.52z"/>
      <path
        d="M34.272 22.16c-2.878 1.947-5.063 3.461-6.555 4.54-.5.369-.906.657-1.217.863-.312.206-.726.417-1.244.631-.518.216-1 .323-1.448.323h-.027c-.447 0-.93-.107-1.448-.323-.517-.214-.932-.425-1.244-.631a31.175 31.175 0 0 1-1.217-.862c-1.185-.87-3.366-2.383-6.542-4.542A6.973 6.973 0 0 1 12 21.014v10.451c0 .58.206 1.076.619 1.488.412.413.908.619 1.487.619h19.377c.579 0 1.075-.206 1.487-.619.413-.413.619-.908.619-1.488V21.014a7.259 7.259 0 0 1-1.317 1.145z"/>
    </g>
  </g>
</svg>
