<svg xmlns="http://www.w3.org/2000/svg" width="24" height="24" viewBox="0 0 24 24" class="icon icon-eye">
    <g fill="none" fill-rule="evenodd">
        <g fill="#343434" fill-rule="nonzero">
            <g>
                <g>
                    <g>
                        <g>
                            <g>
                                <g>
                                    <path d="M9 1.636c3.1 0 5.866 1.743 7.216 4.5-1.35 2.758-4.115 4.5-7.216 4.5-3.1 0-5.866-1.742-7.216-4.5 1.35-2.757 4.115-4.5 7.216-4.5M9 0C4.91 0 1.415 2.545 0 6.136c1.415 3.592 4.91 6.137 9 6.137s7.585-2.545 9-6.137C16.585 2.545 13.09 0 9 0zm0 4.09c1.13 0 2.045.917 2.045 2.046 0 1.13-.916 2.046-2.045 2.046-1.13 0-2.045-.917-2.045-2.046 0-1.129.916-2.045 2.045-2.045m0-1.636c-2.03 0-3.682 1.652-3.682 3.681 0 2.03 1.653 3.682 3.682 3.682 2.03 0 3.682-1.653 3.682-3.682S11.029 2.455 9 2.455z" transform="translate(-264 -295) translate(16 123) translate(0 47) translate(0 91) translate(0 25) translate(248 9) translate(3 6)"/>
                                </g>
                            </g>
                        </g>
                    </g>
                </g>
            </g>
        </g>
    </g>
</svg>
