<svg xmlns="http://www.w3.org/2000/svg" width="24" height="24" viewBox="0 0 24 24">
    <g fill="#343434" fill-rule="evenodd">
        <path d="M1.403 4.094c.566-.579 1.461-.579 1.998 0L6.056 6.81l5.52-5.654c.567-.579 1.462-.579 1.999 0 .567.58.567 1.495 0 2.044L7.04 9.859c-.269.274-.627.427-1.015.427-.387 0-.716-.122-.984-.427l-3.64-3.69c-.536-.58-.536-1.495 0-2.075zM12.787 15.5H1.213C.556 15.5 0 14.953 0 14.25 0 13.573.53 13 1.213 13h11.574c.657 0 1.213.547 1.213 1.25s-.556 1.25-1.213 1.25z" transform="translate(5 4)"/>
    </g>
</svg>
