<svg xmlns="http://www.w3.org/2000/svg" width="24" height="24" viewBox="0 0 24 24">
    <g fill="none" fill-rule="evenodd">
        <g>
            <g>
                <g>
                    <path d="M0 0H24V24H0z" transform="translate(-16 -130) translate(0 122) translate(16 8)"/>
                    <g fill="#343434" fill-rule="nonzero" class="fill-change">
                        <path d="M1.1 4.625v7.525c0 .884.716 1.6 1.6 1.6h12.6c.884 0 1.6-.716 1.6-1.6V4.625c.497 0 .9-.403.9-.9V1.5c0-.828-.672-1.5-1.5-1.5H1.7C.872 0 .2.672.2 1.5v2.225c0 .497.403.9.9.9zM15.7 12.5H2.3V4.45h13.4v8.05zM1.463 1.312h15.075v2H1.463v-2z" transform="translate(-16 -130) translate(0 122) translate(16 8) translate(3 5)"/>
                        <path d="M5.063 6.75H12.937999999999999V8.05H5.063z" transform="translate(-16 -130) translate(0 122) translate(16 8) translate(3 5)"/>
                    </g>
                </g>
            </g>
        </g>
    </g>
</svg>
