<svg xmlns="http://www.w3.org/2000/svg" width="24" height="24" viewBox="0 0 24 24">
    <g fill="none" fill-rule="evenodd">
        <g fill="#343434" stroke="#343434" stroke-width="1.5">
            <g>
                <g>
                    <g>
                        <g>
                            <path d="M8 .75c2.002 0 3.815.811 5.127 2.123C14.439 4.185 15.25 5.998 15.25 8s-.811 3.815-2.123 5.127C11.815 14.439 10.002 15.25 8 15.25s-3.815-.811-5.127-2.123C1.561 11.815.75 10.002.75 8s.811-3.815 2.123-5.127C4.185 1.561 5.998.75 8 .75zm3.228 2.709l-.157.007c-.381.038-.783.213-1.132.574h0l-2.72 3.814-1.138-1.186-.124-.102c-.297-.222-.653-.33-1.008-.323-.39.008-.778.155-1.084.446-.298.282-.468.65-.507 1.032-.037.37.026.763.407 1.262h0l2.486 2.616.124.103c.297.222.65.329 1.002.323.377-.007.767-.119 1.226-.587h0l3.949-5.426.08-.135c.173-.32.231-.682.18-1.03-.059-.385-.253-.751-.574-1.02-.335-.278-.745-.402-1.167-.36z" transform="translate(-665 -231) translate(560 199) translate(25 29) translate(80 3) translate(4 4)"/>
                        </g>
                    </g>
                </g>
            </g>
        </g>
    </g>
</svg>
