<svg xmlns="http://www.w3.org/2000/svg" width="30" height="34" viewBox="0 0 30 34">
  <g fill="#888EA8" fill-rule="nonzero">
    <path
      d="M28.347 5.847L17.983.235c-.983-.533-2.335-.123-2.867.86L9.053 12.36H1.68c-.943 0-1.68.737-1.68 1.68v18.229c0 .942.737 1.68 1.68 1.68h23.554c.942 0 1.68-.738 1.68-1.68v-4.26h.696a.647.647 0 0 0 .655-.656v-4.875a.647.647 0 0 0-.655-.655h-.697V17.03a1.71 1.71 0 0 0-1.31-1.639l3.604-6.677a2.147 2.147 0 0 0-.86-2.867zm-7.374-2.499l-6.472 12.003h-1.843L19.58 2.61l1.392.737zm-4.67-1.638c.205-.37.697-.533 1.066-.328l1.024.573-7.21 13.396H8.93L16.304 1.71zM1.27 13.999c0-.123.164-.328.369-.328h6.677l-.902 1.639H1.64c-.123 0-.246 0-.37.04V14zm24.291 18.27a.367.367 0 0 1-.368.368H1.639a.367.367 0 0 1-.37-.368V17.03c0-.205.165-.369.37-.369H25.152c.205 0 .368.164.368.369v4.793h-2.498a1.967 1.967 0 0 0-1.967 1.966v2.253c0 1.106.902 1.966 1.967 1.966h2.54v4.26zm1.311-9.135h.041v3.563h-3.891a.647.647 0 0 1-.656-.655V23.79c0-.369.287-.655.656-.655h3.85zM28.02 8.059l-3.932 7.292h-8.111L22.12 4.004l5.572 3.03c.41.165.532.656.327 1.025z"/>
    <path
      d="M25.52 7.444l-.327-.163c-.82-.451-1.926-.123-2.376.696l-.41.778c-.205.41-.287.902-.123 1.352.123.45.45.82.86 1.024l.328.164c.246.123.533.205.82.205.655 0 1.228-.369 1.556-.901l.41-.779c.41-.86.082-1.925-.738-2.376zm-.45 1.762l-.41.778a.462.462 0 0 1-.614.164l-.328-.205c-.082-.04-.164-.164-.205-.246-.04-.122-.04-.245.041-.327l.41-.779c.082-.122.246-.245.41-.245a.37.37 0 0 1 .204.04l.328.165c.164.163.246.41.164.655z"/>
  </g>
</svg>
