<svg xmlns="http://www.w3.org/2000/svg" width="24" height="24" viewBox="0 0 24 24">
    <g fill="none" fill-rule="evenodd">
        <g>
            <g>
                <g>
                    <g>
                        <path d="M0 0H24V24H0z" transform="translate(-116 -28) translate(24 19) translate(72) translate(20 9)"/>
                        <g transform="translate(-116 -28) translate(24 19) translate(72) translate(20 9) translate(3 3)">
                            <circle cx="9" cy="9" r="8.25" stroke="#343434" stroke-width="1.5"/>
                            <path fill="#343434" d="M11.514 5.526c.31-.381.867-.436 1.244-.122.351.293.422.804.177 1.18l-.057.079-3.848 5.286c-.318.39-.886.433-1.256.111l-.071-.069-2.365-2.493c-.333-.361-.314-.927.042-1.264.333-.315.842-.32 1.18-.026l.07.068 1.675 1.75 3.209-4.5z"/>
                        </g>
                    </g>
                </g>
            </g>
        </g>
    </g>
</svg>
