<svg xmlns="http://www.w3.org/2000/svg" width="24" height="24" viewBox="0 0 24 24" class="icon icon-sidebar">
  <g fill-rule="evenodd">
    <path
      d="M6.65 6H4.73a.73.73 0 0 0-.73.73v1.92c0 .403.327.73.73.73h1.92a.73.73 0 0 0 .73-.73V6.73A.73.73 0 0 0 6.65 6zm0 2.63h-1.9V6.75h1.88l.02 1.88zM19.24 6H9.45a.73.73 0 0 0-.73.73v1.92c0 .403.327.73.73.73h9.79a.73.73 0 0 0 .76-.73V6.73a.73.73 0 0 0-.76-.73zm0 2.63H9.46V6.75h9.77l.01 1.88zM6.65 11.1H4.73a.73.73 0 0 0-.73.73v1.91a.74.74 0 0 0 .73.74h1.92a.74.74 0 0 0 .73-.74v-1.91a.73.73 0 0 0-.73-.73zm0 2.63h-1.9v-1.89h1.88l.02 1.89zM19.24 11.1H9.45a.73.73 0 0 0-.73.73v1.91a.73.73 0 0 0 .73.74h9.79a.73.73 0 0 0 .76-.74v-1.91a.73.73 0 0 0-.76-.73zm0 2.63H9.46v-1.89h9.77l.01 1.89zM6.65 16.54H4.73a.73.73 0 0 0-.73.73v1.91a.74.74 0 0 0 .73.74h1.92a.74.74 0 0 0 .73-.74v-1.91a.73.73 0 0 0-.73-.73zm0 2.63h-1.9v-1.89h1.88l.02 1.89zM19.24 16.54H9.45a.72.72 0 0 0-.73.73v1.91a.73.73 0 0 0 .73.74h9.79a.73.73 0 0 0 .73-.74v-1.91a.72.72 0 0 0-.73-.73zm0 2.63H9.46v-1.89h9.77l.01 1.89z"/>
  </g>
</svg>
