<svg xmlns="http://www.w3.org/2000/svg" width="16" height="16" viewBox="0 0 24 24">
  <path fill="#515366" fill-rule="evenodd"
        d="M21.386 10.982a1.386 1.386 0 0 0-.887-.658V8.276C20.499 3.716 16.606 0 11.82 0 7.037 0 3.144 3.716 3.144 8.276v2.048a1.386 1.386 0 0 0-.883.675c-.146.28-.217.594-.208.91v4.506c-.008.314.063.626.208.905.296.507.858.798 1.443.746h.684c.028.466.415.83.883.83h.777a.883.883 0 0 0 .883-.883v-7.79a.883.883 0 0 0-.883-.883h-.799a.883.883 0 0 0-.883.882v.036H4.01V8.276c0-4.078 3.495-7.393 7.794-7.393 4.3 0 7.795 3.315 7.795 7.393v1.982h-.357v-.036a.883.883 0 0 0-.883-.882h-.742a.883.883 0 0 0-.882.882v7.822c.01.441.346.807.785.856a2.869 2.869 0 0 1-.715 1.505c-.693.768-1.823 1.21-3.345 1.324v-.194a.927.927 0 0 0-.963-.883h-1.893a.927.927 0 0 0-.962.883v1.324a.927.927 0 0 0 .962.883h1.911a.927.927 0 0 0 .962-.883v-.247c1.788-.12 3.139-.658 4-1.607a3.765 3.765 0 0 0 .966-2.11.883.883 0 0 0 .83-.825h.684a1.514 1.514 0 0 0 1.443-.746c.145-.279.216-.59.208-.905v-4.51a1.854 1.854 0 0 0-.221-.927zM5.27 17.218v-6.095a.88.88 0 0 0 0-.155v-.728l.742-.022v7.8H5.27v-.8zm-.883-6.117v6.082h-.684c-.512 0-.631-.216-.67-.291a1.01 1.01 0 0 1-.098-.482v-4.502a1.01 1.01 0 0 1 .093-.485c.04-.07.159-.291.67-.291l.69-.031zm8.223 11.078v.605a.12.12 0 0 1-.097.062h-1.911a.487.487 0 0 1-.07 0v-1.289a.12.12 0 0 1 .088-.027h1.99v.65zm5.765-11.056v6.894H17.629v-7.795h.76l-.013.9zm2.233 5.777c-.04.071-.159.292-.67.292h-.68V11.14h.68c.511 0 .63.217.67.292.071.15.105.315.097.48v4.507c.008.166-.026.331-.097.481z"/>
</svg>
