<svg xmlns="http://www.w3.org/2000/svg" width="24" height="24" viewBox="0 0 24 24">
    <defs>
        <filter id="3yaa1onxda">
            <feColorMatrix in="SourceGraphic" values="0 0 0 0 0.203922 0 0 0 0 0.203922 0 0 0 0 0.203922 0 0 0 1.000000 0"/>
        </filter>
    </defs>
    <g fill="none" fill-rule="evenodd">
        <g>
            <g>
                <g>
                    <g>
                        <path d="M0 0H24V24H0z" transform="translate(-418 -116) translate(230 88) translate(168 19) translate(20 9) rotate(180 12 12)"/>
                        <g  transform="translate(-418 -116) translate(230 88) translate(168 19) translate(20 9)">
                            <g fill-rule="nonzero">
                                <path stroke="#343434" stroke-width="1.5" d="M10.514 7.264c.55.352.623.532.623.729h0v7.029c0 .205-.078.392-.208.527-.12.125-.287.205-.472.205h0l-8.91.006c-.186 0-.353-.08-.474-.206-.13-.136-.21-.323-.21-.529h0V7.998c0-.205.078-.393.209-.529.12-.125.286-.205.47-.205h0z" transform="translate(6 2.5)"/>
                                <path fill="#343434" d="M3.48 6.93V4.777c0-1.489 1.136-2.701 2.534-2.702 1.3 0 2.357.861 2.5 2.207 0 .002.013.005.037.008l.682.002h.73c.025-.004.037-.007.037-.01C9.852 2.066 8.13.5 6.013.5 3.799.501 1.999 2.42 2 4.779V6.93c.001.315.24.57.536.57h.41c.295 0 .535-.256.535-.57z" transform="translate(6 2.5)"/>
                            </g>
                        </g>
                    </g>
                </g>
            </g>
        </g>
    </g>
</svg>
