<svg xmlns="http://www.w3.org/2000/svg" width="24" height="24" viewBox="0 0 24 24">
    <g fill="none" fill-rule="evenodd">
        <g>
            <g>
                <g>
                    <g>
                        <path d="M0 0L24 0 24 24 0 24z" transform="translate(-16 -570) translate(0 562) translate(16 8)"/>
                    </g>
                    <g>
                        <path d="M0 0H24V24H0z" transform="translate(-16 -570) translate(0 562) translate(16 8)"/>
                        <path opacity=".6" fill="#FFF" fill-rule="nonzero" stroke="#FFF" stroke-width=".5" d="M14.156 18.5c.133 1.307-1.017 2.616-2.564 2.781-.836.09-1.655-.138-2.244-.622-.462-.38-.747-1.003-.804-1.559h0l.936.01c.04.387.272.653.46.807.398.328.963.478 1.555.415 1.031-.11 1.806-.837 1.725-1.623h0zM9.836 2.127c3.494-.742 6.241 1.966 7.15 5.027.68 2.304 1.697 2.92 2.439 3.37.19.115.369.224.528.35h0l.09.062c.591.702.732 1.707.812 2.375.02.175.08.321.104.438h0l.058.274-.258.194c-1.712 1.517-4.183 2.58-7.668 3.32-3.484.74-6.145.77-8.325.08h0l-.305-.076-.058-.273c-.025-.118-.03-.274-.083-.444-.2-.643-.458-1.622-.203-2.504h0l.035-.09c.094-.178.214-.35.34-.533.496-.713 1.173-1.69.858-4.07-.415-3.165.993-6.757 4.487-7.5zm6.249 5.296c-.76-2.559-2.977-5.016-6.05-4.363-3.072.653-4.098 3.8-3.75 6.446.363 2.749-.47 3.949-1.02 4.742-.102.147-.191.276-.257.392-.15.598.08 1.346.251 1.896l.072.237c1.977.56 4.396.504 7.583-.173 3.186-.678 5.42-1.61 6.996-2.926l-.03-.246c-.07-.572-.162-1.35-.54-1.834-.107-.079-.241-.16-.394-.253-.826-.5-2.075-1.258-2.861-3.918z" transform="translate(-16 -570) translate(0 562) translate(16 8)"/>
                    </g>
                </g>
            </g>
        </g>
    </g>
</svg>
