<?xml version="1.0" encoding="UTF-8"?>
<svg width="190px" height="34px" viewBox="0 0 190 34" version="1.1" xmlns="http://www.w3.org/2000/svg" xmlns:xlink="http://www.w3.org/1999/xlink">
    <title>logo</title>
    <defs>
        <rect id="path-1" x="0" y="0" width="189.124348" height="33.0434783"></rect>
    </defs>
    <g id="მთავარი-გვერდი" stroke="none" stroke-width="1" fill="none" fill-rule="evenodd">
        <g id="მთავარი-გვერდი-/-restyle" transform="translate(-1527.000000, -191.000000)">
            <g id="Group-40" transform="translate(254.000000, 167.000000)">
                <g id="Group-44-Copy-4" transform="translate(1248.000000, 0.000000)">
                    <g id="logo" transform="translate(25.000000, 24.000000)">
                        <mask id="mask-2" fill="white">
                            <use xlink:href="#path-1"></use>
                        </mask>
                        <g id="Rectangle"></g>
                        <g id="Component_48_4" mask="url(#mask-2)" fill-rule="nonzero">
                            <path d="M38.5163043,6.50543478 C38.2405978,6.07277174 34.1380435,0 27.0254348,0 L11.8171739,0 C6.89235082,0.000570167658 2.90013539,3.9927856 2.89956522,8.9176087 L2.89956522,25.6035326 C2.89956522,26.096087 2.13336957,25.8224457 2.13336957,25.8224457 C1.92080756,25.754643 1.69967693,25.7174402 1.47663043,25.7119565 C1.0844032,25.7105768 0.707857421,25.8658488 0.430606124,26.143294 C0.153354826,26.4207392 -0.00165392005,26.7973934 -1.3100648e-05,27.1896196 C-1.3100648e-05,28.9450543 2.73538043,29.6513587 3.82994565,29.6513587 C4.14075571,29.6620225 4.4518833,29.6437005 4.75929348,29.5966304 C6.46266529,31.7624124 9.06182463,33.0317604 11.8171739,33.0434783 L26.9707065,33.0434783 C31.8955296,33.0429081 35.887745,29.0506927 35.8883152,24.1258696 L35.8883152,14.9903804 C35.8883152,14.9903804 37.7470109,12.6380978 37.9669565,12.4191848 L37.9669565,12.4191848 C37.9669565,12.4191848 39.443587,10.3952717 39.8256522,9.6311413 C40.2077174,8.86701087 39.8803804,8.53657609 38.5121739,6.51266304" id="Path_575" fill="#FFFFFF"></path>
                            <path d="M29.5945652,23.5248913 C29.94753,23.6410409 30.3176214,23.6965546 30.6891304,23.6890761 C32.3299457,23.6890761 33.041413,23.032337 33.041413,22.2671739 C33.041413,21.3915217 31.8373913,21.3915217 31.7279348,20.5716304 C31.56375,19.5865217 31.6732065,15.2103261 33.36875,12.8033152 L34.5180435,13.2958696 C34.7413175,13.3991393 34.983562,13.4550419 35.2295109,13.4600543 C35.5283301,13.4493117 35.8078209,13.3095663 35.9957065,13.0769565 C37.1312799,11.8439999 38.1230933,10.4860157 38.9520652,9.02913043 C39.11625,8.75548913 36.7092391,5.74646739 35.3957609,4.70766304 C34.4413055,3.96596382 33.2681534,3.5611156 32.0594022,3.55613895 C29.7922858,3.53843683 27.7667571,4.96968853 27.0264674,7.1126087 C24.7257102,8.72400312 22.1750446,9.94508498 19.4770652,10.7267391 C15.8113043,11.7118478 12.0371196,10.7814674 9.52065217,10.9456522 C8.11237087,10.9417602 6.76306933,11.5107917 5.78286373,12.5219635 C4.80265812,13.5331352 4.27585524,14.8994771 4.32353261,16.3069565 C4.37826087,19.1517935 6.34744565,21.7229891 6.34744565,24.4036413 C6.36825106,25.1888388 6.07275502,25.94948 5.5273326,26.5147077 C4.98191017,27.0799354 4.23228791,27.4023628 3.44684783,27.4095652 C2.02494565,27.4095652 1.97021739,26.8622826 1.5323913,26.8622826 C1.42947036,26.8355638 1.31998426,26.8570742 1.23482189,26.9207451 C1.14965952,26.984416 1.09805423,27.0833443 1.09456522,27.1896196 C1.09456522,27.901087 2.85,28.5578261 3.82994565,28.5578261 C5.30458867,28.6110054 6.70509462,27.9107525 7.54733696,26.6991304 C8.12023006,27.9730135 9.43915882,28.7422157 10.83,28.613587 C12.9086413,28.613587 13.7842935,27.6284783 13.7842935,26.808587 C13.7842935,26.1518478 13.4011957,25.8792391 13.0728261,25.4403804 C12.8054125,25.0767147 12.6702505,24.632611 12.6897283,24.1816304 C13.0532693,24.220372 13.4187011,24.2386436 13.7842935,24.2363587 C15.2609239,24.2363587 15.7534783,23.6343478 15.7534783,23.032337 C15.7534783,22.2661413 14.8778261,22.3208696 14.8778261,21.0631522 C14.8778261,20.0780435 15.4251087,19.8044022 15.8629348,19.8044022 C16.3554891,19.8044022 18.2699457,19.968587 20.6222283,20.2422283 C21.3884239,20.2969565 23.3070109,21.0631522 23.3070109,24.0721739 L23.3070109,25.1667391 C23.3070109,26.9717391 24.0184783,29.2703261 27.3011413,29.2703261 C29.4892391,29.2703261 30.7479891,28.0663043 30.7479891,27.1369565 C30.7479891,26.5349457 30.2554348,26.3160326 29.9817935,25.9329348 C29.4969194,25.2297143 29.3560975,24.3449282 29.5986957,23.5259239" id="Path_576" fill="#F26724"></path>
                            <path d="M34.9032065,10.4489674 C34.6916274,10.4489674 34.5201087,10.6204861 34.5201087,10.8320652 C34.5201087,11.0436443 34.6916274,11.215163 34.9032065,11.215163 C35.1147856,11.215163 35.2863043,11.0436443 35.2863043,10.8320652 C35.2888828,10.7296927 35.2493494,10.6307449 35.1769381,10.5583336 C35.1045268,10.4859224 35.0055791,10.4463889 34.9032065,10.4489674" id="Path_577" fill="#FFFFFF"></path>
                            <path d="M36.2166848,9.30070652 C36.0353313,9.30070652 35.8883152,9.44772258 35.8883152,9.62907609 C35.8883152,9.81042959 36.0353313,9.95744565 36.2166848,9.95744565 C36.3980383,9.95744565 36.5450543,9.81042959 36.5450543,9.62907609 C36.5489016,9.5408638 36.5155428,9.45508765 36.453108,9.39265285 C36.3906732,9.33021805 36.3048971,9.29685922 36.2166848,9.30070652" id="Path_578" fill="#FFFFFF"></path>
                            <path d="M36.8734239,8.04195652 C36.722296,8.04195652 36.5997826,8.16446991 36.5997826,8.31559783 C36.5997826,8.46672575 36.722296,8.58923913 36.8734239,8.58923913 C37.0245518,8.58923913 37.1470652,8.46672575 37.1470652,8.31559783 C37.1375201,8.16860499 37.0204167,8.05150167 36.8734239,8.04195652" id="Path_579" fill="#FFFFFF"></path>
                            <path d="M25.9319022,9.84798913 C26.1737068,9.84798913 26.3697283,9.65196771 26.3697283,9.41016304 C26.3697283,9.16835837 26.1737068,8.97233696 25.9319022,8.97233696 C25.6900975,8.97233696 25.4940761,9.16835837 25.4940761,9.41016304 C25.5488043,9.68380435 25.7129891,9.84798913 25.9319022,9.84798913" id="Path_580" fill="#FFFFFF"></path>
                            <path d="M27.5179891,19.8044022 C27.4069485,19.8056324 27.3016884,19.8541011 27.2285631,19.9376728 C27.1554379,20.0212445 27.1213708,20.132007 27.1348913,20.2422283 C27.1256904,20.4668785 27.2941056,20.659353 27.5179891,20.6800543 C27.6346167,20.6817408 27.746962,20.6361546 27.8294387,20.5536778 C27.9119154,20.4712011 27.9575017,20.3588558 27.9558152,20.2422283 C27.901087,20.0233152 27.7369022,19.8044022 27.5179891,19.8044022" id="Path_581" fill="#FFFFFF"></path>
                            <path d="M29.9797283,20.2422283 C29.7379236,20.2422283 29.5419022,20.4382497 29.5419022,20.6800543 C29.5419022,20.921859 29.7379236,21.1178804 29.9797283,21.1178804 C30.2215329,21.1178804 30.4175543,20.921859 30.4175543,20.6800543 C30.3628261,20.406413 30.1986413,20.2422283 29.9797283,20.2422283" id="Path_582" fill="#FFFFFF"></path>
                            <path d="M27.8463587,16.083913 C27.604554,16.083913 27.4085326,16.2799345 27.4085326,16.5217391 C27.4085326,16.7635438 27.604554,16.9595652 27.8463587,16.9595652 C27.9654936,16.9704953 28.0833209,16.9278912 28.1679158,16.8432963 C28.2525108,16.7587014 28.2951149,16.6408741 28.2841848,16.5217391 C28.2858712,16.4051116 28.240285,16.2927663 28.1578083,16.2102896 C28.0753315,16.1278128 27.9629862,16.0822266 27.8463587,16.083913" id="Path_583" fill="#FFFFFF"></path>
                            <path d="M29.2692935,13.294837 C29.5110981,13.294837 29.7071196,13.0988155 29.7071196,12.8570109 C29.7071196,12.6152062 29.5110981,12.4191848 29.2692935,12.4191848 C29.0505652,12.4493002 28.8876187,12.6362191 28.8876187,12.8570109 C28.8876187,13.0778026 29.0505652,13.2647215 29.2692935,13.294837" id="Path_584" fill="#FFFFFF"></path>
                            <path d="M22.8134239,11.5982609 C23.0552286,11.5982609 23.25125,11.4022395 23.25125,11.1604348 C23.25125,10.9186301 23.0552286,10.7226087 22.8134239,10.7226087 C22.5716192,10.7226087 22.3755978,10.9186301 22.3755978,11.1604348 C22.4303261,11.4340761 22.5945109,11.5982609 22.8134239,11.5982609" id="Path_585" fill="#FFFFFF"></path>
                            <path d="M25.1657065,18.9834783 C24.9239019,18.9834783 24.7278804,19.1794997 24.7278804,19.4213043 C24.7278804,19.663109 24.9239019,19.8591304 25.1657065,19.8591304 C25.4075112,19.8591304 25.6035326,19.663109 25.6035326,19.4213043 C25.5488043,19.147663 25.3846196,18.9834783 25.1657065,18.9834783" id="Path_586" fill="#FFFFFF"></path>
                            <path d="M24.016413,13.6221739 C24.1274537,13.6209436 24.2327138,13.572475 24.305839,13.4889033 C24.3789643,13.4053316 24.4130314,13.2945691 24.3995109,13.1843478 C24.4087118,12.9596976 24.2402966,12.767223 24.016413,12.7465217 C23.7746084,12.7465217 23.578587,12.9425432 23.578587,13.1843478 C23.578587,13.4261525 23.7746084,13.6221739 24.016413,13.6221739" id="Path_587" fill="#FFFFFF"></path>
                            <path d="M21.3904891,15.9744565 C21.1486845,15.9744565 20.952663,16.1704779 20.952663,16.4122826 C20.952663,16.6540873 21.1486845,16.8501087 21.3904891,16.8501087 C21.6322938,16.8501087 21.8283152,16.6540873 21.8283152,16.4122826 C21.8123379,16.1774139 21.6253578,15.9904338 21.3904891,15.9744565" id="Path_588" fill="#FFFFFF"></path>
                            <path d="M25.6582609,15.537663 C25.9000655,15.537663 26.096087,15.3416416 26.096087,15.099837 C26.096087,14.8580323 25.9000655,14.6620109 25.6582609,14.6620109 C25.4164562,14.6620109 25.2204348,14.8580323 25.2204348,15.099837 C25.275163,15.3734783 25.4393478,15.537663 25.6582609,15.537663" id="Path_589" fill="#FFFFFF"></path>
                            <path d="M19.147663,11.8719022 C18.9705789,11.8719022 18.8109316,11.9785751 18.7431645,12.1421795 C18.6753973,12.3057839 18.7128559,12.4941007 18.8380732,12.6193181 C18.9632906,12.7445354 19.1516074,12.781994 19.3152118,12.7142268 C19.4788162,12.6464597 19.5854891,12.4868124 19.5854891,12.3097283 C19.5871756,12.1931007 19.5415894,12.0807554 19.4591126,11.9982787 C19.3766359,11.9158019 19.2642906,11.8702157 19.147663,11.8719022" id="Path_590" fill="#FFFFFF"></path>
                            <path d="M20.0780435,14.0052717 C19.8362388,14.0052717 19.6402174,14.2012932 19.6402174,14.4430978 C19.6402174,14.6849025 19.8362388,14.8809239 20.0780435,14.8809239 C20.3198481,14.8809239 20.5158696,14.6849025 20.5158696,14.4430978 C20.4611413,14.1694565 20.2969565,14.0052717 20.0780435,14.0052717" id="Path_591" fill="#FFFFFF"></path>
                            <path d="M23.0870652,17.5615761 C22.9099811,17.5615761 22.7503338,17.668249 22.6825667,17.8318534 C22.6147995,17.9954578 22.652258,18.1837746 22.7774754,18.308992 C22.9026928,18.4342094 23.0910096,18.4716679 23.254614,18.4039007 C23.4182184,18.3361336 23.5248913,18.1764863 23.5248913,17.9994022 C23.470163,17.7804891 23.3059783,17.5615761 23.0870652,17.5615761" id="Path_592" fill="#FFFFFF"></path>
                            <path d="M27.2990761,11.7624457 C27.5408808,11.7624457 27.7369022,11.5664242 27.7369022,11.3246196 C27.7369022,11.0828149 27.5408808,10.8867935 27.2990761,10.8867935 C27.0572714,10.8867935 26.86125,11.0828149 26.86125,11.3246196 C26.9159783,11.5982609 27.080163,11.7624457 27.2990761,11.7624457" id="Path_593" fill="#FFFFFF"></path>
                            <path d="M30.3080978,16.8501087 C30.0662932,16.8501087 29.8702717,17.0461301 29.8702717,17.2879348 C29.8702717,17.5297395 30.0662932,17.7257609 30.3080978,17.7257609 C30.5499025,17.7257609 30.7459239,17.5297395 30.7459239,17.2879348 C30.7476104,17.1713073 30.7020241,17.0589619 30.6195474,16.9764852 C30.5370707,16.8940085 30.4247253,16.8484222 30.3080978,16.8501087" id="Path_594" fill="#FFFFFF"></path>
                            <path d="M31.3479348,13.5127174 C31.1061301,13.5127174 30.9101087,13.7087388 30.9101087,13.9505435 C30.9101087,14.1923481 31.1061301,14.3883696 31.3479348,14.3883696 C31.4670697,14.3992996 31.584897,14.3566955 31.6694919,14.2721006 C31.7540868,14.1875057 31.796691,14.0696784 31.7857609,13.9505435 C31.7874473,13.833916 31.7418611,13.7215706 31.6593844,13.6390939 C31.5769076,13.5566172 31.4645623,13.5110309 31.3479348,13.5127174" id="Path_595" fill="#FFFFFF"></path>
                            <path d="M31.0742935,10.1205978 C30.8324888,10.1205978 30.6364674,10.3166192 30.6364674,10.5584239 C30.6364674,10.8002286 30.8324888,10.99625 31.0742935,10.99625 C31.3160981,10.99625 31.5121196,10.8002286 31.5121196,10.5584239 C31.5230496,10.439289 31.4804455,10.3214617 31.3958506,10.2368668 C31.3112557,10.1522719 31.1934284,10.1096677 31.0742935,10.1205978" id="Path_596" fill="#FFFFFF"></path>
                            <path d="M33.0434783,10.7226087 C32.8016736,10.7226087 32.6056522,10.9186301 32.6056522,11.1604348 C32.6056522,11.4022395 32.8016736,11.5982609 33.0434783,11.5982609 C33.2852829,11.5982609 33.4813043,11.4022395 33.4813043,11.1604348 C33.4653271,10.9255661 33.2783469,10.738586 33.0434783,10.7226087" id="Path_597" fill="#FFFFFF"></path>
                            <path d="M29.6513587,8.86288043 C29.409554,8.86288043 29.2135326,9.05890185 29.2135326,9.30070652 C29.2135326,9.54251119 29.409554,9.73853261 29.6513587,9.73853261 C29.8931634,9.73853261 30.0891848,9.54251119 30.0891848,9.30070652 C30.0344565,9.02706522 29.8702717,8.86288043 29.6513587,8.86288043" id="Path_598" fill="#FFFFFF"></path>
                            <path d="M28.8314674,7.27576087 C28.5896627,7.27576087 28.3936413,7.47178229 28.3936413,7.71358696 C28.3936413,7.95539163 28.5896627,8.15141304 28.8314674,8.15141304 C29.0732721,8.15141304 29.2692935,7.95539163 29.2692935,7.71358696 C29.2145652,7.49467391 29.0503804,7.27576087 28.8314674,7.27576087" id="Path_599" fill="#FFFFFF"></path>
                            <path d="M30.5270109,7.27576087 C30.2852062,7.27576087 30.0891848,7.47178229 30.0891848,7.71358696 C30.0891848,7.95539163 30.2852062,8.15141304 30.5270109,8.15141304 C30.7688155,8.15141304 30.964837,7.95539163 30.964837,7.71358696 C30.9488597,7.47871827 30.7618796,7.29173816 30.5270109,7.27576087" id="Path_600" fill="#FFFFFF"></path>
                            <path d="M28.5578261,6.18222826 C28.5698091,6.00607675 28.7100441,5.86584167 28.8861957,5.8538587 C28.9744079,5.8500114 29.0601841,5.88337023 29.1226189,5.94580502 C29.1850537,6.00823982 29.2184125,6.09401598 29.2145652,6.18222826 C29.2145652,6.36358176 29.0675492,6.51059783 28.8861957,6.51059783 C28.7048421,6.51059783 28.5578261,6.36358176 28.5578261,6.18222826" id="Path_601" fill="#FFFFFF"></path>
                            <path d="M29.5966304,4.92347826 C29.5966304,4.77235034 29.7191438,4.64983696 29.8702717,4.64983696 C30.0213997,4.64983696 30.143913,4.77235034 30.143913,4.92347826 C30.143913,5.07460618 30.0213997,5.19711957 29.8702717,5.19711957 C29.7232789,5.18757441 29.6061756,5.0704711 29.5966304,4.92347826" id="Path_602" fill="#FFFFFF"></path>
                            <path d="M30.9101087,4.3225 C30.9101087,4.20159766 31.0081194,4.10358696 31.1290217,4.10358696 C31.2499241,4.10358696 31.3479348,4.20159766 31.3479348,4.3225 C31.3479348,4.44340234 31.2499241,4.54141304 31.1290217,4.54141304 C31.0115874,4.5334244 30.9180973,4.43993434 30.9101087,4.3225" id="Path_603" fill="#FFFFFF"></path>
                            <path d="M36.5997826,7.16630435 C36.5997826,7.04540201 36.6977933,6.9473913 36.8186957,6.9473913 C36.939598,6.9473913 37.0376087,7.04540201 37.0376087,7.16630435 C37.0376087,7.28720668 36.939598,7.38521739 36.8186957,7.38521739 C36.7012613,7.37722874 36.6077713,7.28373869 36.5997826,7.16630435" id="Path_604" fill="#FFFFFF"></path>
                            <path d="M36.271413,11.2698913 C36.271413,11.148989 36.3694238,11.0509783 36.4903261,11.0509783 C36.6112284,11.0509783 36.7092391,11.148989 36.7092391,11.2698913 C36.7092391,11.3907936 36.6112284,11.4888043 36.4903261,11.4888043 C36.4355978,11.4888043 36.3261413,11.3793478 36.271413,11.2698913" id="Path_605" fill="#FFFFFF"></path>
                            <path d="M36.8734239,10.5036957 C36.8734239,10.3827933 36.9714346,10.2847826 37.092337,10.2847826 C37.2132393,10.2847826 37.31125,10.3827933 37.31125,10.5036957 C37.31125,10.624598 37.2132393,10.7226087 37.092337,10.7226087 C36.9749026,10.71462 36.8814126,10.62113 36.8734239,10.5036957" id="Path_606" fill="#FFFFFF"></path>
                            <path d="M35.6694022,12.0908152 C35.6694022,11.9699129 35.7674129,11.8719022 35.8883152,11.8719022 C36.0092176,11.8719022 36.1072283,11.9699129 36.1072283,12.0908152 C36.1072283,12.2117176 36.0092176,12.3097283 35.8883152,12.3097283 C35.7708809,12.3017396 35.6773908,12.2082496 35.6694022,12.0908152" id="Path_607" fill="#FFFFFF"></path>
                            <path d="M34.9579348,12.80125 C34.9579348,12.7127079 35.0112712,12.6328843 35.0930734,12.5990007 C35.1748756,12.5651171 35.269034,12.5838464 35.3316427,12.6464551 C35.3942514,12.7090638 35.4129807,12.8032222 35.3790971,12.8850244 C35.3452135,12.9668266 35.2653899,13.020163 35.1768478,13.020163 C35.0673913,13.020163 35.012663,12.9107065 34.9579348,12.80125" id="Path_608" fill="#FFFFFF"></path>
                            <path d="M37.4196739,9.68380435 C37.4196739,9.56290201 37.5176846,9.4648913 37.638587,9.4648913 C37.7594893,9.4648913 37.8575,9.56290201 37.8575,9.68380435 C37.8575,9.80470668 37.7594893,9.90271739 37.638587,9.90271739 C37.5211526,9.89472874 37.4276626,9.80123869 37.4196739,9.68380435" id="Path_609" fill="#FFFFFF"></path>
                            <path d="M37.8027717,8.97233696 C37.8027717,8.85143462 37.9007824,8.75342391 38.0216848,8.75342391 C38.1425871,8.75342391 38.2405978,8.85143462 38.2405978,8.97233696 C38.2405978,9.09323929 38.1425871,9.19125 38.0216848,9.19125 C37.9122283,9.19125 37.8575,9.13652174 37.8027717,8.97233696" id="Path_610" fill="#FFFFFF"></path>
                            <path d="M12.0897826,26.4234239 C11.2057262,24.8164534 11.0273858,22.9149033 11.5972283,21.1715761 C12.7465217,18.2172826 16.0828804,18.6003804 16.0828804,18.6003804 C15.5316355,18.354608 14.9302568,18.2421148 14.3274457,18.2720109 C11.9325908,18.4795164 10.1536862,20.5802653 10.3436413,22.9765761 C10.4466157,24.3133965 11.0784217,25.553966 12.0990761,26.4234239" id="Path_611" fill="#FFFFFF"></path>
                            <path d="M6.56532609,18.1078261 C5.89430976,17.4430361 5.51947247,16.5359075 5.5254178,15.5913587 C5.55967422,13.6416015 7.13203628,12.0692394 9.08179348,12.0350543 C11.1057065,11.9255978 14.8261957,12.5276087 17.2332065,12.1992391 C18.0541304,15.865 20.7895109,18.4361957 22.8092935,20.0770109 C20.3475543,18.9824457 17.8858152,16.0828804 15.0409783,14.5009239 C12.0866848,12.8601087 9.07766304,12.5864674 7.49157609,14.0630978 C6.46786731,15.1429251 6.11189286,16.6937871 6.56222826,18.1119565" id="Path_612" fill="#FFFFFF"></path>
                            <path d="M14.9945109,21.8283152 C15.1586957,22.8681522 13.2390761,23.2502174 13.2390761,23.2502174 C14.9945109,23.578587 15.5366304,22.6482065 15.5366304,22.6482065 C15.3872755,22.3539049 15.2035667,22.0783417 14.9893478,21.8272826" id="Path_613" fill="#FFFFFF"></path>
                            <path d="M28.8304348,22.3755978 L28.8304348,22.3755978 C28.8304348,22.3755978 27.6811413,23.9616848 28.5020652,26.9190761 C27.9005987,27.3909954 27.2132503,27.7416834 26.4781522,27.9516848 C26.4781522,27.9516848 29.1040761,28.2800543 29.925,26.9118478 C28.2841848,25.6530978 28.7757065,22.5903804 28.8304348,22.3683696" id="Path_614" fill="#FFFFFF"></path>
                            <path d="M34.028587,5.63494565 C33.1077023,5.38408356 32.1564222,5.92096285 31.8952174,6.83896739 C31.8512291,7.29747229 31.9952126,7.75419746 32.2942036,8.10457745 C32.5931945,8.45495744 33.0215877,8.66898633 33.4813043,8.69766304 C34.402189,8.94852513 35.3534691,8.41164585 35.6146739,7.4936413 C35.6586622,7.03513641 35.5146787,6.57841124 35.2156877,6.22803125 C34.9166968,5.87765126 34.4883036,5.66362236 34.028587,5.63494565 M35.3420652,7.43994565 C35.1506216,8.09651958 34.4736624,8.48361431 33.8107065,8.31559783 C33.4908568,8.28785272 33.1953343,8.13351457 32.9898026,7.88687648 C32.7842708,7.64023839 32.6857538,7.32172908 32.7161413,7.00211957 C32.9075849,6.34554563 33.5845442,5.95845091 34.2475,6.12646739 C34.5673497,6.1542125 34.8628722,6.30855065 35.068404,6.55518874 C35.2739357,6.80182683 35.3724528,7.12033614 35.3420652,7.43994565" id="Path_615" fill="#FFFFFF"></path>
                            <path d="M33.9738587,7.16733696 C34.0770976,6.81413003 34.4345464,6.59966075 34.7947826,6.67478261 C35.1569838,6.70598805 35.425969,7.02387966 35.3967935,7.38625 C35.2935546,7.73945692 34.9361058,7.9539262 34.5758696,7.87880435 C34.2136684,7.84759891 33.9446832,7.5297073 33.9738587,7.16733696" id="Path_616" fill="#FFFFFF"></path>
                            <path d="M31.8394565,20.952663 L31.8394565,20.952663 C32.4414674,22.1019565 30.47125,22.53875 30.47125,22.53875 C31.8931522,22.757663 32.6593478,21.9367391 32.6593478,21.5536413 C32.3581452,21.3935484 32.0816486,21.1907842 31.8384239,20.9516304" id="Path_617" fill="#FFFFFF"></path>
                            <path d="M19.5307609,17.1784783 C19.5307609,17.1784783 19.8044022,17.5068478 20.2422283,17.9446739 C20.7945534,18.4746302 21.3809499,18.9678932 21.997663,19.4213043 C22.6006934,19.875953 23.2411326,20.2787319 23.9121196,20.6253261 C24.1192607,20.7568942 24.3393195,20.8669237 24.5688587,20.9536957 C24.662319,20.9842926 24.7537205,21.0208532 24.8425,21.0631522 C24.7537205,21.0208532 24.662319,20.9842926 24.5688587,20.9536957 C24.3209128,20.869319 24.0824623,20.7592649 23.8573913,20.6253261 C23.1564392,20.2905427 22.4801058,19.9064819 21.8334783,19.4760326 C21.1935278,19.0527931 20.5897909,18.5771949 20.0284783,18.0541304 C19.7561059,17.8162893 19.5001237,17.5603072 19.2622826,17.2879348 C19.2074603,17.2252606 19.2074603,17.1316959 19.2622826,17.0690217 C19.3638527,17.0706167 19.4612732,17.1095848 19.5359239,17.1784783 L19.5359239,17.1784783" id="Path_618" fill="#FFFFFF"></path>
                            <path d="M36.0525,6.56532609 C35.5476066,5.69144917 34.6316743,5.13564557 33.6234024,5.09130754 C32.6151304,5.04696951 31.6539458,5.52022824 31.0742935,6.34641304 C30.9679713,6.47745816 30.7990769,6.540734 30.6328224,6.51180902 C30.4665678,6.48288404 30.3289682,6.36628435 30.2731523,6.20703044 C30.2173364,6.04777652 30.2520381,5.870788 30.3638587,5.74440217 C31.0107437,5.00292194 31.9511628,4.58369898 32.9350543,4.59820652 C34.2782466,4.55945939 35.511132,5.33797347 36.0535326,6.5673913" id="Path_619" fill="#FFFFFF"></path>
                            <path d="M32.8245652,12.6422283 C31.4887996,12.5017073 30.2190054,11.9902128 29.1588043,11.1655978 C28.2075162,10.4942615 27.4217635,9.61492477 26.86125,8.59440217 C26.8065217,8.43021739 26.8065217,8.21130435 26.9707065,8.15657609 C27.0412633,8.10571092 27.1306548,8.08853564 27.2150378,8.10963139 C27.2994208,8.13072714 27.3702132,8.1879484 27.4085326,8.26603261 C27.9291326,9.34178369 28.6754382,10.2927158 29.5966304,11.0540761 C30.5392464,11.819844 31.6426964,12.3627442 32.8245652,12.6422283" id="Path_620" fill="#FFFFFF"></path>
                            <path d="M31.4016304,15.4819022 C29.1997893,15.281639 27.1518333,14.2672343 25.6582609,12.6370652 C24.9505341,11.8796386 24.3438268,11.0337886 23.8532609,10.1205978 C23.7625841,9.96946991 23.8115895,9.77344849 23.9627174,9.68277174 C24.1138453,9.59209499 24.3098667,9.64110034 24.4005435,9.79222826 C24.9169437,10.9686127 25.6394245,12.0432417 26.533913,12.9654348 C27.8234827,14.3334595 29.540821,15.2210848 31.402663,15.4819022" id="Path_621" fill="#FFFFFF"></path>
                            <path d="M20.73375,11.215163 C20.8135997,11.1927686 20.8990945,11.2033254 20.9710984,11.2444705 C21.0431023,11.2856156 21.0956024,11.3539131 21.1168478,11.4340761 C21.6918425,13.1223999 22.645527,14.6567723 23.9048913,15.9197283 C25.7227991,17.7579775 28.1619385,18.8506736 30.7438587,18.9834783 C27.9739036,18.978667 25.3185758,17.8771069 23.3586413,15.9197283 C22.1369177,14.7115466 21.1864913,13.2570423 20.5705978,11.6529891 C20.5201473,11.5756774 20.509496,11.4789724 20.5419105,11.3925337 C20.574325,11.3060949 20.6459368,11.2402387 20.7347826,11.215163" id="Path_622" fill="#FFFFFF"></path>
                            <path d="M31.8941848,8.75342391 C32.4275086,9.11240916 33.0563013,9.30306142 33.6991848,9.30070652 C34.8295866,9.38751889 35.8439459,8.60905705 36.0525,7.49467391 C35.9075357,8.80455964 34.7991844,9.79495387 33.4813043,9.79222826 C32.8158676,9.81597697 32.1558152,9.66502648 31.5668478,9.35440217 C31.4064396,9.27349785 31.3350049,9.08300533 31.402663,8.91657609 C31.5668478,8.7523913 31.7857609,8.64293478 31.8952174,8.7523913" id="Path_623" fill="#FFFFFF"></path>
                            <path d="M49.072663,23.4144022 C49.080972,23.9913253 48.732751,24.5136568 48.1970109,24.7278804 C48.7902788,24.9291224 49.2018,25.4705977 49.2368478,26.096087 C49.2368478,27.3001087 48.4159239,27.8515217 46.9392935,27.8515217 L44.2586413,27.8515217 L44.2586413,21.7188587 L46.7751087,21.7188587 C48.1422826,21.7188587 49.072663,22.211413 49.072663,23.4144022 M45.4069022,24.2353261 L46.6656522,24.2353261 C47.267663,24.2353261 47.7602174,24.1258696 47.7602174,23.5238587 C47.7602174,22.9218478 47.267663,22.8123913 46.6656522,22.8123913 L45.4079348,22.8123913 L45.4069022,24.2353261 Z M45.4069022,26.8065217 L46.7751087,26.8065217 C47.4318478,26.8065217 47.8696739,26.642337 47.8696739,26.0403261 C47.8696739,25.4930435 47.4318478,25.3288587 46.7751087,25.3288587 L45.4079348,25.3288587 L45.4069022,26.8065217 Z" id="Path_624" fill="#6E6F71"></path>
                            <path d="M54.5981522,27.901087 L54.0508696,26.4791848 L51.4249457,26.4791848 L50.877663,27.901087 L49.6199457,27.901087 L52.0269565,21.7188587 L53.503587,21.7188587 L55.9105978,27.901087 L54.5981522,27.901087 Z M53.6130435,25.3298913 L52.7373913,22.9228804 L51.8627717,25.3329891 L53.6130435,25.3298913 Z" id="Path_625" fill="#6E6F71"></path>
                            <polygon id="Path_626" fill="#6E6F71" points="61.1077174 27.901087 57.9345109 23.7438043 57.9345109 27.901087 56.7315217 27.901087 56.7315217 21.7188587 57.8808152 21.7188587 60.9992935 25.8224457 60.9992935 21.7188587 62.2580435 21.7188587 62.2580435 27.901087"></polygon>
                            <polygon id="Path_627" fill="#6E6F71" points="64.8839674 25.3329891 64.8839674 27.9041848 63.6252174 27.9041848 63.6252174 21.7188587 64.8839674 21.7188587 64.8839674 24.1805978 65.43125 24.1805978 67.5098913 21.7188587 69.04125 21.7188587 66.4700543 24.7278804 69.2580978 27.901087 67.6720109 27.901087 65.4291848 25.3298913"></polygon>
                            <path d="M78.2325,24.7826087 C78.2325,26.0881864 77.4460389,27.2652086 76.2398424,27.7648316 C75.0336458,28.2644545 73.6452535,27.9882861 72.7220706,27.0651033 C71.7988878,26.1419204 71.5227194,24.7535281 72.0223423,23.5473315 C72.5219653,22.341135 73.6989875,21.5546739 75.0045652,21.5546739 C75.8628626,21.5474446 76.6881075,21.8852076 77.2950369,22.492137 C77.9019663,23.0990664 78.2397293,23.9243113 78.2325,24.7826087 M72.9806522,24.7826087 C73.0101182,25.8633831 73.9050411,26.7185037 74.9860375,26.6988033 C76.067034,26.6791029 76.9302051,25.7919423 76.920272,24.710812 C76.9103388,23.6296816 76.0310129,22.7585306 74.949837,22.7586957 C74.4127365,22.7411705 73.8930942,22.9506786 73.5183479,23.3358399 C73.1436016,23.7210013 72.9484136,24.2461903 72.9806522,24.7826087" id="Path_628" fill="#6E6F71"></path>
                            <polygon id="Path_629" fill="#6E6F71" points="80.5300543 25.3846196 80.5300543 27.901087 79.3260326 27.901087 79.3260326 21.7188587 83.8695109 21.7188587 83.8695109 22.8134239 80.5321196 22.8134239 80.5321196 24.2353261 83.6505978 24.2353261 83.6505978 25.3846196"></polygon>
                            <path d="M92.4515217,22.5397826 L91.5758696,23.4154348 C91.20006,22.9956552 90.6626604,22.7566439 90.0992391,22.7586957 C89.0095401,22.7839599 88.1351369,23.6668548 88.1204049,24.7567471 C88.1056729,25.8466394 88.9558928,26.7528458 90.0445109,26.8075543 C90.9030465,26.9000956 91.6800472,26.2944921 91.7999457,25.4393478 L90.268587,25.4393478 L90.268587,24.3995109 L93.1134239,24.3995109 L93.1134239,24.7278804 C93.1685353,25.556516 92.8748963,26.3704875 92.3034648,26.9730987 C91.7320333,27.5757099 90.9347949,27.9121386 90.1044022,27.901087 C88.9511721,27.8913107 87.8907592,27.2670362 87.3226107,26.2634215 C86.7544621,25.2598069 86.7648933,24.0293251 87.3499748,23.0354867 C87.9350563,22.0416484 89.0059004,21.4354411 90.1591304,21.4452174 C91.0280718,21.5349837 91.8395052,21.9215542 92.4566848,22.5397826" id="Path_630" fill="#6E6F71"></path>
                            <polygon id="Path_631" fill="#6E6F71" points="94.2616848 27.901087 94.2616848 21.7188587 98.805163 21.7188587 98.805163 22.8134239 95.4677717 22.8134239 95.4677717 24.1816304 98.6957065 24.1816304 98.6957065 25.3329891 95.4677717 25.3329891 95.4677717 26.7548913 98.8598913 26.7548913 98.8598913 27.9041848"></polygon>
                            <path d="M106.297772,24.7826087 C106.297772,26.0881864 105.511311,27.2652086 104.305114,27.7648316 C103.098918,28.2644545 101.710525,27.9882861 100.787342,27.0651033 C99.8641595,26.1419204 99.5879911,24.7535281 100.087614,23.5473315 C100.587237,22.341135 101.764259,21.5546739 103.069837,21.5546739 C103.928134,21.5474446 104.753379,21.8852076 105.360309,22.492137 C105.967238,23.0990664 106.305001,23.9243113 106.297772,24.7826087 M101.045924,24.7826087 C101.07539,25.8633831 101.970313,26.7185037 103.051309,26.6988033 C104.132306,26.6791029 104.995477,25.7919423 104.985544,24.710812 C104.975611,23.6296816 104.096285,22.7585306 103.015109,22.7586957 C102.478008,22.7411705 101.958366,22.9506786 101.58362,23.3358399 C101.208873,23.7210013 101.013685,24.2461903 101.045924,24.7826087" id="Path_632" fill="#6E6F71"></path>
                            <path d="M112.260054,23.5775543 C112.265933,24.0580483 112.077653,24.5205809 111.737867,24.8603669 C111.398081,25.2001529 110.935548,25.3884335 110.455054,25.3825543 L110.400326,25.3825543 L112.314783,27.8442935 L110.838152,27.8442935 L109.033152,25.3825543 L108.650054,25.3825543 L108.650054,27.8990217 L107.446033,27.8990217 L107.446033,21.7188587 L110.071957,21.7188587 C111.493859,21.7188587 112.260054,22.3755978 112.260054,23.5775543 M108.594293,24.34375 L109.9625,24.34375 C110.619239,24.34375 111.002337,24.0701087 111.002337,23.5775543 C111.002337,23.085 110.619239,22.8113587 109.9625,22.8113587 L108.594293,22.8113587 L108.594293,24.34375 Z" id="Path_633" fill="#6E6F71"></path>
                            <path d="M118.715924,22.5397826 L117.840272,23.4154348 C117.464462,22.9956552 116.927063,22.7566439 116.363641,22.7586957 C115.273942,22.7839599 114.399539,23.6668548 114.384807,24.7567471 C114.370075,25.8466394 115.220295,26.7528458 116.308913,26.8075543 C117.167449,26.9000956 117.944449,26.2944921 118.064348,25.4393478 L116.478261,25.4393478 L116.478261,24.3995109 L119.323098,24.3995109 L119.323098,24.7278804 C119.377891,25.556436 119.084146,26.370224 118.512784,26.972762 C117.941422,27.5753 117.144372,27.9118254 116.314076,27.901087 C115.160846,27.8913107 114.100433,27.2670362 113.532285,26.2634215 C112.964136,25.2598069 112.974567,24.0293251 113.559649,23.0354867 C114.14473,22.0416484 115.215574,21.4354411 116.368804,21.4452174 C117.253672,21.535186 118.08238,21.920801 118.721087,22.5397826" id="Path_634" fill="#6E6F71"></path>
                            <rect id="Rectangle_493" fill="#6E6F71" x="120.466196" y="21.7188587" width="1.20402174" height="6.18222826"></rect>
                            <path d="M127.469348,27.901087 L126.922065,26.4791848 L124.296141,26.4791848 L123.748859,27.901087 L122.491141,27.901087 L124.898152,21.7188587 L126.374783,21.7188587 L128.781793,27.901087 L127.469348,27.901087 Z M126.54,25.3298913 L125.664348,22.9228804 L124.788696,25.3298913 L126.54,25.3298913 Z" id="Path_635" fill="#6E6F71"></path>
                            <path d="M44.203913,13.2390761 L44.203913,8.26086957 L45.8447283,8.26086957 L45.8447283,13.1296196 C45.8447283,14.5515217 46.5014674,15.1535326 47.4855435,15.1535326 C48.5253804,15.1535326 49.181087,14.60625 49.181087,13.6769022 C49.181087,12.582337 47.9770652,12.3634239 47.9770652,11.0509783 L49.6178804,11.0509783 C49.6726087,11.7624457 50.8766304,12.0908152 50.8766304,13.8390217 C50.8766304,15.479837 49.4547283,16.6838587 47.4845109,16.6838587 C45.5142935,16.6838587 44.203913,15.5366304 44.203913,13.2390761" id="Path_636" fill="#6E6F71"></path>
                            <path d="M51.9175,13.2390761 L51.9175,12.6917935 L53.5583152,12.6917935 L53.5583152,13.1296196 C53.5583152,14.5515217 54.2150543,15.1535326 55.2538587,15.1535326 C55.7014185,15.1989562 56.145684,15.0407394 56.4637823,14.722641 C56.7818807,14.4045427 56.9400975,13.9602772 56.8946739,13.5127174 C56.8946739,11.5982609 54.26875,11.0509783 54.26875,8.75342391 L54.26875,8.26086957 L55.9095652,8.26086957 L55.9095652,8.64396739 C55.9095652,10.4489674 58.5943478,10.6131522 58.5943478,13.5127174 C58.6364619,14.4058102 58.2844935,15.272388 57.6315622,15.8831819 C56.9786309,16.4939757 56.090532,16.7874366 55.2022283,16.6859239 C54.2844579,16.7475138 53.3867802,16.398062 52.7522073,15.7321694 C52.1176344,15.0662768 51.811801,14.1528176 51.9175,13.2390761" id="Path_637" fill="#6E6F71"></path>
                            <path d="M59.7405435,13.5674457 L59.7405435,13.020163 L61.3813587,13.020163 L61.3813587,13.4579891 C61.3423094,13.8943004 61.4948324,14.3260403 61.799287,14.6410002 C62.1037416,14.9559601 62.5300612,15.1230357 62.9674457,15.0988043 C63.9525543,15.0988043 64.6082609,14.4967935 64.6082609,13.0748913 L64.6082609,11.8171739 C64.6632031,11.4160877 64.5353387,11.0115066 64.2598782,10.7148414 C63.9844176,10.4181762 63.5904115,10.2607138 63.1863587,10.2858152 C62.83928,10.2358969 62.4877574,10.3405681 62.2245197,10.5722173 C61.961282,10.8038665 61.8127671,11.1392283 61.8181522,11.489837 L61.8181522,11.6540217 L60.177337,11.6540217 L60.177337,11.489837 C60.1586884,10.7722338 60.4355559,10.07846 60.9431493,9.57086664 C61.4507426,9.06327328 62.1445164,8.78640578 62.8621196,8.80505435 C63.5714887,8.7780388 64.2411165,9.13254762 64.6175543,9.73440217 L64.6175543,8.15141304 L66.2459783,8.15141304 L66.2459783,13.1296196 C66.2459783,15.4271739 64.9325,16.5764674 62.9633152,16.5764674 C62.1140791,16.7008871 61.2543185,16.4326504 60.6264918,15.8474019 C59.9986652,15.2621534 59.6708088,14.4233152 59.7353804,13.5674457" id="Path_638" fill="#6E6F71"></path>
                            <path d="M67.4004348,13.2390761 L67.4004348,12.6917935 L69.04125,12.6917935 L69.04125,13.1296196 C69.04125,14.5515217 69.6979891,15.1535326 70.7367935,15.1535326 C71.1843533,15.1989562 71.6286188,15.0407394 71.9467171,14.722641 C72.2648155,14.4045427 72.4230323,13.9602772 72.3776087,13.5127174 C72.3776087,11.5982609 69.7516848,11.0509783 69.7516848,8.75342391 L69.7516848,8.26086957 L71.3925,8.26086957 L71.3925,8.64396739 C71.3925,10.4489674 74.0772826,10.6131522 74.0772826,13.5127174 C74.1193967,14.4058102 73.7674283,15.272388 73.114497,15.8831819 C72.4615657,16.4939757 71.5734668,16.7874366 70.685163,16.6859239 C69.7677399,16.74687 68.8706474,16.3971359 68.2365522,15.7313259 C67.602457,15.065516 67.296887,14.1524356 67.4025,13.2390761" id="Path_639" fill="#6E6F71"></path>
                            <path d="M85.125163,13.841087 L85.125163,16.5258696 L83.4296196,16.5258696 L83.4296196,13.9546739 C83.4296196,13.0253261 82.9917935,12.5327717 82.3350543,12.5327717 C81.9964433,12.5332704 81.6735278,12.6756053 81.4447198,12.9252141 C81.2159117,13.1748229 81.1021405,13.5088735 81.1310326,13.84625 L81.1310326,15.537663 L79.4354891,15.537663 L79.4354891,13.7822283 C79.4354891,12.9613043 78.997663,12.46875 78.2861957,12.46875 C77.6294565,12.46875 77.0821739,12.9613043 77.0821739,13.9453804 L77.0821739,16.4670109 L75.387663,16.4670109 L75.387663,12.7496196 C75.387663,9.03222826 78.0724457,8.2061413 80.256413,8.2061413 L82.7191848,8.2061413 L82.7191848,9.7375 L80.4216304,9.7375 C78.6166304,9.7375 77.1936957,10.2847826 76.9747826,11.6519565 C77.3284608,11.1966994 77.8749611,10.9333857 78.451413,10.9404891 C79.2668056,10.9629313 79.984252,11.485009 80.256413,12.2539674 C80.6899797,11.4219816 81.5615052,10.9115854 82.4992391,10.9404891 C83.23549,10.9668969 83.9297918,11.2898394 84.4243296,11.8359118 C84.9188674,12.3819842 85.1716295,13.1047968 85.125163,13.8400543" id="Path_640" fill="#6E6F71"></path>
                            <path d="M86.3291848,13.2390761 L86.3291848,11.5982609 C86.3291848,9.30070652 87.6973913,8.15141304 89.447663,8.15141304 C90.4721128,8.05923442 91.4409901,8.63158281 91.8546739,9.57331522 C92.2660997,8.65569236 93.2032467,8.08920794 94.2069565,8.15141304 C95.0000634,8.16759153 95.7507748,8.51264713 96.2794954,9.10403088 C96.808216,9.69541464 97.0673848,10.4799289 96.995,11.2698913 L96.995,16.5764674 L95.3541848,16.5764674 L95.3541848,11.2698913 C95.3541848,10.2847826 94.8069022,9.68380435 94.0407065,9.68380435 C93.2745109,9.68380435 92.7313587,10.2847826 92.7313587,11.2698913 L92.7313587,13.2390761 C92.7313587,15.5366304 91.3631522,16.6859239 89.5034239,16.6859239 C87.6436957,16.6859239 86.3302174,15.5366304 86.3302174,13.2390761 M91.0895109,13.1296196 L91.0895109,11.5982609 C91.0895109,10.2300543 90.4327717,9.62907609 89.5581522,9.62907609 C88.6835326,9.62907609 88.0267935,10.231087 88.0267935,11.5982609 L88.0267935,13.1296196 C88.0267935,14.5515217 88.6835326,15.1535326 89.5581522,15.1535326 C90.3790761,15.1535326 91.0895109,14.5515217 91.0895109,13.1296196" id="Path_641" fill="#6E6F71"></path>
                            <path d="M98.5284239,13.6727717 L98.5284239,13.2390761 L100.169239,13.2390761 L100.169239,13.5695109 C100.174315,14.0143075 100.368876,14.4358205 100.704081,14.7282373 C101.039285,15.0206541 101.483304,15.1562075 101.924674,15.1008696 C103.019239,15.1008696 103.680109,14.6630435 103.680109,14.0063043 C103.680109,13.294837 103.02337,13.0211957 102.312935,13.0211957 L101.437283,13.0211957 L101.437283,11.5445652 L102.312935,11.5445652 C103.024402,11.5445652 103.516957,11.3256522 103.516957,10.668913 C103.516957,10.0669022 102.914946,9.57434783 101.93087,9.57434783 C100.836304,9.57434783 100.175435,10.231087 100.175435,10.99625 L100.175435,11.215163 L98.5284239,11.215163 L98.5284239,10.9415217 C98.5284239,9.35543478 99.8966304,8.09668478 101.975272,8.09668478 C103.889728,8.09668478 105.257935,9.24597826 105.257935,10.6678804 C105.274673,11.4605416 104.721555,12.1515038 103.944457,12.3086957 C104.827714,12.4283161 105.456869,13.2269822 105.366359,14.1136957 C105.366359,15.5903261 103.998152,16.630163 101.919511,16.630163 C99.8408696,16.6848913 98.5273913,15.5355978 98.5273913,13.6758696" id="Path_642" fill="#6E6F71"></path>
                            <path d="M106.515652,13.5674457 L106.515652,13.020163 L108.156467,13.020163 L108.156467,13.5147826 C108.132236,13.9521671 108.299312,14.3784866 108.614272,14.6829412 C108.929231,14.9873959 109.360971,15.1399188 109.797283,15.1008696 C110.782391,15.1008696 111.38337,14.4988587 111.38337,13.1316848 L111.38337,11.5435326 C111.38337,10.1753261 110.72663,9.57434783 109.797283,9.57434783 C109.363263,9.54455826 108.936957,9.70015037 108.624164,10.0025102 C108.311371,10.30487 108.141413,10.7256542 108.156467,11.1604348 L108.156467,11.3246196 L106.515652,11.3246196 L106.515652,11.1604348 C106.487903,10.2959813 106.830684,9.46083077 107.45774,8.86513742 C108.084796,8.26944407 108.936421,7.96992732 109.798315,8.04195652 C110.715738,7.98101048 111.612831,8.33074456 112.246926,8.99655452 C112.881021,9.66236447 113.186591,10.5754449 113.080978,11.4888043 L113.080978,13.1296196 C113.080978,15.4271739 111.7675,16.5764674 109.798315,16.5764674 C108.943665,16.7027139 108.077633,16.4370583 107.440779,15.8532926 C106.803926,15.2695269 106.464084,14.4298292 106.515652,13.5674457" id="Path_643" fill="#6E6F71"></path>
                            <path d="M114.285,11.9813587 L114.285,10.9415217 C114.2413,10.2122864 114.496655,9.49673175 114.99216,8.95991837 C115.487665,8.42310498 116.180528,8.11139236 116.910924,8.09668478 C117.801346,8.08929089 118.613987,8.60279305 118.989565,9.41016304 C119.35259,8.61705863 120.141281,8.10521419 121.013478,8.09668478 C121.852007,8.12724011 122.597652,8.63881522 122.927935,9.41016304 C123.328074,8.57282159 124.189934,8.05570578 125.117065,8.09668478 C125.845357,8.10406223 126.537395,8.4156045 127.025759,8.95594244 C127.514122,9.49628038 127.754327,10.2161947 127.688261,10.9415217 L127.688261,13.1296196 L126.047446,13.1296196 L126.047446,10.99625 C126.047446,10.0669022 125.60962,9.57434783 124.95288,9.57434783 C124.617082,9.58325315 124.299287,9.72810947 124.0723,9.9757318 C123.845313,10.2233541 123.728586,10.5525218 123.748859,10.8878261 L123.748859,12.8570109 L122.108043,12.8570109 L122.108043,10.8847283 C122.148605,10.5540644 122.046404,10.221777 121.827028,9.97106182 C121.607652,9.72034666 121.291872,9.57494081 120.95875,9.57125 C120.628806,9.58396903 120.318654,9.73197589 120.101223,9.98046867 C119.883792,10.2289615 119.778265,10.5560155 119.809457,10.8847283 L119.809457,12.853913 L118.168641,12.853913 L118.168641,10.8847283 C118.168641,10.0638043 117.730815,9.57125 117.074076,9.57125 C116.472065,9.57125 115.924783,10.0638043 115.924783,11.0478804 L115.924783,11.8688043 C115.924783,14.0021739 116.85413,15.0420109 119.809457,15.0420109 L125.230652,15.0420109 L125.230652,16.5733696 L119.595707,16.5733696 C117.188696,16.5186413 114.28913,15.6977174 114.28913,11.9782609" id="Path_644" fill="#6E6F71"></path>
                            <path d="M138.847663,10.9415217 L138.847663,16.5176087 L137.15212,16.5176087 L137.15212,11.0447826 C137.15212,10.1154348 136.714293,9.62288043 136.057554,9.62288043 C135.718943,9.62337907 135.396028,9.76571402 135.16722,10.0153228 C134.938412,10.2649316 134.82464,10.5989822 134.853533,10.9363587 L134.853533,14.3832065 L133.157989,14.3832065 L133.157989,10.9415217 C133.157989,10.1205978 132.720163,9.62804348 132.008696,9.62804348 C131.351957,9.62804348 130.804674,10.1205978 130.804674,11.1046739 L130.804674,16.5207065 L129.110163,16.5207065 L129.110163,10.9446196 C129.080358,10.2003789 129.355337,9.47616746 129.871586,8.93926045 C130.387835,8.40235343 131.100707,8.09918604 131.845543,8.09978261 C132.754398,8.0751325 133.591704,8.59064749 133.978913,9.41326087 C134.392039,8.56209651 135.277279,8.04366878 136.221739,8.09978261 C136.955501,8.10436554 137.654509,8.41302409 138.152207,8.9522131 C138.649905,9.49140211 138.901724,10.2128372 138.847663,10.9446196" id="Path_645" fill="#6E6F71"></path>
                            <path d="M140.544239,13.2390761 L140.544239,8.26086957 L142.185054,8.26086957 L142.185054,13.1296196 C142.185054,14.5515217 142.841793,15.1535326 143.82587,15.1535326 C144.865707,15.1535326 145.521413,14.60625 145.521413,13.6769022 C145.521413,12.582337 144.317391,12.3634239 144.317391,11.0509783 L145.958207,11.0509783 C146.012935,11.7624457 147.216957,12.0908152 147.216957,13.8390217 C147.216957,15.479837 145.795054,16.6838587 143.824837,16.6838587 C141.85462,16.6838587 140.542174,15.5345652 140.542174,13.2370109" id="Path_646" fill="#6E6F71"></path>
                            <path d="M157.886902,13.8369565 C157.886902,15.4777717 156.573424,16.6817935 154.549511,16.6817935 C152.525598,16.6817935 151.21212,15.4819022 151.21212,13.8369565 C151.222186,12.3410969 152.402487,11.1154 153.896902,11.048913 L153.896902,10.4469022 C153.896902,9.57125 152.857065,9.57125 152.857065,8.25880435 L154.49788,8.25880435 C154.49788,9.025 155.537717,9.13445652 155.537717,10.1732609 L155.537717,11.1026087 C156.894406,11.2999083 157.898089,12.4670527 157.890049,13.8379891 M156.194457,13.7832609 C156.194457,13.3623142 156.015764,12.9611545 155.702867,12.6795669 C155.38997,12.3979794 154.972261,12.2624281 154.553641,12.3066304 C154.001244,12.267965 153.473433,12.5407469 153.185464,13.0137288 C152.897494,13.4867107 152.897494,14.0808436 153.185464,14.5538256 C153.473433,15.0268075 154.001244,15.2995893 154.553641,15.2609239 C154.972261,15.3051262 155.38997,15.169575 155.702867,14.8879874 C156.015764,14.6063998 156.194457,14.2052401 156.194457,13.7842935" id="Path_647" fill="#6E6F71"></path>
                            <path d="M158.925707,13.2390761 L158.925707,12.6917935 L160.566522,12.6917935 L160.566522,13.1296196 C160.566522,14.5515217 161.223261,15.1535326 162.262065,15.1535326 C162.709625,15.1989562 163.153891,15.0407394 163.471989,14.722641 C163.790087,14.4045427 163.948304,13.9602772 163.90288,13.5127174 C163.90288,11.5982609 161.276957,11.0509783 161.276957,8.75342391 L161.276957,8.26086957 L162.917772,8.26086957 L162.917772,8.64396739 C162.917772,10.4489674 165.602554,10.6131522 165.602554,13.5127174 C165.644668,14.4058102 165.2927,15.272388 164.639769,15.8831819 C163.986837,16.4939757 163.098739,16.7874366 162.210435,16.6859239 C161.293012,16.74687 160.395919,16.3971359 159.761824,15.7313259 C159.127729,15.065516 158.822159,14.1524356 158.927772,13.2390761" id="Path_648" fill="#6E6F71"></path>
                            <path d="M166.858207,13.8369565 L166.858207,10.6678804 C166.908992,9.96855915 167.239298,9.31916489 167.774571,8.86627156 C168.309844,8.41337822 169.004966,8.19515962 169.703043,8.26086957 L172.930978,8.26086957 L172.930978,9.68277174 L169.921957,9.68277174 C169.155761,9.68277174 168.499022,10.0111413 168.499022,10.8320652 L168.499022,11.9266304 C168.94592,11.2617253 169.72738,10.9028917 170.522935,10.9972826 C171.295971,10.9683927 172.0475,11.2552117 172.604726,11.7917924 C173.161952,12.3283731 173.476926,13.0685438 173.477228,13.8421196 C173.477228,15.4829348 172.110054,16.6869565 170.139837,16.6869565 C168.16962,16.6869565 166.858207,15.4819022 166.858207,13.8369565 M171.726957,13.7822283 C171.718821,13.3784983 171.543497,12.9962513 171.242821,12.7266999 C170.942145,12.4571485 170.543086,12.3244706 170.14087,12.3603261 C169.353221,12.4311443 168.766119,13.1177402 168.818467,13.9068318 C168.870815,14.6959234 169.543469,15.2989477 170.333571,15.2650987 C171.123672,15.2312497 171.742288,14.5729057 171.726957,13.7822283" id="Path_649" fill="#6E6F71"></path>
                            <path d="M174.46337,13.6221739 L174.46337,13.2938043 L176.104185,13.2938043 L176.104185,13.5674457 C176.084162,14.0290003 176.266901,14.4762449 176.604409,14.7917158 C176.941918,15.1071867 177.400465,15.2593569 177.85962,15.2082609 C178.954185,15.2082609 179.615054,14.7704348 179.615054,13.8400543 C179.615054,12.9644022 178.958315,12.5813043 177.85962,12.5813043 L177.148152,12.5813043 L177.148152,11.1036413 L178.023804,11.1036413 C179.008913,11.1036413 179.445707,10.7205435 179.445707,9.8448913 L179.445707,8.31559783 L181.086522,8.31559783 L181.086522,10.0710326 C181.085763,10.9286952 180.498264,11.6744822 179.66462,11.8760326 C180.700271,12.1007698 181.404787,13.0637709 181.305435,14.1188587 C181.305435,15.6502174 179.937228,16.8036413 177.858587,16.8036413 C175.779946,16.6941848 174.466467,15.5448913 174.466467,13.6304348" id="Path_650" fill="#6E6F71"></path>
                            <path d="M182.669511,11.5435326 C182.609181,10.3513411 183.210887,9.22296264 184.23447,8.60876643 C185.258054,7.99457022 186.536838,7.99457022 187.560421,8.60876643 C188.584005,9.22296264 189.185711,10.3513411 189.12538,11.5435326 L189.12538,16.5764674 L187.484565,16.5764674 L187.484565,11.5982609 C187.484565,10.2847826 186.827826,9.68380435 185.898478,9.68380435 C185.022826,9.68380435 184.36712,10.2858152 184.36712,11.5982609 L184.36712,16.5764674 L182.726304,16.5764674 L182.726304,11.5435326 L182.669511,11.5435326 Z" id="Path_651" fill="#6E6F71"></path>
                        </g>
                    </g>
                </g>
            </g>
        </g>
    </g>
</svg>