<svg xmlns="http://www.w3.org/2000/svg" xmlns:xlink="http://www.w3.org/1999/xlink" width="24" height="24" viewBox="0 0 24 24">
    <defs>
        <path id="ag9zyiuq6a" d="M12.458 12.458c0 .186.019.367.055.543H8.07c.035-.176.054-.357.054-.543 0-.283-.044-.556-.124-.813h4.582c-.081.257-.125.53-.125.813zM12.133 0c.599 0 1.084.485 1.084 1.083v1.084h2.816c.8 0 1.536.44 1.912 1.147l1.428 2.676c.083.157.127.332.127.51v4.333c0 1.025-.711 1.884-1.667 2.11.027-.158.042-.32.042-.485 0-.32-.055-.626-.157-.911.224-.119.385-.341.42-.603l.008-.11V6.567L16.75 3.951c-.123-.232-.35-.387-.606-.423l-.11-.007h-4.171l-.002-2.167H3.25c-.995 0-1.81.766-1.89 1.74l-.006.156v7.583c0 .412.306.752.702.805l.11.008h.667c-.081.256-.125.529-.125.812 0 .186.019.367.055.543L2.167 13C.97 13 0 12.03 0 10.833V3.25C0 1.455 1.455 0 3.25 0h8.883z"/>
    </defs>
    <g fill="none" fill-rule="evenodd" opacity=".6">
        <g>
            <g>
                <g>
                    <path d="M0 0H24V24H0z" transform="translate(-16 -610) translate(0 602) translate(16 8)"/>
                    <g>
                        <path d="M0 0H24V24H0z" transform="translate(-16 -610) translate(0 602) translate(16 8)"/>
                        <g transform="translate(-16 -610) translate(0 602) translate(16 8) translate(2.3 5)">
                            <g>
                                <path fill="#FFF" fill-rule="nonzero" d="M18.603 6.283c.496 0 .897.34.897.759 0 .384-.337.7-.775.751l-.122.007H.897C.4 7.8 0 7.46 0 7.042c0-.384.337-.702.775-.752l.122-.007h17.706z"/>
                                <g>
                                    <use fill="#FFF" fill-rule="nonzero" xlink:href="#ag9zyiuq6a"/>
                                </g>
                                <path fill="#FFF" fill-rule="nonzero" d="M15.353 3.25c.496 0 .897.315.897.704 0 .357-.337.651-.775.698l-.122.006h-5.79c-.495 0-.896-.315-.896-.704 0-.356.337-.65.775-.698l.121-.006h5.79z" transform="rotate(90 12.458 3.954)"/>
                                <circle cx="14.625" cy="12.458" r="2.058" stroke="#FFF" stroke-width="1.3"/>
                            </g>
                            <circle cx="4.875" cy="12.458" r="2.058" stroke="#FFF" stroke-width="1.3"/>
                        </g>
                    </g>
                </g>
            </g>
        </g>
    </g>
</svg>
