<svg xmlns="http://www.w3.org/2000/svg" width="24" height="24" viewBox="0 0 24 24">
    <g fill="none" fill-rule="evenodd" opacity=".6">
        <g fill="#FFF" fill-rule="nonzero">
            <g>
                <g>
                    <g transform="translate(-16 -330) translate(0 322) translate(16 8) translate(3 2.25)">
                        <g>
                            <path d="M15.84 16.56H2.16C.969 16.56 0 15.591 0 14.4v-9c0-1.191.969-2.16 2.16-2.16h13.68c1.191 0 2.16.969 2.16 2.16v9c0 1.191-.969 2.16-2.16 2.16zM2.16 4.68c-.397 0-.72.323-.72.72v9c0 .397.323.72.72.72h13.68c.397 0 .72-.323.72-.72v-9c0-.397-.323-.72-.72-.72H2.16z"/>
                            <path d="M12.24 4.68H5.76V2.447C5.76 1.097 6.858 0 8.207 0h1.586c1.35 0 2.447 1.098 2.447 2.447V4.68zM7.2 3.24h3.6v-.793c0-.556-.451-1.007-1.007-1.007H8.207c-.556 0-1.007.451-1.007 1.007v.793z"/>
                        </g>
                        <path d="M7.332 8.358c-.234.328-.372.729-.372 1.162 0 .095.007.188.02.28H.72V8.36zm9.948.002V9.8h-6.34c.013-.092.02-.185.02-.28 0-.433-.138-.834-.372-1.162l6.692.002z"/>
                        <rect width="2" height="4" x="7.96" y="8.52" rx="1"/>
                    </g>
                </g>
            </g>
        </g>
    </g>
</svg>
