<svg xmlns="http://www.w3.org/2000/svg" width="27" height="18.007" viewBox="0 0 27 18.007" style="margin-top:-3px;"><defs></defs><g transform="translate(0 -56.317)"><rect style="fill:white" width="27" height="18" rx="2" transform="translate(0 56.324)"/><path style="fill:red;" d="M27,95.725H14.9v-7.61H12.1v7.61H0v2.793H12.1v7.6H14.9v-7.6H27Z" transform="translate(0 -31.798)"/><path style="fill:red;" d="M83.174,124.814l-1.365.139c.047-.452.093-.9.139-1.365a4.955,4.955,0,0,1-1.272,0c.046.461.093.913.139,1.365l-1.365-.139a4.954,4.954,0,0,1,0,1.272l1.365-.139c-.047.452-.093.9-.139,1.365a4.954,4.954,0,0,1,1.272,0c-.046-.461-.093-.913-.139-1.365l1.365.139A4.96,4.96,0,0,1,83.174,124.814Z" transform="translate(-75.26 -65.247)"/><path style="fill:red;" d="M365.657,124.814l-1.365.139c.047-.452.093-.9.139-1.365a4.955,4.955,0,0,1-1.272,0c.046.461.093.913.139,1.365l-1.365-.139a4.954,4.954,0,0,1,0,1.272l1.365-.139c-.047.452-.093.9-.139,1.365a4.954,4.954,0,0,1,1.272,0c-.046-.461-.093-.913-.139-1.365l1.365.139A4.957,4.957,0,0,1,365.657,124.814Z" transform="translate(-342.848 -65.247)"/><path style="fill:red;" d="M83.174,319.02l-1.365.139c.047-.452.093-.9.139-1.365a4.955,4.955,0,0,1-1.272,0c.046.461.093.913.139,1.365l-1.365-.139a4.954,4.954,0,0,1,0,1.272l1.365-.139c-.047.452-.093.9-.139,1.365a4.958,4.958,0,0,1,1.272,0c-.046-.461-.093-.913-.139-1.365l1.365.139A4.96,4.96,0,0,1,83.174,319.02Z" transform="translate(-75.26 -249.211)"/><path style="fill:red;" d="M365.657,319.02l-1.365.139c.047-.452.093-.9.139-1.365a4.955,4.955,0,0,1-1.272,0c.046.461.093.913.139,1.365l-1.365-.139a4.954,4.954,0,0,1,0,1.272l1.365-.139c-.047.452-.093.9-.139,1.365a4.958,4.958,0,0,1,1.272,0c-.046-.461-.093-.913-.139-1.365l1.365.139A4.957,4.957,0,0,1,365.657,319.02Z" transform="translate(-342.848 -249.211)"/></g></svg>