<svg xmlns="http://www.w3.org/2000/svg" width="93" height="24" viewBox="0 0 93 24">
    <g fill="#FFF" fill-rule="evenodd">
        <path d="M11.245 0v24C4.968 23.604 0 18.383 0 12S4.968.396 11.245 0zm1.534 24V12.788h11.218C23.608 18.809 18.795 23.62 12.78 24zm0-24C18.81.38 23.63 5.215 24 11.253H12.779V0zM35.6 7c3.375 0 5.582 1.982 5.582 5.012 0 3.03-2.191 4.988-5.582 4.988-3.39 0-5.6-1.968-5.6-4.988C30 8.992 32.224 7 35.6 7zm51.812 0C90.787 7 93 8.985 93 12.012 93 15.038 90.811 17 87.412 17c-3.389 0-5.6-1.968-5.6-4.988 0-3.02 2.225-5.012 5.6-5.012zm-39.705.132c2.67 0 4.227 1.57 4.227 3.837 0 2.375-1.556 3.935-4.222 3.935h-2.157v1.968h-3.229v-9.74h5.38zm14.29 0v2.601h-3.19v7.133h-3.243V9.733h-3.148V7.132h9.58zm4.353 0v9.734h-3.242V7.132h3.242zm6.278 0l1.675 3.583h.067l1.754-3.583h4.55v9.734H77.51l.014-6.28h-.054l-1.977 4.261h-2.57l-1.93-4.262h-.04v6.281h-3.027V7.132h4.702zM35.574 9.664c-1.353 0-2.175.866-2.175 2.346s.82 2.322 2.187 2.322c1.354 0 2.224-.827 2.224-2.306 0-1.48-.884-2.362-2.236-2.362zm51.813 0c-1.353 0-2.175.866-2.175 2.346s.82 2.322 2.186 2.322c1.355 0 2.225-.827 2.225-2.306 0-1.48-.884-2.362-2.236-2.362zm-40.094.07h-1.742v2.62h1.742c.367.02.726-.114.989-.37.263-.255.406-.608.395-.974 0-.761-.63-1.277-1.384-1.277z"/>
    </g>
</svg>
