<svg xmlns="http://www.w3.org/2000/svg" width="13" height="12" viewBox="0 0 13 12">
  <path fill="#888EA8" fill-rule="evenodd"
        d="M6.656.003c-1.751 0-3.323.78-4.4 2.018-.055.182-.199.43.076.67.275.242.853-.118.853-.118a4.774 4.774 0 0 1 3.471-1.5c2.669 0 4.833 2.207 4.833 4.928 0 2.722-2.164 4.928-4.833 4.928-2.527 0-4.601-1.979-4.814-4.5h.884a.149.149 0 0 0 .148-.15S1.658 3.95 1.548 3.837c-.111-.112-.222 0-.222 0L0 6.28c0 .083.066.15.147.15h.64C1.004 9.544 3.549 12 6.657 12c3.25 0 5.883-2.685 5.883-5.998S9.905.003 6.656.003z"/>
</svg>
