<svg xmlns="http://www.w3.org/2000/svg" width="12" height="13" viewBox="0 0 12 13">
  <path fill="#515366" fill-rule="evenodd"
        d="M7.654.5c1.704 0 3.153.594 4.346 1.782l-.438 1.01c-1.115-1.197-2.418-1.796-3.908-1.796-1.397 0-2.583.485-3.557 1.455A4.818 4.818 0 0 0 2.847 5h7.992l-.417.997H2.658a5.695 5.695 0 0 0 0 1.004h7.34l-.437.996L2.849 8a4.82 4.82 0 0 0 1.248 2.043c.974.97 2.16 1.454 3.557 1.454 1.524 0 2.827-.608 3.908-1.825v1.476C10.51 12.05 9.208 12.5 7.654 12.5c-1.704 0-3.134-.576-4.29-1.727-.799-.795-1.321-1.72-1.569-2.774H0l.438-.997h1.208a7.13 7.13 0 0 1 0-1.004H0l.438-.996L1.795 5c.248-1.055.77-1.98 1.568-2.774C4.52 1.076 5.95.5 7.654.5z"/>
</svg>
