<svg xmlns="http://www.w3.org/2000/svg" width="24" height="24" viewBox="0 0 24 24">
    <g fill="none" fill-rule="evenodd" opacity=".6">
        <g fill="#FFF">
            <g>
                <g>
                    <g>
                        <path fill-rule="nonzero" d="M13.511 14.874v.553c0 .192-.143.336-.334.336h-.837c-.192 0-.335-.144-.335-.336v-.553c0-.192.143-.336.335-.336h.837c.19.024.334.168.334.336zm1.052-5.14c-.406-.36-.956-.529-1.65-.529-.645 0-1.171.144-1.577.456-.359.265-.55.673-.574 1.178 0 .12.095.216.215.216l.956.024c.144 0 .287-.096.335-.24.024-.12.096-.217.167-.289.144-.12.287-.192.502-.192.24 0 .43.072.574.216.144.144.192.337.192.6 0 .241-.048.457-.168.626-.12.168-.263.336-.454.456-.383.264-.646.504-.79.72-.119.169-.19.385-.214.673-.024.144.095.24.239.24h1.028c.12 0 .215-.096.239-.216.024-.144.048-.264.096-.384.071-.144.19-.288.382-.408.335-.169.622-.433.837-.721.215-.312.335-.649.335-1.01-.072-.576-.263-1.056-.67-1.416zm6.599 2.738c0 1.538-.55 3.027-1.554 4.276.191.337.43.625.741.817.31.216.478.6.383.96-.072.385-.383.65-.766.698-.263.048-.525.048-.788.048-.79 0-1.507-.169-2.176-.48-1.243.624-2.63.96-4.065.96-4.518 0-8.2-3.291-8.2-7.303 0-4.012 3.706-7.279 8.224-7.279 4.519 0 8.2 3.267 8.2 7.303zm-1.41 0c0-3.243-3.037-5.885-6.79-5.885-3.754 0-6.79 2.642-6.79 5.885s3.036 5.886 6.79 5.886c1.338 0 2.605-.337 3.729-.961l.359-.216.358.216c.383.216.79.36 1.244.432-.216-.288-.383-.624-.503-.96l-.143-.41.287-.311c.956-1.057 1.458-2.33 1.458-3.676z" transform="translate(-16 -370) translate(0 362) translate(16 8) translate(1.5)"/>
                        <path d="M7.002 1.053c2.508 0 4.722 1.278 5.955 3.2-.277-.028-.557-.042-.841-.042-.256 0-.509.011-.758.034-1.06-1.138-2.627-1.86-4.376-1.86-3.181 0-5.784 2.423-5.784 5.378 0 1.222.434 2.378 1.26 3.333l.248.29-.124.377c-.103.31-.248.6-.434.866.393-.066.744-.2 1.054-.4l.31-.2.33.2.037.023-.002.116c0 .48.042.95.122 1.407-.16-.07-.315-.148-.467-.235-.537.267-1.157.423-1.838.423-.227 0-.455 0-.682-.045-.33-.044-.599-.31-.66-.644-.083-.334.061-.69.33-.889.268-.178.475-.444.64-.756C.454 10.496 0 9.141 0 7.741c0-3.689 3.14-6.688 7.002-6.688z" transform="translate(-16 -370) translate(0 362) translate(16 8) translate(1.5)"/>
                    </g>
                </g>
            </g>
        </g>
    </g>
</svg>
