<svg xmlns="http://www.w3.org/2000/svg" width="48" height="48" viewBox="0 0 48 48">
  <g fill="none" fill-rule="evenodd">
    <rect width="48" height="48" fill="#D0D8FF" opacity=".5" rx="1.714"/>
    <path fill="#4562FF" fill-rule="nonzero"
          d="M35.4 30.917l-3.697-3.697c-.736-.733-1.955-.711-2.717.051l-1.863 1.862-.367-.204c-1.176-.652-2.786-1.545-4.48-3.24-1.699-1.699-2.593-3.311-3.246-4.488-.07-.125-.135-.245-.2-.359l1.25-1.248.614-.615c.763-.764.784-1.983.05-2.718l-3.697-3.698c-.735-.734-1.955-.712-2.718.052l-1.042 1.047.029.029c-.35.445-.641.96-.859 1.514a6.278 6.278 0 0 0-.381 1.536c-.489 4.047 1.36 7.745 6.379 12.763 6.937 6.937 12.527 6.413 12.768 6.387a6.246 6.246 0 0 0 1.54-.387 6.004 6.004 0 0 0 1.51-.855l.022.02 1.056-1.033c.761-.763.783-1.982.049-2.72z"/>
  </g>
</svg>
