<svg xmlns="http://www.w3.org/2000/svg" width="24" height="24" viewBox="0 0 24 24">
    <path fill="#343434" fill-rule="evenodd" d="M17.469 5c.468 0 .85.368.874.831v3.325c0 .469-.368.851-.83.874l-.044.001h-3.26c-.483 0-.875-.392-.875-.875 0-.468.369-.85.832-.874H15.734C14.721 7.337 13.352 6.75 12 6.75c-2.907 0-5.25 2.343-5.25 5.25s2.343 5.25 5.25 5.25c2.558 0 4.706-1.838 5.164-4.27.048-.257.354-.747.961-.747s.84.564.8.831c-.096.627-.275 1.227-.525 1.787-.37.825-.894 1.566-1.537 2.185C15.601 18.253 13.883 19 12 19c-3.874 0-7-3.126-7-7s3.126-7 7-7c1.66 0 3.307.644 4.594 1.708v-.833c0-.469.368-.851.831-.874L17.47 5z"/>
</svg>
