<svg xmlns="http://www.w3.org/2000/svg" width="24" height="24" viewBox="0 0 24 24">
    <g fill="none" fill-rule="evenodd">
        <g>
            <g>
                <g>
                    <g>
                        <g>
                            <g>
                                <g>
                                    <g>
                                        <path stroke="#343434" stroke-dasharray="18 314" stroke-linecap="round" stroke-width="1.5" d="M14.962 9.732c.404-3.845-2.385-7.29-6.23-7.694-3.845-.404-7.29 2.385-7.694 6.23-.404 3.845 2.385 7.29 6.23 7.694 3.845.404 7.29-2.385 7.694-6.23z" transform="translate(-1170 -429) translate(686 315) translate(0 14) translate(24 63) translate(0 25) translate(460 12) matrix(-1 0 0 1 21 3) translate(1)"/>
                                        <path fill="#343434" fill-rule="nonzero" d="M5.687.85c.327 0 .597.24.643.554l.007.096v4c0 .359-.29.65-.65.65-.326 0-.596-.24-.642-.554L5.037 5.5V2.15h-3.35c-.326 0-.596-.24-.642-.554L1.037 1.5c0-.326.241-.597.554-.643L1.687.85h4z" transform="translate(-1170 -429) translate(686 315) translate(0 14) translate(24 63) translate(0 25) translate(460 12) matrix(-1 0 0 1 21 3) translate(1) matrix(0 1 1 0 .187 -.187)"/>
                                    </g>
                                    <g stroke="#343434" stroke-dasharray="25 314" stroke-linecap="round" stroke-width="1.6">
                                        <path d="M9 16c3.866 0 7-3.134 7-7s-3.134-7-7-7-7 3.134-7 7 3.134 7 7 7z" transform="translate(-1170 -429) translate(686 315) translate(0 14) translate(24 63) translate(0 25) translate(460 12) matrix(-1 0 0 1 21 3) rotate(180 9 9) rotate(-109 9 9)"/>
                                    </g>
                                </g>
                            </g>
                        </g>
                    </g>
                </g>
            </g>
        </g>
    </g>
</svg>
