<svg xmlns="http://www.w3.org/2000/svg" width="22" height="22" viewBox="0 0 24 24" class="icon-close">
    <defs>
        <filter id="0gk18dfdca" width="100.3%" height="105.7%" x="-.1%" y="-2.8%" filterUnits="objectBoundingBox">
            <feOffset dy="1" in="SourceAlpha" result="shadowOffsetOuter1"/>
            <feColorMatrix in="shadowOffsetOuter1" result="shadowMatrixOuter1" values="0 0 0 0 0.894117647 0 0 0 0 0.901960784 0 0 0 0 0.929411765 0 0 0 1 0"/>
            <feMerge>
                <feMergeNode in="shadowMatrixOuter1"/>
                <feMergeNode in="SourceGraphic"/>
            </feMerge>
        </filter>
    </defs>
    <g fill="#343434" fill-rule="evenodd"  transform="translate(-39 -32)">
        <path d="M59.485 35.515c.39.39.39 1.023 0 1.414l-7.071 7.07 7.071 7.072c.39.39.39 1.024 0 1.414-.39.39-1.023.39-1.414 0L51 45.414l-7.07 7.071c-.39.39-1.024.39-1.414 0-.39-.39-.39-1.023 0-1.414L49.585 44l-7.07-7.07c-.39-.39-.39-1.024 0-1.414.39-.39 1.023-.39 1.414 0l7.07 7.07 7.072-7.07c.39-.39 1.024-.39 1.414 0z"/>
    </g>
</svg>
