<svg xmlns="http://www.w3.org/2000/svg" width="14.839" height="15.283" viewBox="0 0 14.839 15.283">
  <g id="Group_115" data-name="Group 115" transform="translate(1332 -3064.217)">
    <path id="Subtraction_2" data-name="Subtraction 2" d="M10.858,13.442H2.585A2.588,2.588,0,0,1,0,10.858V2.585A2.588,2.588,0,0,1,2.585,0H7.924c.04.344.076.651.108.912L7.007,1.938a2,2,0,0,0,0,2.829L8.388,6.148a2,2,0,0,0,2.829,0L12.41,4.955c.35.032.716.062,1.033.088v5.815A2.588,2.588,0,0,1,10.858,13.442Z" transform="translate(-1332 3066.058)" fill="#343434"/>
    <rect id="Rectangle_10" data-name="Rectangle 10" width="4.908" height="1.483" rx="0.741" transform="translate(-1322.256 3064.575)" fill="#343434"/>
    <rect id="Rectangle_11" data-name="Rectangle 11" width="4.908" height="1.483" rx="0.741" transform="matrix(-0.017, 1, -1, -0.017, -1317.348, 3064.601)" fill="#343434"/>
    <rect id="Rectangle_12" data-name="Rectangle 12" width="8.258" height="1.6" rx="0.8" transform="translate(-1317.161 3065.348) rotate(135)" fill="#343434"/>
  </g>
</svg>