<svg xmlns="http://www.w3.org/2000/svg" width="24" height="24" viewBox="0 0 24 24">
    <g fill="none" fill-rule="evenodd">
        <g>
            <g>
                <g>
                    <g>
                        <path d="M0 2H24V26H0z" transform="translate(-16 -416) translate(0 408) translate(16 7) matrix(1 0 0 -1 0 26)"/>
                        <g>
                            <path d="M0 0H24V24H0z" transform="translate(-16 -416) translate(0 408) translate(16 7) matrix(1 0 0 -1 0 26) matrix(1 0 0 -1 0 26)"/>
                            <g transform="translate(-16 -416) translate(0 408) translate(16 7) matrix(1 0 0 -1 0 26) matrix(1 0 0 -1 0 26) matrix(-1 0 0 1 19 3.5)">
                                <path class="fill-change" fill="#343434" fill-rule="nonzero" d="M11 0c1.657 0 3 1.343 3 3v12c0 1.657-1.343 3-3 3H7.54c.165-.43.289-.882.366-1.35h3.203c.801 0 1.46-.607 1.534-1.383l.007-.147V2.88c0-.795-.611-1.449-1.393-1.523l-.148-.007H2.891c-.801 0-1.46.607-1.534 1.383l-.007.147v5.629C1.236 8.503 1.119 8.5 1 8.5c-.34 0-.674.024-1 .07V3c0-1.657 1.343-3 3-3h8z"/>
                                <circle class="stroke-change" cx="3.5" cy="13" r="2.8" stroke="#343434" stroke-width="1.4"/>
                                <path class="fill-change" fill="#343434" fill-rule="nonzero" d="M3.5 17.129c.748 0 1.442-.228 2.01-.617L6 21.25c-1.106-1.153-1.94-1.481-2.5-1.481s-1.394.328-2.5 1.481l.467-4.753c.573.398 1.275.632 2.033.632zm1.074 0H2.406l-.187 1.942.038-.023c.445-.232.855-.35 1.243-.35.333 0 .681.087 1.054.258l.217.108-.197-1.935zM10.172 5.25c.457 0 .828.336.828.75 0 .38-.311.693-.715.743l-.113.007H3.828C3.37 6.75 3 6.414 3 6c0-.38.311-.693.715-.743l.113-.007h6.344zM10.172 8.25c.457 0 .828.336.828.75 0 .38-.311.693-.715.743l-.113.007H7.828C7.37 9.75 7 9.414 7 9c0-.38.311-.693.715-.743l.113-.007h2.344z"/>
                            </g>
                        </g>
                    </g>
                </g>
            </g>
        </g>
    </g>
</svg>
