<svg xmlns="http://www.w3.org/2000/svg" width="9" height="13" viewBox="0 0 9 13">
  <g fill="none" fill-rule="evenodd">
    <path fill-rule="nonzero" d="M-2 0h13v13H-2z"/>
    <path fill="#515366"
          d="M8.563 8.94c0 .758-.292 1.401-.875 1.929-.582.527-1.437.82-2.563.88V13h-.74v-1.237c-.721-.04-1.4-.18-2.038-.421-.637-.242-1.138-.55-1.503-.924l.43-.843c.345.335.797.616 1.355.843.558.226 1.143.36 1.756.399V6.929a11.49 11.49 0 0 1-1.704-.54 2.888 2.888 0 0 1-1.134-.843c-.3-.37-.451-.86-.451-1.47 0-.76.276-1.398.83-1.915.552-.517 1.372-.82 2.459-.91V0h.74v1.237c.563.02 1.109.11 1.637.274.529.162.986.377 1.37.643l-.37.872a5.7 5.7 0 0 0-1.288-.606 5.072 5.072 0 0 0-1.349-.252v3.918c.731.177 1.329.357 1.793.54.464.182.854.46 1.17.835.316.374.475.867.475 1.478zM2.176 4.045c0 .512.19.902.57 1.168.38.266.926.493 1.638.68V2.198c-.731.06-1.282.259-1.652.599a1.63 1.63 0 0 0-.556 1.249zm2.948 6.77c.78-.058 1.368-.25 1.763-.576.395-.325.593-.739.593-1.242 0-.532-.202-.93-.607-1.197-.405-.266-.988-.493-1.749-.68v3.696z"/>
  </g>
</svg>
