<svg width="43px" height="30px" viewBox="0 0 43 30" version="1.1" xmlns="http://www.w3.org/2000/svg" xmlns:xlink="http://www.w3.org/1999/xlink">
    <g stroke="none" stroke-width="1" fill="none" fill-rule="evenodd">
        <g transform="translate(-938.000000, -644.000000)" fill="#343434">
            <g id="Group-13" transform="translate(480.000000, 518.000000)">
                <g id="Group-11" transform="translate(0.000000, 48.000000)">
                    <g id="Group-10" transform="translate(413.000000, 78.000000)">
                        <g id="Group-9" transform="translate(45.000000, 0.000000)">
                            <path d="M35.2380952,1.49213975e-13 C37.8680226,1.49213975e-13 40,2.13197738 40,4.76190476 L40,11.4285714 L37.904,11.428 L37.9047619,4.76190476 C37.9047619,3.34369207 36.7976544,2.18405819 35.4005411,2.1001048 L35.2380952,2.0952381 L4.76190476,2.0952381 C3.34369207,2.0952381 2.18405819,3.20234558 2.1001048,4.59945886 L2.0952381,4.76190476 L2.0952381,21.9047619 C2.0952381,23.3229746 3.20234558,24.4826085 4.59945886,24.5665619 L4.76190476,24.5714286 L24.761,24.571 L24.7619048,26.6666667 L4.76190476,26.6666667 C2.13197738,26.6666667 0,24.5346893 0,21.9047619 L0,4.76190476 C0,2.13197738 2.13197738,1.49213975e-13 4.76190476,1.49213975e-13 L35.2380952,1.49213975e-13 Z M15.6666667,17 C16.27155,17 16.7619048,17.4903548 16.7619048,18.0952381 C16.7619048,18.7001214 16.27155,19.1904762 15.6666667,19.1904762 L5.85714286,19.1904762 C5.25225956,19.1904762 4.76190476,18.7001214 4.76190476,18.0952381 C4.76190476,17.4903548 5.25225956,17 5.85714286,17 L15.6666667,17 Z M20.6666667,12 C21.27155,12 21.7619048,12.4903548 21.7619048,13.0952381 C21.7619048,13.7001214 21.27155,14.1904762 20.6666667,14.1904762 L5.85714286,14.1904762 C5.25225956,14.1904762 4.76190476,13.7001214 4.76190476,13.0952381 C4.76190476,12.4903548 5.25225956,12 5.85714286,12 L20.6666667,12 Z M32.6666667,7 C33.27155,7 33.7619048,7.4903548 33.7619048,8.0952381 C33.7619048,8.70012139 33.27155,9.19047619 32.6666667,9.19047619 L5.85714286,9.19047619 C5.25225956,9.19047619 4.76190476,8.70012139 4.76190476,8.0952381 C4.76190476,7.4903548 5.25225956,7 5.85714286,7 L32.6666667,7 Z" id="Combined-Shape" fill-rule="nonzero"></path>
                            <g id="Icon/upload" transform="translate(29.380952, 14.428571)">
                                <g id="Group-6" transform="translate(0.000000, 0.750000)">
                                    <path d="M5.68921462,1.24827706 C6.07064973,1.62971218 6.07064973,2.24814069 5.68921462,2.6295758 L2.256,6.061 L12.0362823,6.06188182 C12.5685289,6.06188182 13,6.49335292 13,7.02559948 C13,7.55784605 12.5685289,7.98931715 12.0362823,7.98931715 L2.358,7.989 L5.7663913,11.3980184 C6.14274646,11.7743736 6.14274646,12.3845659 5.7663913,12.760921 C5.39003615,13.1372762 4.77984387,13.1372762 4.40348872,12.760921 L-0.679669487,7.67776281 C-0.896605101,7.4608272 -0.988496432,7.16619903 -0.955343481,6.88344414 C-0.948013493,6.64479045 -0.85286027,6.40905321 -0.670997457,6.22719039 L4.30791588,1.24827706 C4.68935099,0.866841947 5.3077795,0.866841947 5.68921462,1.24827706 Z" id="Combined-Shape" transform="translate(6.000000, 7.000000) scale(-1, 1) rotate(90.000000) translate(-6.000000, -7.000000) "></path>
                                </g>
                            </g>
                        </g>
                    </g>
                </g>
            </g>
        </g>
    </g>
</svg>