<svg xmlns="http://www.w3.org/2000/svg" width="12" height="14" viewBox="0 0 12 14">
  <path fill="#515366" fill-rule="evenodd"
        d="M4.266.922L5.264 0v1.994c.253-.031.512-.047.776-.047.248 0 .493.016.736.047V.922L7.773 0v2.2c.132.041.264.089.396.141A6.054 6.054 0 0 1 12 7.031l-.966.946a5.022 5.022 0 0 0-.684-2.546 5.004 5.004 0 0 0-1.81-1.797 5.376 5.376 0 0 0-.767-.363v3.721l-.997 1.033V3.003a4.803 4.803 0 0 0-1.512-.008v3.997l-.998 1.033v-4.77a4.93 4.93 0 0 0-1.82 1.163A4.989 4.989 0 0 0 .974 7.985a5.022 5.022 0 0 0 .684 2.55 5.106 5.106 0 0 0 1.805 1.817 5.012 5.012 0 0 0 2.228.686h5.367l-.966.962H0l.966-.962h1.789a6.138 6.138 0 0 1-.99-.788A6.028 6.028 0 0 1 .218 9.617 5.816 5.816 0 0 1 0 8.017c0-.557.073-1.095.218-1.612a6.097 6.097 0 0 1 1.551-2.68 5.935 5.935 0 0 1 2.497-1.51V.922z"/>
</svg>
