<svg xmlns="http://www.w3.org/2000/svg" width="24" height="24" viewBox="0 0 24 24">
    <g fill="none" fill-rule="evenodd">
        <g>
            <g>
                <g>
                    <path d="M0 0L24 0 24 24 0 24z" transform="translate(-16 -616) translate(0 608) translate(16 8)"/>
                    <g fill="#343434" fill-rule="nonzero">
                        <g>
                            <path d="M15.245 8.858l-.716-.528c.006-.11.01-.22.01-.33 0-.11-.004-.22-.01-.33l.716-.528c.768-.567.984-1.64.492-2.438l-.891-1.454c-.474-.77-1.482-1.105-2.343-.777l-.899.34c-.223-.14-.455-.267-.693-.38l-.128-.841C10.643.684 9.83 0 8.891 0H7.109c-.941 0-1.755.686-1.893 1.596l-.127.837c-.24.113-.47.24-.693.38l-.899-.34c-.865-.328-1.87.008-2.343.778L.263 4.703c-.491.802-.275 1.874.492 2.438l.715.529c-.006.11-.01.22-.01.33 0 .11.004.22.01.33l-.714.527c-.768.567-.984 1.638-.493 2.439l.892 1.454c.472.77 1.48 1.103 2.341.777l.9-.34c.223.14.453.268.693.38l.127.837c.138.91.952 1.596 1.893 1.596H8.89c.938 0 1.752-.684 1.893-1.596l.127-.837c.238-.112.47-.24.693-.38l.899.34c.864.329 1.87-.008 2.343-.778l.889-1.45c.494-.802.278-1.874-.49-2.44zM13.056 8c0 .337-.037.665-.108.983l1.406 1.037c.166.123.215.358.112.526L13.576 12c-.104.169-.345.245-.54.17l-1.66-.626c-.517.437-1.13.776-1.806.984l-.253 1.664c-.03.196-.22.354-.426.354H7.109c-.208 0-.398-.159-.427-.354l-.253-1.664c-.676-.208-1.29-.547-1.806-.984l-1.659.626c-.196.075-.437-.002-.54-.17l-.891-1.453c-.104-.169-.053-.403.113-.526l1.405-1.037c-.071-.318-.108-.646-.108-.983 0-.337.037-.665.108-.983L1.646 5.98c-.166-.123-.217-.357-.113-.526L2.424 4c.103-.168.344-.245.54-.17l1.659.626c.517-.437 1.13-.776 1.806-.984l.253-1.664c.03-.195.22-.354.427-.354H8.89c.206 0 .397.158.426.354l.253 1.664c.677.208 1.29.547 1.807.984l1.659-.626c.195-.075.436.001.54.17l.89 1.453c.103.168.054.403-.112.526l-1.406 1.037c.071.318.108.646.108.983zm-5.13-2.909c-1.637 0-2.964 1.303-2.964 2.91 0 1.606 1.327 2.908 2.964 2.908S10.89 9.607 10.89 8c0-1.606-1.327-2.909-2.964-2.909zm0 4.415c-.818 0-1.482-.664-1.482-1.48 0-.817.664-1.48 1.482-1.48.817 0 1.482.663 1.482 1.48 0 .816-.665 1.48-1.482 1.48" transform="translate(-16 -616) translate(0 608) translate(16 8) translate(4 4)"/>
                        </g>
                    </g>
                </g>
            </g>
        </g>
    </g>
</svg>
