<svg xmlns="http://www.w3.org/2000/svg" width="24" height="24" viewBox="0 0 24 24">
    <g fill="none" fill-rule="evenodd">
        <g>
            <g>
                <g>
                    <g>
                        <path d="M0 0H24V24H0z" transform="translate(-16 -456) translate(0 448) translate(16 8) matrix(1 0 0 -1 0 24)"/>
                        <path fill="#343434" fill-rule="nonzero" stroke="#343434" stroke-width=".4" d="M19.346 13.254l-.007.08c-.146 3.213-2.367 5.959-5.481 6.769v.029c0 .835-.566 1.564-1.372 1.776.008.047-.744.157-.755.04-.893-.142-1.55-.912-1.55-1.813v-.029c-3.118-.817-5.342-3.574-5.477-6.798l-.004-.05v-.034c0-.412.146-.813.412-1.127L7.01 6.46c.339-.836 1.141-1.335 2.042-1.335h5.948c.9 0 1.703.5 2.042 1.335l1.897 5.657c.266.306.408.7.408 1.105.004.01 0 .022 0 .033zM12 21.108c.554 0 1-.446 1-1 0-.074-.007-.148-.023-.218-.121-.54-.655-.88-1.195-.758-.38.084-.675.379-.759.758v.003c-.016.07-.023.141-.023.215 0 .554.45 1 1 1zm4.345-14.111c-.223-.551-.751-.857-1.346-.857H9.047c-.594 0-1.123.306-1.346.857l-1.531 4.51c.098-.022.197-.033.295-.04.467-.004.92.182 1.247.51.051.051.099.102.143.157.043-.055.09-.11.138-.16.686-.69 1.802-.693 2.491-.008.055.051.102.11.15.168.043-.055.09-.11.142-.16.685-.69 1.798-.693 2.487-.008.055.051.102.11.15.168.598-.77 1.703-.904 2.472-.31.117.091.22.193.31.31.332-.43.846-.678 1.39-.682.098 0 .197.033.295.051l-1.535-4.506zm1.984 5.542c-.011-.011-.022-.022-.03-.033-.2-.193-.47-.3-.747-.3-.558 0-1.043.457-1.043 1.015v.036c0 .2-.164.365-.365.365-.2 0-.364-.164-.364-.365v-.036c0-.558-.438-1.014-.996-1.014-.27 0-.558.106-.751.299-.194.19-.332.445-.332.715v.036c0 .212-.172.383-.383.383-.212 0-.383-.171-.383-.383v-.036c0-.558-.405-1.014-.963-1.014-.27 0-.467.106-.66.299-.193.19-.237.445-.237.715v.036c0 .2-.164.365-.365.365-.2 0-.364-.164-.364-.365v-.036c0-.558-.5-1.014-1.058-1.014-.562 0-1.018.452-1.021 1.014v.036c0 .212-.172.383-.383.383-.212 0-.383-.171-.383-.383v-.036c-.004-.27-.113-.529-.306-.715-.402-.398-1.044-.398-1.445 0l-.036.036c-.168.183-.26.416-.263.664l.004.044v.018c.117 2.889 2.1 5.361 4.894 6.098.42-.923 1.51-1.331 2.433-.912.405.183.725.507.911.912 2.768-.726 4.77-3.191 4.895-6.08l.007-.076c-.004-.248-.095-.489-.266-.671z" transform="translate(-16 -456) translate(0 448) translate(16 8) matrix(1 0 0 -1 0 24)"/>
                        <path fill="#343434" d="M9 15H10.5V16.5H9zM12 16H13.5V17.5H12zM14 14.5H15.5V16H14z" transform="translate(-16 -456) translate(0 448) translate(16 8) matrix(1 0 0 -1 0 24)"/>
                    </g>
                </g>
            </g>
        </g>
    </g>
</svg>
