<svg xmlns="http://www.w3.org/2000/svg" width="24" height="24" viewBox="0 0 24 24" class="icon icon-show">
    <g fill="none" fill-rule="evenodd">
        <g fill="#343434">
            <g>
                <g>
                    <g>
                        <g fill-rule="nonzero">
                            <path d="M9 0c4.09 0 7.585 2.545 9 6.136-1.415 3.592-4.91 6.137-9 6.137S1.415 9.728 0 6.136C1.415 2.545 4.91 0 9 0zm0 2.455c-2.03 0-3.682 1.652-3.682 3.681 0 2.03 1.653 3.682 3.682 3.682 2.03 0 3.682-1.653 3.682-3.682S11.029 2.455 9 2.455z" transform="translate(-1778 -441) translate(1595 169) translate(183 266) translate(0 6) translate(3 6)"/>
                        </g>
                        <path d="M12 10.09c1.13 0 2.045.917 2.045 2.046 0 1.13-.916 2.046-2.045 2.046-1.13 0-2.045-.917-2.045-2.046 0-1.129.916-2.045 2.045-2.045" transform="translate(-1778 -441) translate(1595 169) translate(183 266) translate(0 6)"/>
                    </g>
                </g>
            </g>
        </g>
    </g>
</svg>
