<svg xmlns="http://www.w3.org/2000/svg" width="24" height="24" viewBox="0 0 24 24">
    <g fill="none" fill-rule="evenodd">
        <g>
            <g>
                <g>
                    <g>
                        <path d="M0 0L24 0 24 24 0 24z" transform="translate(-497 -116) translate(230 88) translate(247 19) translate(20 9)"/>
                        <g>
                            <path fill="#343434" fill-rule="nonzero" stroke="#343434" stroke-width=".2" d="M6.16.65L5.112 1.704l-.13.12.004 1.484-.142.044-.115.04-.123.038-.093.04-.107.042-.118.044-.105.051-.108.046-.097.047-.082.038-.101.055-.08.046-.083.046-.1.055-.08.044-.117.07-.126.082-.137.093-.105.07-.12.09-.077.059-.096.076-.089.07-.095.075-.086.07-.068.067-.082.076-.15.142-.065.062-.053.056-.071.069-.087.093-.082.088-.052.07-.066.071-.059.078-.059.076-.057.076-.059.072-.053.071-.054.068-.042.063-.049.078-.05.082-.045.06-.042.063-.065.105-.03.061-.035.063-.051.083-.04.063-.023.063-.049.082-.046.084-.05.104-.039.097-.042.103-.042.087-.034.075-.031.089-.049.11-.038.113-.054.162-.03.1-.034.111-.03.103-.024.104-.066.286-.017.089-.027.103-.02.127-.012.084-.019.133-.019.145-.019.232-.014.162-.007.124-.002.15.002.365.004.12.013.173.01.14.011.102.01.108.011.086.02.108.014.103.015.093.019.092.017.08.025.112.023.097.021.1.034.107.027.11.027.092.026.08.027.093.032.086.032.093.035.09.032.08.03.07.04.1.04.096.044.09.038.091.038.074.038.068.044.097.04.073.04.076.044.076.028.049.027.046.04.065.036.061.034.053.04.055.033.059.053.08.046.067.051.068.036.055.04.052.05.066.043.055.059.071.074.089.06.08.072.078.053.065.057.057.067.071.061.068.062.061.046.045.057.052.059.06.05.045.055.051.045.042.058.05.055.051.049.034.044.042.046.036.038.027.042.034.051.04.048.038.053.038.057.042.05.038.036.024.03.023.034.023.036.025.031.021.028.015H1.17L.002 17.072h7.735l1.164-1.167-2.117-.002-.132-.002-.16-.017-.232-.02-.213-.041-.164-.03-.171-.04-.148-.031-.162-.04-.108-.032-.17-.061-.146-.053-.124-.044-.116-.049-.12-.06-.11-.053-.14-.066-.14-.076-.124-.073-.12-.072-.091-.059-.118-.07-.108-.08-.093-.059-.09-.067-.103-.087-.106-.084-.107-.095-.103-.088-.11-.108-.101-.099-.07-.067-.082-.1-.065-.069-.066-.07-.082-.1-.09-.112s-.08-.108-.08-.116c0-.009-.079-.1-.079-.1l-.088-.132-.072-.105-.071-.112-.068-.116-.057-.097-.048-.097-.072-.133-.055-.126-.052-.123-.06-.126-.04-.095-.033-.086-.036-.11-.049-.152-.05-.16-.05-.179-.032-.154-.034-.168-.032-.144-.02-.17-.018-.16-.016-.182-.009-.105-.008-.122v-.112l.002-.105.006-.11.005-.175.008-.13.006-.138.01-.095.018-.13.019-.12.015-.123.02-.103.028-.128.02-.106.02-.08.027-.105.03-.09.034-.127.033-.091.044-.126.043-.118.042-.104.046-.13.06-.127.041-.076.049-.103.055-.11.044-.082.06-.107.07-.108.047-.084.055-.08.08-.116.067-.097.061-.09.064-.085.054-.076.051-.057.061-.067.048-.061.047-.05.057-.058.048-.059.072-.065.063-.065.127-.123.044-.046.059-.053.06-.052.052-.049.063-.055.074-.057.07-.052.069-.055.071-.044.087-.066.082-.058.089-.057.063-.047.084-.048.076-.047.057-.038.072-.031.054-.034.074-.038.082-.042.083-.038.048-.03.078-.029.067-.03.078-.035.064-.028.063-.025.061-.021.034-.015v5.495l1.174-1.17.002-4.629.014-.006.05-.008.06-.006.08-.013.078-.006.05-.002.02.003.099-.011.105-.006.127-.004.394-.003.143.008.122.008.092.008.088.01.094.012.07.01.064.009.002 5.798 1.177-1.17V4.55l.018.006.04.016.056.023.075.027.051.025.076.033.085.038.078.038.076.039.085.041.093.05.067.034.059.032.05.034.058.033.047.025.06.041.054.035.064.04.056.037.056.04.056.041.056.04.066.049.06.046.046.037.05.04.053.042.059.048.07.065.06.052.056.055.062.054.061.064.047.038.043.046.07.074.06.064.04.048.044.048.064.073.068.082.057.068.548.729c.233-.138.415-.24.544-.305.13-.065.314-.148.552-.248l-.767-.965-.024-.03-.041-.05-.038-.046-.042-.049-.064-.076-.054-.061-.05-.05-.047-.052-.053-.053-.077-.079-.066-.062-.055-.054-.066-.065-.06-.058-.053-.044-.07-.066-.058-.047-.048-.044-.064-.05-.055-.044-.063-.052-.062-.045-.067-.048-.06-.043-.068-.053-.066-.047-.052-.039-.056-.035-.057-.038-.066-.04-.069-.045-.063-.042-.055-.033-.066-.036-.058-.033-.065-.035-.068-.04-.06-.03-.068-.037-.066-.032-.06-.03-.081-.038-.074-.035-.076-.036-.094-.041-.07-.031-.082-.031-.07-.028-.064-.023-.07-.025-.093-.036-.07-.022-.078-.028-.065-.019-.04-.007L9.09.653 7.911 1.826V3.06l-.094-.015-.125-.014-.1-.011-.169-.013-.157-.005L7.174 3l-.226.002-.148.002-.172.007-.119.006-.031.007-.102.009-.106.008-.074.015-.033.014L6.16.65z" transform="translate(-497 -116) translate(230 88) translate(247 19) translate(20 9) translate(3 2)"/>
                            <g>
                                <g>
                                    <g>
                                        <path stroke="#343434" stroke-dasharray="8 314" stroke-linecap="round" stroke-width="1.5" d="M9.06 4.06C7.99 2.13 5.556 1.43 3.624 2.503c-1.932 1.07-2.63 3.505-1.56 5.437C3.136 9.871 5.57 10.57 7.503 9.5c1.932-1.072 2.63-3.506 1.559-5.438z" transform="translate(-497 -116) translate(230 88) translate(247 19) translate(20 9) translate(3 2) translate(10 8) matrix(-1 0 0 1 11 0)"/>
                                        <path fill="#343434" fill-rule="nonzero" d="M4.49.85c.326 0 .597.24.643.554l.007.096v3c0 .359-.291.65-.65.65-.326 0-.597-.24-.643-.554L3.84 4.5V2.15H1.49c-.326 0-.597-.24-.643-.554L.84 1.5c0-.326.24-.597.554-.643L1.49.85h3z" transform="translate(-497 -116) translate(230 88) translate(247 19) translate(20 9) translate(3 2) translate(10 8) matrix(-1 0 0 1 11 0) matrix(0 1 1 0 -.01 .01)"/>
                                    </g>
                                </g>
                                <g>
                                    <g>
                                        <path stroke="#343434" stroke-dasharray="8 314" stroke-linecap="round" stroke-width="1.5" d="M9.06 4.06C7.99 2.13 5.556 1.43 3.624 2.503c-1.932 1.07-2.63 3.505-1.56 5.437C3.136 9.871 5.57 10.57 7.503 9.5c1.932-1.072 2.63-3.506 1.559-5.438z" transform="translate(-497 -116) translate(230 88) translate(247 19) translate(20 9) translate(3 2) translate(10 8) matrix(1 0 0 -1 0 12)"/>
                                        <path fill="#343434" fill-rule="nonzero" d="M4.49.85c.326 0 .597.24.643.554l.007.096v3c0 .359-.291.65-.65.65-.326 0-.597-.24-.643-.554L3.84 4.5V2.15H1.49c-.326 0-.597-.24-.643-.554L.84 1.5c0-.326.24-.597.554-.643L1.49.85h3z" transform="translate(-497 -116) translate(230 88) translate(247 19) translate(20 9) translate(3 2) translate(10 8) matrix(1 0 0 -1 0 12) matrix(0 1 1 0 -.01 .01)"/>
                                    </g>
                                </g>
                            </g>
                        </g>
                    </g>
                </g>
            </g>
        </g>
    </g>
</svg>
