<svg xmlns="http://www.w3.org/2000/svg" width="24" height="24" viewBox="0 0 24 24">
    <defs>
        <filter id="ttwcahwhma">
            <feColorMatrix in="SourceGraphic" values="0 0 0 0 1.000000 0 0 0 0 1.000000 0 0 0 0 1.000000 0 0 0 1.000000 0"/>
        </filter>
    </defs>
    <g fill="none" fill-rule="evenodd" opacity=".6">
        <g>
            <g>
                <g>
                    <g>
                        <path d="M0 0H24V24H0z" transform="translate(-16 -90) translate(0 82) translate(16 8)"/>
                    </g>
                    <path d="M0 0L24 0 24 24 0 24z" transform="translate(-16 -90) translate(0 82) translate(16 8)"/>
                    <g filter="url(#ttwcahwhma)" opacity=".9" transform="translate(-16 -90) translate(0 82) translate(16 8)">
                        <g>
                            <path stroke="#FFF" stroke-width="1.4" d="M16.1.7c.359 0 .684.146.92.38.234.236.38.561.38.92h0v11c0 .359-.146.684-.38.92-.236.234-.561.38-.92.38h0-14c-.359 0-.684-.146-.92-.38C.947 13.683.8 13.358.8 13h0V2c0-.359.146-.684.38-.92.236-.234.561-.38.92-.38h0z" transform="translate(2.9 4)"/>
                            <path fill="#343434" d="M0.189 3.8H17.189V5.199999999999999H0.189z" transform="translate(2.9 4)"/>
                            <path fill="#343434" fill-rule="nonzero" d="M7.198 10.301c.053.051.082.12.082.193v1.108c0 .072-.03.142-.082.193-.052.05-.122.079-.195.079h-.861c-.073 0-.144-.029-.196-.08-.052-.05-.082-.12-.082-.192v-1.108c0-.072.03-.142.082-.193.052-.05.123-.079.196-.079h.86c.074 0 .144.029.196.08zM10.232 8.19c.052.05.081.12.081.193v3.219c0 .072-.03.142-.081.193-.053.05-.123.079-.196.079h-.861c-.073 0-.143-.029-.196-.08-.052-.05-.081-.12-.081-.192V8.383c0-.073.03-.142.081-.193.053-.05.123-.079.196-.079h.861c.073 0 .143.029.196.08zM13.265 6.08c.052.05.082.12.082.192v5.33c0 .072-.03.142-.082.193-.052.05-.122.079-.195.079h-.862c-.073 0-.143-.029-.195-.08-.052-.05-.082-.12-.082-.192v-5.33c0-.073.03-.142.082-.193.052-.05.122-.079.195-.079h.862c.073 0 .143.028.195.08zM14.914 1.75c.419 0 .758.336.758.75s-.34.75-.758.75c-.419 0-.758-.336-.758-.75s.34-.75.758-.75z" transform="translate(2.9 4)"/>
                        </g>
                    </g>
                </g>
            </g>
        </g>
    </g>
</svg>
