<svg xmlns="http://www.w3.org/2000/svg" width="36" height="36" viewBox="0 0 36 36">
    <g fill="none" fill-rule="evenodd">
        <circle cx="18" cy="18" r="18" fill="#E7E7E7"/>
        <g fill="#343434" opacity=".9">
            <path d="M15 4.95c0 .47-.38.85-.85.85H.85C.38 5.8 0 5.42 0 4.95s.38-.85.85-.85h13.3c.47 0 .85.38.85.85zm0-4.1c0 .47-.38.85-.85.85H.85C.38 1.7 0 1.32 0 .85S.38 0 .85 0h13.3c.47 0 .85.38.85.85zm-8 8.1c0 .47-.38.85-.85.85H.85C.38 9.8 0 9.42 0 8.95s.38-.85.85-.85h5.3c.47 0 .85.38.85.85zM9.707 8.95c.39-.39 1.024-.39 1.414 0l2.12 2.12 3.537-3.534c.39-.391 1.024-.391 1.414 0 .39.39.39 1.023 0 1.414l-4.23 4.23-.012.012c-.39.39-1.024.39-1.414 0l-2.829-2.828c-.39-.39-.39-1.024 0-1.414z" transform="translate(10 13)"/>
        </g>
    </g>
</svg>
