<svg xmlns="http://www.w3.org/2000/svg" width="24" height="24" viewBox="0 0 24 24">
    <g fill="none" fill-rule="evenodd">
        <g fill="#343434">
            <path d="M10.992 5.89c.482 0 .874.392.874.875 0 .448-.338.817-.772.868l-.102.006h-4.37c-.448 0-.818.337-.868.772l-.006.102v9.008c0 .448.337.818.772.868l.102.006h9.008c.448 0 .818-.337.868-.772l.006-.102v-5.513c0-.482.391-.874.874-.874.448 0 .818.338.868.772l.006.102v5.513c0 1.396-1.091 2.538-2.468 2.617l-.154.005H6.622c-1.396 0-2.538-1.092-2.618-2.468L4 17.521V8.513c0-1.397 1.091-2.538 2.468-2.618l.154-.004h4.37zM19.126 3c.483 0 .874.391.874.874v4.37c0 .482-.391.874-.874.874s-.874-.392-.874-.874l.001-2.262-4.477 4.478c-.341.34-.894.34-1.236 0-.34-.342-.34-.895 0-1.236l4.477-4.478-2.26.002c-.446 0-.814-.333-.868-.764l-.007-.11c0-.483.392-.874.874-.874z"/>
        </g>
    </g>
</svg>
