<svg xmlns="http://www.w3.org/2000/svg" width="24" height="24" viewBox="0 0 24 24">
    <g fill="none" fill-rule="evenodd">
        <g>
            <g>
                <g>
                    <g>
                        <path d="M0 0H24V24H0z" transform="translate(-16 -536) translate(0 528) translate(16 8) matrix(1 0 0 -1 0 24)"/>
                        <g fill="#343434" fill-rule="nonzero">
                            <path d="M11 0c1.657 0 3 1.343 3 3v12c0 1.657-1.343 3-3 3H3c-1.657 0-3-1.343-3-3V3c0-1.657 1.343-3 3-3h8zm0 1.5H3c-.78 0-1.42.595-1.493 1.356L1.5 3v12c0 .78.595 1.42 1.356 1.493L3 16.5h8c.78 0 1.42-.595 1.493-1.356L12.5 15V3c0-.78-.595-1.42-1.356-1.493L11 1.5z" transform="translate(-16 -536) translate(0 528) translate(16 8) matrix(1 0 0 -1 0 24) matrix(-1 0 0 1 19 3.5)"/>
                            <path d="M10.172 8.1c.457 0 .828.313.828.7 0 .354-.311.647-.715.694l-.113.006H3.828C3.37 9.5 3 9.187 3 8.8c0-.354.311-.647.715-.694l.113-.006h6.344zM10.172 11.1c.457 0 .828.313.828.7 0 .354-.311.647-.715.694l-.113.006H6.828c-.457 0-.828-.313-.828-.7 0-.354.311-.647.715-.694l.113-.006h3.344z" transform="translate(-16 -536) translate(0 528) translate(16 8) matrix(1 0 0 -1 0 24) matrix(-1 0 0 1 19 3.5)"/>
                        </g>
                    </g>
                </g>
            </g>
        </g>
    </g>
</svg>
