<svg xmlns="http://www.w3.org/2000/svg" width="24" height="24" viewBox="0 0 24 24">
    <g fill="none" fill-rule="evenodd">
        <g>
            <g>
                <g>
                    <g>
                        <path d="M0 0H24V24H0z" transform="translate(-665 -231) translate(560 199) translate(25 29.858) translate(80 2.142)"/>
                        <g fill="#343434">
                            <path d="M10.91 0c.559 0 1.02.451 1.083 1.033l.007.136V16.83c0 .103-.013.205-.037.304-.123.49-.519.823-.965.862l-.123.003-.124-.012-.125-.028-9.818-1.824c-.433-.125-.747-.518-.8-.986L0 15.007V2.993c0-.48.274-.907.682-1.084l.126-.045L10.626.04c.062-.018.124-.03.188-.036L10.909 0zm2.34 3c.552 0 1 .455 1 1.016v9.968c0 .561-.448 1.016-1 1.016h-.5V3h.5zM4.945 6H3.123l1.863 2.81L3 12h1.782l1.187-2.289L7.177 12H9L6.952 8.757 8.816 6H7.034L5.97 7.925 4.945 6z" transform="translate(-665 -231) translate(560 199) translate(25 29.858) translate(80 2.142) translate(3 3)"/>
                        </g>
                    </g>
                </g>
            </g>
        </g>
    </g>
</svg>
