<svg xmlns="http://www.w3.org/2000/svg" width="32" height="32" viewBox="0 0 32 32">
  <g fill="none" fill-rule="evenodd">
    <rect width="32" height="32" fill="#C7CFFF" opacity=".5" rx="2"/>
    <g fill="#4562FF" fill-rule="nonzero">
      <path
        d="M9.516 13.852c.2.14.803.56 1.808 1.256s1.775 1.233 2.31 1.609c.058.04.183.13.374.269.191.138.35.25.476.335.127.085.28.18.459.286.179.106.348.185.507.238.158.053.305.08.44.08H15.909c.135 0 .282-.027.441-.08.159-.053.328-.132.507-.238.18-.106.332-.201.458-.286.127-.085.285-.197.477-.335.19-.139.315-.228.374-.27l4.126-2.865c.43-.3.788-.66 1.076-1.084.288-.423.432-.867.432-1.331 0-.388-.14-.72-.42-.996a1.363 1.363 0 0 0-.99-.415H9.41c-.453 0-.801.153-1.045.459-.244.305-.366.687-.366 1.146 0 .37.162.771.485 1.203.323.432.667.772 1.031 1.019z"/>
      <path
        d="M22.917 14.795a183.23 183.23 0 0 0-4.39 3.041c-.335.247-.607.44-.816.578-.209.138-.486.28-.833.423-.347.144-.67.216-.97.216h-.017c-.3 0-.624-.072-.97-.216a5.035 5.035 0 0 1-.833-.423 20.88 20.88 0 0 1-.816-.578c-.793-.581-2.254-1.595-4.381-3.041A4.67 4.67 0 0 1 8 14.028v7c0 .388.138.72.414.996.277.276.609.415.997.415h12.977c.388 0 .72-.139.996-.415.277-.276.415-.608.415-.996v-7a4.862 4.862 0 0 1-.882.767z"/>
    </g>
  </g>
</svg>
