<svg xmlns="http://www.w3.org/2000/svg" width="24" height="24" viewBox="0 0 24 24">
    <g fill="none" fill-rule="evenodd" opacity=".6">
        <g>
            <g>
                <g>
                    <g>
                        <path d="M0 0H24V24H0z" transform="translate(-16 -410) translate(0 402) translate(16 8)"/>
                    </g>
                    <g fill="#FFF" fill-rule="nonzero">
                        <path d="M13.83 3.828c-.345.336-.345.882.002 1.218.439.426.68.993.68 1.596 0 .603-.241 1.17-.68 1.596-.347.337-.347.882-.001 1.218.173.169.4.253.627.253.227 0 .454-.084.626-.252.776-.752 1.202-1.752 1.202-2.815s-.427-2.063-1.202-2.815c-.346-.336-.907-.337-1.253 0zm2.88-2.57c-.304-.296-.797-.296-1.1 0-.305.296-.305.775 0 1.07 2.444 2.376 2.444 6.243 0 8.62-.305.296-.305.776 0 1.07.151.149.35.222.55.222.2 0 .399-.073.551-.221 3.052-2.968 3.052-7.795 0-10.761zM12.331.083c-.215-.116-.478-.11-.688.016L8 2.739H4.018C1.803 2.739 0 4.49 0 6.644c0 1.993 1.545 3.639 3.531 3.874l.937 2.502c.22.586.8.98 1.441.98.18 0 .355-.03.525-.09.794-.282 1.204-1.139.915-1.91l-.543-1.451H8l3.643 2.64c.11.065.234.099.358.099.114 0 .227-.028.33-.083.215-.117.349-.337.349-.576V.659c0-.24-.134-.46-.349-.576zM3.257 9.142c-.759 0-1.9-1.3-1.9-2.498 0-1.199.935-2.499 1.9-2.499H7.14v4.997H3.257zM5.97 12.67c-.02.008-.04.01-.06.01-.061 0-.137-.034-.166-.112l-.756-2.02h.375l.712 1.903c.034.09-.014.187-.105.22zm5.436-1.41l-3-1.847V3.874l3-1.847v9.233z" transform="translate(-16 -410) translate(0 402) translate(16 8) translate(3 5.5)"/>
                    </g>
                </g>
            </g>
        </g>
    </g>
</svg>
