<svg width="24px" height="24px" viewBox="0 0 24 24" version="1.1" xmlns="http://www.w3.org/2000/svg" xmlns:xlink="http://www.w3.org/1999/xlink">
    <title>Icon/reload 2</title>
    <g id="Icon/reload-2" stroke="none" stroke-width="1" fill="none" fill-rule="evenodd">
        <rect  x="0" y="0" width="24" height="24"></rect>
        <g id="Group-42">
            <rect id="Rectangle" x="0" y="0" width="24" height="24"></rect>
            <g id="Group-38" transform="translate(12.000000, 12.000000) scale(-1, 1) translate(-12.000000, -12.000000) translate(4.000000, 3.000000)">
                <g id="Group-37" transform="translate(0.000000, 0.000000)">
                    <path d="M8,16 C11.8659932,16 15,12.8659932 15,9 C15,5.13400675 11.8659932,2 8,2 C4.13400675,2 1,5.13400675 1,9 C1,12.8659932 4.13400675,16 8,16 Z" id="Oval" stroke="#343434" stroke-width="1.5" stroke-linecap="round" stroke-dasharray="18,314" transform="translate(8.000000, 9.000000) rotate(-84.000000) translate(-8.000000, -9.000000) "></path>
                    <path d="M5.68746686,0.85 C6.01381694,0.85 6.28399332,1.09050819 6.3304192,1.40394776 L6.33746686,1.5 L6.33746686,5.5 C6.33746686,5.85898509 6.04645195,6.15 5.68746686,6.15 C5.36111678,6.15 5.0909404,5.90949181 5.04451453,5.59605224 L5.03746686,5.5 L5.037,2.15 L1.68746686,2.15 C1.36111678,2.15 1.0909404,1.90949181 1.04451453,1.59605224 L1.03746686,1.5 C1.03746686,1.17364992 1.27797506,0.903473539 1.59141463,0.857047669 L1.68746686,0.85 L5.68746686,0.85 Z" id="Path-6-Copy" fill="#343434" fill-rule="nonzero" transform="translate(3.687467, 3.500000) scale(-1, 1) rotate(90.000000) translate(-3.687467, -3.500000) "></path>
                </g>
                <g id="Group-37" transform="translate(8.000000, 9.500000) scale(-1, -1) translate(-8.000000, -9.500000) translate(0.000000, 1.000000)">
                    <path d="M8,16 C11.8659932,16 15,12.8659932 15,9 C15,5.13400675 11.8659932,2 8,2 C4.13400675,2 1,5.13400675 1,9 C1,12.8659932 4.13400675,16 8,16 Z" id="Oval" stroke="#343434" stroke-width="1.6" stroke-linecap="round" stroke-dasharray="18,314" transform="translate(8.000000, 9.000000) rotate(-84.000000) translate(-8.000000, -9.000000) "></path>
                    <path d="M5.68746686,0.85 C6.01381694,0.85 6.28399332,1.09050819 6.3304192,1.40394776 L6.33746686,1.5 L6.33746686,5.5 C6.33746686,5.85898509 6.04645195,6.15 5.68746686,6.15 C5.36111678,6.15 5.0909404,5.90949181 5.04451453,5.59605224 L5.03746686,5.5 L5.037,2.15 L1.68746686,2.15 C1.36111678,2.15 1.0909404,1.90949181 1.04451453,1.59605224 L1.03746686,1.5 C1.03746686,1.17364992 1.27797506,0.903473539 1.59141463,0.857047669 L1.68746686,0.85 L5.68746686,0.85 Z" id="Path-6-Copy" fill="#343434" fill-rule="nonzero" transform="translate(3.687467, 3.500000) scale(-1, 1) rotate(90.000000) translate(-3.687467, -3.500000) "></path>
                </g>
            </g>
        </g>
    </g>
</svg>