<svg xmlns="http://www.w3.org/2000/svg" width="24" height="24" viewBox="0 0 24 24">
  <path fill="#07F" fill-rule="evenodd"
        d="M5.67 3.972h12.762a.666.666 0 0 1 .497.209c.109.103.179.239.2.385l.008.112v1.569l-.01.705v11.917a.705.705 0 0 1-.61.689l-.095.006H5.671a.705.705 0 0 1-.698-.6l-.008-.095V4.678a.696.696 0 0 1 .594-.698l.112-.008h12.761zm12.752 2.98H5.671v11.917h12.751V6.952zm-5.929 3.972a.318.318 0 0 1 .318.268.318.318 0 0 1-.318.318H7.994a.318.318 0 0 1-.317-.268c0-.176.142-.318.317-.318zM7.994 8.908h6.029a.318.318 0 0 1 .072.627l-.072.009H7.994a.318.318 0 0 1-.072-.627l.072-.009h6.029zm10.418-4.23H5.671v1.569h12.751l-.01-1.57z"/>
</svg>
