<svg xmlns="http://www.w3.org/2000/svg" width="31" height="34" viewBox="0 0 31 34">
  <g fill="#888EA8" fill-rule="nonzero">
    <path
      d="M29.75 16.336h-4.915V.664A.664.664 0 0 0 23.7.194L21.82 2.076 19.939.195a.664.664 0 0 0-.94 0l-1.88 1.88-1.882-1.88a.664.664 0 0 0-.939 0l-1.88 1.88-1.882-1.88a.664.664 0 0 0-.94 0l-1.88 1.88L5.835.196a.664.664 0 0 0-.94 0l-1.88 1.88L1.132.196A.664.664 0 0 0 0 .682v29.865A3.457 3.457 0 0 0 3.453 34H26.96a3.457 3.457 0 0 0 3.454-3.453V17a.664.664 0 0 0-.665-.664zM3.452 32.672a2.127 2.127 0 0 1-2.125-2.125V2.268l1.217 1.216c.259.26.68.26.939 0l1.881-1.88 1.881 1.88c.26.26.68.26.94 0l1.88-1.88 1.882 1.88c.259.26.68.26.939 0l1.881-1.88 1.881 1.88c.26.26.68.26.94 0l1.88-1.88 1.882 1.88c.259.26.68.26.939 0l1.217-1.217v28.28c0 .8.276 1.538.735 2.125H3.453zm25.632-2.125a2.127 2.127 0 0 1-2.125 2.125 2.127 2.127 0 0 1-2.124-2.125V17.664h4.25v12.883z"/>
    <path
      d="M12.418 10.549c-.66 0-1.196-.46-1.196-1.023 0-.565.537-1.024 1.196-1.024.659 0 1.195.46 1.195 1.024a.664.664 0 1 0 1.328 0c0-1.083-.79-1.996-1.86-2.269v-.45a.664.664 0 1 0-1.328 0v.45c-1.07.273-1.859 1.186-1.859 2.269 0 1.296 1.132 2.351 2.524 2.351.659 0 1.195.46 1.195 1.023 0 .565-.536 1.024-1.195 1.024-.66 0-1.196-.46-1.196-1.024a.664.664 0 1 0-1.328 0c0 1.083.79 1.996 1.86 2.269v.542a.664.664 0 1 0 1.328 0v-.542c1.07-.273 1.859-1.186 1.859-2.269 0-1.296-1.132-2.351-2.523-2.351zM19.09 10.549h-1.295a.664.664 0 1 0 0 1.328h1.294a.664.664 0 1 0 0-1.328zM7.04 10.549H5.746a.664.664 0 1 0 0 1.328H7.04a.664.664 0 1 0 0-1.328zM19.425 17.93H8.905a.664.664 0 1 0 0 1.328h10.52a.664.664 0 1 0 0-1.328zM5.88 18.125a.67.67 0 0 0-.47-.195.67.67 0 0 0-.47.195.67.67 0 0 0-.194.47.67.67 0 0 0 .194.469.67.67 0 0 0 .47.194.67.67 0 0 0 .47-.194.67.67 0 0 0 .194-.47.67.67 0 0 0-.195-.47zM19.425 22.313H8.905a.664.664 0 1 0 0 1.328h10.52a.664.664 0 1 0 0-1.328zM5.88 22.507a.67.67 0 0 0-.47-.194.67.67 0 0 0-.47.194.67.67 0 0 0-.194.47.67.67 0 0 0 .194.47.67.67 0 0 0 .47.194.67.67 0 0 0 .47-.195.67.67 0 0 0 .194-.47.67.67 0 0 0-.195-.469zM19.425 26.695H8.905a.664.664 0 1 0 0 1.329h10.52a.664.664 0 1 0 0-1.329zM5.88 26.89a.67.67 0 0 0-.47-.195.67.67 0 0 0-.47.195.67.67 0 0 0-.194.47.67.67 0 0 0 .194.47.67.67 0 0 0 .47.194.67.67 0 0 0 .47-.195.67.67 0 0 0 .194-.47.67.67 0 0 0-.195-.469z"/>
  </g>
</svg>
