<svg xmlns="http://www.w3.org/2000/svg" width="24" height="24" viewBox="0 0 24 24">
    <g fill="#343434" fill-rule="evenodd">
        <path d="M10.886.294l2.828 2.829c.39.39.39 1.024 0 1.414-.39.39-1.024.39-1.414 0l-1.122-1.121V8.83c0 .552-.447 1-1 1-.552 0-1-.448-1-1V3.415l-1.12 1.122c-.391.39-1.025.39-1.415 0-.39-.39-.39-1.024 0-1.414L9.47.294c.39-.39 1.024-.39 1.415 0zM4.536 15.707l2.828-2.828c.39-.39.39-1.024 0-1.415-.39-.39-1.024-.39-1.414 0l-1.122 1.122V7.172c0-.553-.447-1-1-1-.552 0-1 .447-1 1v5.415l-1.12-1.123c-.391-.39-1.025-.39-1.415 0-.39.391-.39 1.024 0 1.415l2.828 2.828c.39.39 1.024.39 1.415 0z" transform="rotate(180 10 10)"/>
    </g>
</svg>
