<svg xmlns="http://www.w3.org/2000/svg" width="24" height="24" viewBox="0 0 24 24">
    <g fill="none" fill-rule="evenodd">
        <g>
            <g>
                <g>
                    <path d="M0 0L24 0 24 24 0 24z" transform="translate(-16 -90) translate(0 82) translate(16 8)"/>
                    <g>
                        <path class="stroke-change" stroke="#343434" stroke-width="1.3" d="M16 .65c.373 0 .71.151.955.395.244.245.395.582.395.955h0v11c0 .373-.151.71-.395.955-.245.244-.582.395-.955.395h0H2c-.373 0-.71-.151-.955-.395C.801 13.71.65 13.373.65 13h0V2c0-.373.151-.71.395-.955C1.29.801 1.627.65 2 .65h14z" transform="translate(-16 -90) translate(0 82) translate(16 8) translate(3 4)"/>
                        <path class="fill-change" fill="#343434" d="M0 3.8H17V5.199999999999999H0z" transform="translate(-16 -90) translate(0 82) translate(16 8) translate(3 4)"/>
                        <path class="fill-change" fill="#343434" fill-rule="nonzero" d="M7.12 10.301c.05.051.08.12.08.193v1.108c0 .073-.03.142-.08.193-.053.05-.122.079-.195.079h-.85c-.073 0-.142-.029-.194-.08-.052-.05-.081-.12-.081-.192v-1.108c0-.073.03-.142.08-.193.053-.05.122-.079.195-.079h.85c.073 0 .142.029.194.08zM10.12 8.19c.05.05.08.12.08.193v3.22c0 .072-.03.141-.08.192-.053.05-.122.079-.195.079h-.85c-.073 0-.142-.029-.194-.08-.052-.05-.081-.12-.081-.192v-3.22c0-.072.03-.141.08-.192.053-.05.122-.079.195-.079h.85c.073 0 .142.029.194.08zM13.12 6.08c.05.05.08.12.08.191v5.331c0 .073-.03.142-.08.193-.053.05-.122.079-.195.079h-.85c-.073 0-.142-.029-.194-.08-.052-.05-.081-.12-.081-.192v-5.33c0-.073.03-.142.08-.193.053-.05.122-.079.195-.079h.85c.073 0 .142.028.194.08zM14.75 1.75c.414 0 .75.336.75.75s-.336.75-.75.75S14 2.914 14 2.5s.336-.75.75-.75z" transform="translate(-16 -90) translate(0 82) translate(16 8) translate(3 4)"/>
                    </g>
                </g>
            </g>
        </g>
    </g>
</svg>
