<svg xmlns="http://www.w3.org/2000/svg" width="41" height="34" viewBox="0 0 41 34">
  <g fill="#888EA8" fill-rule="nonzero">
    <path
      d="M33.562 0c-3.086 0-5.524 2.476-5.524 5.562a5.503 5.503 0 0 0 5.524 5.524c3.048 0 5.562-2.476 5.562-5.562C39.124 2.438 36.648 0 33.562 0zm0 9.867a4.34 4.34 0 0 1-4.343-4.343c0-2.4 1.981-4.305 4.343-4.305a4.34 4.34 0 0 1 4.343 4.343c0 2.4-1.943 4.305-4.343 4.305z"/>
    <path
      d="M35.314 6.4c-.038-.114-.038-.19-.114-.305-.038-.076-.076-.19-.152-.266-.077-.077-.115-.153-.19-.229a.683.683 0 0 0-.268-.19c-.076-.077-.19-.115-.266-.153-.114-.038-.19-.114-.305-.152a2.625 2.625 0 0 1-.305-.115.289.289 0 0 1-.152-.076c-.038-.038-.114-.038-.152-.076-.039-.038-.115-.038-.153-.076l-.114-.114c-.038-.038-.076-.077-.076-.153-.038-.038-.038-.114-.038-.152v-.19c0-.039.038-.115.038-.153.038-.038.038-.114.076-.152l.114-.115a.291.291 0 0 1 .19-.076c.077-.038.115-.038.191-.038h.229c.076 0 .114 0 .19.038.076 0 .153.038.19.038.039 0 .115.038.153.038.076 0 .114.038.152.038l.19.077.039-.229.076-.61v-.152l-.152-.038c-.038 0-.115-.038-.153-.038-.038 0-.076-.038-.152-.038-.038 0-.114-.038-.19-.038-.077 0-.115-.038-.191-.038h-.038v-.724H33.067v.762h-.038c-.115.038-.229.076-.343.152a.683.683 0 0 0-.267.19 1.657 1.657 0 0 0-.229.267c-.076.076-.114.19-.152.305l-.114.343c-.038.114-.038.267-.038.38 0 .115 0 .191.038.306.038.114.038.19.114.304.038.077.114.19.152.267.077.076.115.152.191.229.076.076.152.152.267.19.076.076.19.114.266.152.115.039.229.115.305.153.114.038.229.076.305.114.038 0 .114.038.152.076.038.038.114.038.153.077.038.038.076.076.114.076l.114.114c.038.038.038.076.076.152 0 .038.038.115.038.19v.191a.289.289 0 0 1-.076.153l-.114.114c-.038.038-.076.076-.152.114-.039.038-.115.038-.153.076-.038 0-.114.039-.19.039h-.495c-.077 0-.153-.039-.191-.039a.541.541 0 0 1-.229-.076c-.076-.038-.152-.038-.228-.076-.038 0-.076-.038-.114-.038-.039 0-.077-.038-.115-.038l-.228-.114-.038.266L31.77 8v.114l.115.038c.152-.038.228 0 .343.038.076.039.19.077.266.077.076.038.19.038.305.076.114.038.19.038.305.038h.076V9.142H34.095v-.8h.038c.115-.037.229-.075.343-.152.114-.038.19-.114.305-.19.076-.076.152-.152.229-.267.076-.076.114-.19.19-.304l.114-.343c.038-.115.038-.229.038-.381 0-.115 0-.19-.038-.305zM26.895 9.81c-.19-.267-.61-.305-.876-.115l-6.171 4.915-7.962-3.315a.608.608 0 0 0-.572.076l-8.533 6.096a.609.609 0 0 0-.152.838c.114.19.304.266.495.266a.614.614 0 0 0 .343-.114l8.266-5.905 8 3.315c.19.076.457.038.61-.077l6.438-5.104c.267-.19.305-.61.114-.876zM39.81 32.686h-2.82V15.048a.602.602 0 0 0-.609-.61h-5.6a.602.602 0 0 0-.61.61v17.638h-2.057V21.143a.602.602 0 0 0-.61-.61h-5.637a.602.602 0 0 0-.61.61v11.543H19.2V20.229a.602.602 0 0 0-.61-.61h-5.6a.602.602 0 0 0-.609.61v12.457h-2.057V23.81a.602.602 0 0 0-.61-.61H4.076a.602.602 0 0 0-.61.61v8.876H.61a.602.602 0 0 0-.61.61c0 .342.267.609.61.609H39.77c.343 0 .61-.267.61-.61.038-.343-.229-.61-.571-.61zm-30.743 0H4.686v-8.267h4.38v8.267zm8.914 0H13.6V20.838h4.381v11.848zm8.876 0h-4.38V21.752h4.38v10.934zm8.914 0h-4.38V15.657h4.38v17.029z"/>
  </g>
</svg>
