<svg xmlns="http://www.w3.org/2000/svg" width="27" height="18" viewBox="0 0 27 18" style="margin-top:-3px;"><defs><style>.a{fill:#012169;}.b{fill:#f5f5f5;}.c{fill:#c8102e;}</style></defs><g transform="translate(0 -88.275)"><path class="a" d="M24.978,88.276H2.022A2.04,2.04,0,0,0,0,90.334v13.885a2.04,2.04,0,0,0,2.022,2.058H24.978A2.04,2.04,0,0,0,27,104.218V90.334A2.04,2.04,0,0,0,24.978,88.276Z" transform="translate(0 -0.001)"/><path class="b" d="M26.972,89.992a2.033,2.033,0,0,0-1.994-1.717h-.526l-8.624,5.749V88.275H11.172v5.749L2.548,88.275H2.022A2.033,2.033,0,0,0,.028,89.993L7.4,94.907H0v4.737H7.4L.028,104.557a2.033,2.033,0,0,0,1.994,1.717h.526l8.624-5.749v5.749h4.655v-5.749l8.624,5.749h.526a2.033,2.033,0,0,0,1.994-1.717L19.6,99.643H27V94.907H19.6Z"/><g transform="translate(0 88.275)"><path class="c" d="M14.9,88.276H12.1v7.579H0V98.7H12.1v7.579H14.9V98.7H27V95.855H14.9Z" transform="translate(0 -88.276)"/><path class="c" d="M10.045,306.525l9.839-6.387h-1.71l-8.95,5.81A2.024,2.024,0,0,0,10.045,306.525Z" transform="translate(-8.738 -288.655)"/><path class="c" d="M315.67,300.138h-1.71l9.53,6.186a2.031,2.031,0,0,0,.648-.69Z" transform="translate(-297.404 -288.655)"/><path class="c" d="M4.049,96.561l8.318,5.4h1.71L4.652,95.842A2.03,2.03,0,0,0,4.049,96.561Z" transform="translate(-3.835 -95.443)"/><path class="c" d="M301.848,97.02l8.967-5.821a2.025,2.025,0,0,0-.828-.573l-9.849,6.393Z" transform="translate(-284.31 -90.503)"/></g></g></svg>