<svg xmlns="http://www.w3.org/2000/svg" width="16" height="16" viewBox="0 0 24 24">
  <path fill="#515366" fill-rule="evenodd"
        d="M22.758 4.01H.978A.978.978 0 0 0 0 4.988V18.3c0 .54.438.978.978.978h21.78c.54 0 .978-.438.978-.978V4.988a.978.978 0 0 0-.978-.978zm-21.78.768h21.78a.21.21 0 0 1 .2.149l-11.09 6.927L.778 4.927a.21.21 0 0 1 .2-.149zm-.21 1.024l7.977 4.982-7.977 6.328V5.802zm22.2 12.493a.21.21 0 0 1-.21.21H.978a.21.21 0 0 1-.21-.21v-.205l8.668-6.85 2.227 1.392a.384.384 0 0 0 .41 0L14.3 11.24l8.668 6.85v.205zm0-1.183l-7.997-6.308 7.997-4.956v11.264z"/>
</svg>
