<svg xmlns="http://www.w3.org/2000/svg" width="24" height="24" viewBox="0 0 24 24">
    <g fill="none" fill-rule="evenodd">
        <g>
            <g>
                <path d="M0 0H24V24H0z" transform="translate(-16 -31) translate(16 31)"/>
                <g fill="#343434" fill-rule="nonzero">
                    <path d="M15.172.75c.457 0 .828.336.828.75 0 .38-.311.693-.715.743l-.113.007H.828C.37 2.25 0 1.914 0 1.5 0 1.12.311.807.715.757L.828.75h14.344zM15.172 5.75c.457 0 .828.336.828.75 0 .38-.311.693-.715.743l-.113.007H.828C.37 7.25 0 6.914 0 6.5c0-.38.311-.693.715-.743l.113-.007h14.344zM15.172 10.75c.457 0 .828.336.828.75 0 .38-.311.693-.715.743l-.113.007H.828C.37 12.25 0 11.914 0 11.5c0-.38.311-.693.715-.743l.113-.007h14.344z" transform="translate(-16 -31) translate(16 31) translate(4 6)"/>
                </g>
            </g>
        </g>
    </g>
</svg>
