<svg width="6px" height="9px" viewBox="0 0 6 9" version="1.1" xmlns="http://www.w3.org/2000/svg" xmlns:xlink="http://www.w3.org/1999/xlink">
    <title>Path 10</title>
    <g id="მთავარი-გვერდი" stroke="none" stroke-width="1" fill="none" fill-rule="evenodd">
        <g id="მთავარი-გვერდი-/-restyle-v2" transform="translate(-1031.000000, -888.000000)" fill="#4563FF">
            <g id="Group-39" transform="translate(254.000000, 445.000000)">
                <g id="Group-31" transform="translate(0.000000, 56.000000)">
                    <g id="lines" transform="translate(0.000000, 1.000000)">
                        <g id="Group-49" transform="translate(689.000000, 365.000000)">
                            <g id="Group-2" transform="translate(89.500000, 25.500000) scale(-1, 1) translate(-89.500000, -25.500000) translate(85.000000, 21.000000)">
                                <path d="M6.92433262,1.29441738 C7.35580508,1.29441738 7.70558262,1.64419492 7.70558262,2.07566738 C7.70558262,2.47632038 7.40398872,2.80653235 7.01544287,2.85166134 L6.92433262,2.85691738 L3.01758208,2.85691738 L3.01808262,6.76316738 C3.01808262,7.16382038 2.71648872,7.49403235 2.32794287,7.53916134 L2.23683262,7.54441738 C1.83617962,7.54441738 1.50596765,7.24282348 1.46083866,6.85427764 L1.45558262,6.76316738 L1.45558262,2.07566738 C1.45558262,1.67501438 1.75717652,1.34480241 2.14572236,1.29967342 L2.23683262,1.29441738 L6.92433262,1.29441738 Z" id="Path-10" transform="translate(4.580583, 4.419417) rotate(-45.000000) translate(-4.580583, -4.419417) "></path>
                            </g>
                        </g>
                    </g>
                </g>
            </g>
        </g>
    </g>
</svg>