<svg width="24px" height="24px" viewBox="0 0 24 24" version="1.1" xmlns="http://www.w3.org/2000/svg"
     class="icon icon-location">
  <g stroke="none" stroke-width="1" fill="none" fill-rule="evenodd">
    <g id="Group-13">
      <rect id="Rectangle-Copy-11" x="0" y="0" width="24" height="24"></rect>
    </g>
    <g id="shop" transform="translate(4.000000, 6.000000)" fill="#888ea8" fill-rule="nonzero">
      <path
        d="M15.264625,12.5282188 L14.998,12.5282188 L14.998,5.575 C15.6000625,5.18759375 16,4.5120625 16,3.7444375 C16,3.70365625 15.9893437,3.6635625 15.969125,3.62815625 L14.1093438,0.37353125 C13.9787188,0.145 13.7340625,0.003 13.4708438,0.003 L2.52915625,0.003 C2.2659375,0.003 2.02128125,0.14496875 1.89065625,0.37353125 L0.030875,3.62815625 C0.01065625,3.6635625 0,3.7036875 0,3.7444375 C0,4.5120625 0.3999375,5.18759375 1.002,5.575 L1.002,12.5282188 L0.735375,12.5282188 C0.6059375,12.5282188 0.501,12.6331563 0.501,12.7625938 C0.501,12.8920313 0.6059375,12.9969688 0.735375,12.9969688 L15.264625,12.9969688 C15.3940937,12.9969688 15.499,12.8920313 15.499,12.7625938 C15.499,12.6331563 15.3940625,12.5282188 15.264625,12.5282188 Z M0.48490625,3.9788125 L1.23628125,3.9788125 C1.36571875,3.9788125 1.47065625,3.873875 1.47065625,3.7444375 C1.47065625,3.615 1.36571875,3.5100625 1.23628125,3.5100625 L0.63825,3.5100625 L2.29765625,0.60609375 C2.34503125,0.52321875 2.43371875,0.47175 2.52915625,0.47175 L13.4708437,0.47175 C13.5662812,0.47175 13.655,0.52321875 13.7023437,0.60609375 L15.3617187,3.5100625 L14.7635625,3.5100625 C14.6340937,3.5100625 14.5291875,3.615 14.5291875,3.7444375 C14.5291875,3.873875 14.6340937,3.9788125 14.7635625,3.9788125 L15.5150625,3.9788125 C15.4004687,4.8095625 14.6859375,5.45146875 13.8241875,5.45146875 C12.9624687,5.45146875 12.2482812,4.8095 12.1336562,3.9788125 L13.7616562,3.9788125 C13.891125,3.9788125 13.9960312,3.873875 13.9960312,3.7444375 C13.9960312,3.615 13.891125,3.5100625 13.7616562,3.5100625 L2.23846875,3.5100625 C2.10903125,3.5100625 2.00409375,3.615 2.00409375,3.7444375 C2.00409375,3.873875 2.10903125,3.9788125 2.23846875,3.9788125 L3.8663125,3.9788125 C3.7516875,4.8095 3.03746875,5.45146875 2.17578125,5.45146875 C1.31403125,5.45146875 0.5995,4.8095625 0.48490625,3.9788125 Z M11.6319375,3.9788125 C11.5173125,4.8095 10.8030937,5.45146875 9.94140625,5.45146875 C9.0796875,5.45146875 8.3655,4.8095 8.250875,3.9788125 L11.6319375,3.9788125 Z M7.749125,3.9788125 C7.6345,4.8095 6.92028125,5.45146875 6.05859375,5.45146875 C5.19690625,5.45146875 4.4826875,4.8095 4.3680625,3.9788125 L7.749125,3.9788125 Z M13.2766875,12.52825 L10.7394063,12.52825 L10.7394063,11.7444687 L13.2766875,11.7444687 L13.2766875,12.52825 Z M13.2766875,11.2757187 L10.7394063,11.2757187 L10.7394063,6.984875 L13.2766875,6.984875 L13.2766875,11.2757187 Z M14.52925,12.52825 L13.7454688,12.52825 L13.7454688,6.7505 C13.7454688,6.6210625 13.6405625,6.516125 13.5110938,6.516125 L10.5050625,6.516125 C10.3755938,6.516125 10.2706875,6.6210625 10.2706875,6.7505 L10.2706875,12.52825 L1.47075,12.52825 L1.47075,5.8023125 C1.69203125,5.87834375 1.92903125,5.92021875 2.17578125,5.92021875 C3.0225,5.92021875 3.75778125,5.43409375 4.1171875,4.72625 C4.47659375,5.4340625 5.211875,5.92021875 6.05859375,5.92021875 C6.9053125,5.92021875 7.64059375,5.43409375 8,4.72625 C8.35940625,5.4340625 9.0946875,5.92021875 9.94140625,5.92021875 C10.788125,5.92021875 11.5234063,5.43409375 11.8828125,4.72625 C12.2422187,5.4340625 12.9775,5.92021875 13.8242188,5.92021875 C14.0709688,5.92021875 14.3079688,5.87834375 14.52925,5.80234375 L14.52925,12.52825 Z"
        id="Shape"></path>
      <path
        d="M9.25253125,6.516125 L2.48890625,6.516125 C2.35946875,6.516125 2.25453125,6.6210625 2.25453125,6.7505 L2.25453125,11.5100937 C2.25453125,11.6395312 2.35946875,11.7444687 2.48890625,11.7444687 L9.25253125,11.7444687 C9.382,11.7444687 9.48690625,11.6395312 9.48690625,11.5100937 L9.48690625,6.7505 C9.48690625,6.62103125 9.382,6.516125 9.25253125,6.516125 Z M9.01815625,11.2757187 L2.72328125,11.2757187 L2.72328125,6.984875 L9.01815625,6.984875 L9.01815625,11.2757187 Z"
        id="Shape"></path>
    </g>
  </g>
</svg>
