<svg xmlns="http://www.w3.org/2000/svg" width="24" height="24" viewBox="0 0 24 24">
    <g fill="none" fill-rule="evenodd">
        <g fill="#343434">
            <g>
                <g>
                    <g>
                        <path fill-rule="nonzero" d="M15.172 12.75c.457 0 .828.336.828.75 0 .38-.311.693-.715.743l-.113.007H9.828c-.457 0-.828-.336-.828-.75 0-.38.311-.693.715-.743l.113-.007h5.344zM15.172 9.75c.457 0 .828.336.828.75 0 .38-.311.693-.715.743l-.113.007H9.828c-.457 0-.828-.336-.828-.75 0-.38.311-.693.715-.743l.113-.007h5.344zM12.5 0c.33 0 .601.311.644.715l.006.113V2.85h2.022c.457 0 .828.291.828.65 0 .33-.311.601-.715.644l-.113.006H13.15v2.022c0 .457-.291.828-.65.828-.33 0-.601-.311-.644-.715l-.006-.113V4.15H9.828C9.37 4.15 9 3.859 9 3.5c0-.33.311-.601.715-.644l.113-.006h2.022V.828c0-.457.291-.828.65-.828z" transform="translate(-16 -496) translate(0 488) translate(16 8) translate(4 4)"/>
                        <g>
                            <path d="M2 0h3c1.105 0 2 .895 2 2v3c0 1.105-.895 2-2 2H2C.895 7 0 6.105 0 5V2C0 .895.895 0 2 0zm.35 1.35h2.3c.552 0 1 .448 1 1v2.3c0 .552-.448 1-1 1h-2.3c-.552 0-1-.448-1-1v-2.3c0-.552.448-1 1-1z" transform="translate(-16 -496) translate(0 488) translate(16 8) translate(4 4) translate(.5)"/>
                        </g>
                        <g>
                            <path d="M2 0h3c1.105 0 2 .895 2 2v3c0 1.105-.895 2-2 2H2C.895 7 0 6.105 0 5V2C0 .895.895 0 2 0zm.35 1.35h2.3c.552 0 1 .448 1 1v2.3c0 .552-.448 1-1 1h-2.3c-.552 0-1-.448-1-1v-2.3c0-.552.448-1 1-1z" transform="translate(-16 -496) translate(0 488) translate(16 8) translate(4 4) matrix(1 0 0 -1 .5 16)"/>
                        </g>
                    </g>
                </g>
            </g>
        </g>
    </g>
</svg>
