<svg xmlns="http://www.w3.org/2000/svg" width="24" height="24" viewBox="0 0 24 24">
    <g fill="none" fill-rule="evenodd">
        <g>
            <g>
                <g>
                    <g>
                        <path d="M0 0H24V24H0z" transform="translate(-425 -116) translate(230 88) translate(175 19) translate(20 9)"/>
                        <g>
                            <g>
                                <path stroke="#343434" stroke-dasharray="18 314" stroke-linecap="round" stroke-width="1.5" d="M14.962 9.732c.404-3.845-2.385-7.29-6.23-7.694-3.845-.404-7.29 2.385-7.694 6.23-.404 3.845 2.385 7.29 6.23 7.694 3.845.404 7.29-2.385 7.694-6.23z" transform="translate(-425 -116) translate(230 88) translate(175 19) translate(20 9) matrix(-1 0 0 1 20 3)"/>
                                <path fill="#343434" fill-rule="nonzero" d="M5.687.85c.327 0 .597.24.643.554l.007.096v4c0 .359-.29.65-.65.65-.326 0-.596-.24-.642-.554L5.037 5.5V2.15h-3.35c-.326 0-.596-.24-.642-.554L1.037 1.5c0-.326.241-.597.554-.643L1.687.85h4z" transform="translate(-425 -116) translate(230 88) translate(175 19) translate(20 9) matrix(-1 0 0 1 20 3) matrix(0 1 1 0 .187 -.187)"/>
                            </g>
                            <g>
                                <path stroke="#343434" stroke-dasharray="18 314" stroke-linecap="round" stroke-width="1.6" d="M14.962 9.732c.404-3.845-2.385-7.29-6.23-7.694-3.845-.404-7.29 2.385-7.694 6.23-.404 3.845 2.385 7.29 6.23 7.694 3.845.404 7.29-2.385 7.694-6.23z" transform="translate(-425 -116) translate(230 88) translate(175 19) translate(20 9) matrix(-1 0 0 1 20 3) rotate(180 8 9)"/>
                                <path fill="#343434" fill-rule="nonzero" d="M5.687.85c.327 0 .597.24.643.554l.007.096v4c0 .359-.29.65-.65.65-.326 0-.596-.24-.642-.554L5.037 5.5V2.15h-3.35c-.326 0-.596-.24-.642-.554L1.037 1.5c0-.326.241-.597.554-.643L1.687.85h4z" transform="translate(-425 -116) translate(230 88) translate(175 19) translate(20 9) matrix(-1 0 0 1 20 3) rotate(180 8 9) matrix(0 1 1 0 .187 -.187)"/>
                            </g>
                        </g>
                    </g>
                </g>
            </g>
        </g>
    </g>
</svg>
