<svg xmlns="http://www.w3.org/2000/svg" width="24" height="24" viewBox="0 0 24 24">
    <g fill="none" fill-rule="evenodd" opacity=".6">
        <g stroke="#FFF">
            <g>
                <g>
                    <g fill="#FFF" fill-rule="nonzero" stroke-width=".3">
                        <path d="M14.865 2.91c-2.21-.088-4.334-.932-5.963-2.386-.44-.386-1.12-.395-1.57 0C5.672 2.007 3.548 2.85 1.396 2.909c-.64.03-1.135.524-1.135 1.164v8.756c0 .175.03.32.087.466 1.222 2.734 3.578 4.77 6.487 5.585 1.516.413 1.056.45 2.59-.03 2.909-.785 5.265-2.821 6.487-5.585.058-.145.087-.32.087-.465V4.073c0-.64-.495-1.135-1.135-1.164zm-.029 9.89c-1.076 2.444-3.17 4.247-5.73 4.945l-.96.291-.96-.261c-2.56-.728-4.655-2.531-5.731-4.946V4.073c2.472-.058 4.829-1.018 6.69-2.677 1.862 1.659 4.219 2.59 6.691 2.677V12.8z" transform="translate(-16 -650) translate(0 642) translate(16 8) translate(4 2.5)"/>
                    </g>
                    <path stroke-width="1.2" d="M13.379 10.582L16.145 10.979 14.145 12.928 14.612 15.671 12.145 14.349 9.679 15.638 10.145 12.895 8.145 10.946 10.912 10.549 12.145 8.071z" transform="translate(-16 -650) translate(0 642) translate(16 8)"/>
                </g>
            </g>
        </g>
    </g>
</svg>
