<svg width="24px" height="24px" viewBox="0 0 24 24" version="1.1" xmlns="http://www.w3.org/2000/svg" xmlns:xlink="http://www.w3.org/1999/xlink">
    <g  stroke="none" stroke-width="1" fill="none" fill-rule="evenodd">
        <g   transform="translate(-418.000000, -116.000000)">
            <g   transform="translate(230.000000, 88.000000)">
                <g   transform="translate(168.000000, 19.000000)">
                    <g  transform="translate(20.000000, 9.000000)">
                        <rect  x="0" y="0" width="24" height="24"></rect>
                        <g  transform="translate(5.000000, 2.000000)" fill="#343434" fill-rule="nonzero">
                            <g >
                                <path d="M13.323077,3.75384615 L9.692308,0.153846154 C9.66153877,0.123076923 9.63076946,0.0923076923 9.569231,0.0615384615 C9.53846177,0.0307692308 9.50769223,0.0307692308 9.476923,0.0307692308 C9.476923,0.0307692308 9.47692323,0.0307692308 9.446154,0.0307692308 C9.41538477,0 9.38461523,0 9.353846,0 C9.32307677,0 9.26153823,0 9.230769,0 L5.09230769,0 C4.07692308,0 3.24615385,0.830769231 3.24615385,1.84615385 L3.24615385,4.52307692 L1.846154,4.52307692 C0.830769385,4.52307692 0,5.35384615 0,6.36923077 L0,16.815385 C0,17.8307696 0.830769385,18.661538 1.846154,18.661538 L8.56923077,18.661538 C9.58461538,18.661538 10.4153846,17.8307696 10.4153846,16.815385 L10.4153846,15.1384615 L11.815385,15.1384615 C12.8307696,15.1384615 13.661538,14.3076923 13.661538,13.2923077 L13.661538,4.30769231 C13.6307688,4.06153846 13.5076924,3.87692308 13.323077,3.75384615 Z M9.876923,2.06153846 L11.5076922,3.69230769 L9.876923,3.69230769 L9.876923,2.06153846 Z M8.56923077,17.430769 L1.846154,17.430769 C1.50769246,17.430769 1.230769,17.1538465 1.230769,16.815385 L1.230769,6.33846154 C1.230769,6 1.50769246,5.72307692 1.846154,5.72307692 L3.24615385,5.72307692 L3.24615385,13.3230769 C3.24615385,14.3384615 4.07692308,15.1692308 5.09230769,15.1692308 L9.18461538,15.1692308 L9.18461538,16.815385 C9.18461538,17.1538465 8.90769231,17.430769 8.56923077,17.430769 Z M12.4,13.2923077 C12.4,13.6307692 12.1230765,13.9076923 11.784615,13.9076923 L5.09230769,13.9076923 C4.75384615,13.9076923 4.47692308,13.6307692 4.47692308,13.2923077 L4.47692308,1.81538462 C4.47692308,1.47692308 4.75384615,1.2 5.09230769,1.2 L8.676923,1.2 L8.676923,4.30769231 C8.676923,4.64615385 8.95384646,4.92307692 9.292308,4.92307692 L12.430769,4.92307692 L12.430769,13.2923077 L12.4,13.2923077 Z" id="Shape" stroke="#343434" stroke-width="0.1"></path>
                                <path d="M12,7.5 C12,7.885 11.6687117,8.2 11.2638037,8.2 L6.73619632,8.2 C6.33128834,8.2 6,7.885 6,7.5 C6,7.115 6.33128834,6.8 6.73619632,6.8 L11.2638037,6.8 C11.6687117,6.8 12,7.115 12,7.5 Z" id="Path"></path>
                                <path d="M10,10.5 C10,10.885 9.63290062,11.2 9.18422359,11.2 L6.81577641,11.2 C6.36709938,11.2 6,10.885 6,10.5 C6,10.29 6.08157764,10.115 6.24473292,9.975 C6.4078882,9.87 6.57104349,9.8 6.81577641,9.8 L9.18422359,9.8 C9.63290062,9.8 10,10.115 10,10.5 Z" id="Path"></path>
                            </g>
                        </g>
                    </g>
                </g>
            </g>
        </g>
    </g>
</svg>