<svg xmlns="http://www.w3.org/2000/svg" width="24" height="24" viewBox="0 0 24 24" class="icon icon-hide">
    <g fill="none" fill-rule="evenodd">
        <g>
            <g>
                <g>
                    <g>
                        <g>
                            <path d="M0 0h24v24H0V0zm0 0h24v24H0V0zm0 0h24v24H0V0zm0 0h24v24H0V0z" transform="translate(-1778 -441) translate(1595 169) translate(183 266) translate(0 6)"/>
                        </g>
                        <g fill="#343434">
                            <path fill-rule="nonzero" d="M4.186 2.284l2.232 2.231c-.679.668-1.1 1.597-1.1 2.621 0 2.03 1.653 3.682 3.682 3.682 1.024 0 1.953-.421 2.621-1.1l2.242 2.242c-1.429.835-3.09 1.313-4.863 1.313-4.09 0-7.585-2.545-9-6.137.809-2.052 2.296-3.763 4.186-4.852zM9 1c4.09 0 7.585 2.545 9 6.136-.608 1.542-1.598 2.89-2.854 3.928l-2.68-2.684c.14-.389.216-.807.216-1.244 0-2.029-1.653-3.681-3.682-3.681-.435 0-.854.076-1.242.215L5.676 1.587C6.713 1.207 7.832 1 9 1zM7.573 5.671l2.892 2.892c-.371.382-.89.619-1.465.619-1.13 0-2.045-.917-2.045-2.046 0-.574.237-1.093.618-1.465zm3.464 1.28L9.187 5.1c.98.09 1.762.871 1.85 1.852z" transform="translate(-1778 -441) translate(1595 169) translate(183 266) translate(0 6) translate(3 5)"/>
                            <path d="M1.28 1.097L14.981 14.798 16.07 13.708 2.37 0z" transform="translate(-1778 -441) translate(1595 169) translate(183 266) translate(0 6) translate(3 5)"/>
                        </g>
                    </g>
                </g>
            </g>
        </g>
    </g>
</svg>
