<svg xmlns="http://www.w3.org/2000/svg" width="24" height="24" viewBox="0 0 24 24">
    <g fill="none" fill-rule="evenodd" opacity=".6">
        <g>
            <g>
                <g transform="translate(-16 -570) translate(0 562) translate(16 8)">
                    <g>
                        <path d="M0 0L24 0 24 24 0 24z"/>
                        <g fill="#FFF" fill-rule="nonzero" stroke="#FFF">
                            <g>
                                <path stroke-width=".7" d="M16.751 3.968h-2.457c-.057-.13-.099-.267-.117-.415-.099-.843.888-2.34.898-2.35.14-.153.13-.39-.022-.53s-.39-.13-.53.022c-.041.044-1.23 1.757-1.09 2.945.013.116.038.224.067.328h-2.895c-.58 0-1.383.331-1.795.74l-8.412 8.35c-.413.41-.413 1.072-.003 1.481l6.833 6.834c.206.205.474.307.743.307.268 0 .537-.103.742-.308l8.346-8.344c.41-.411.743-1.214.743-1.793V5.018c0-.58-.47-1.05-1.05-1.05zm-.222 8.53l-8.347 8.344c-.076.077-.165.088-.211.088-.047 0-.136-.011-.212-.087L.925 14.01c-.076-.076-.087-.164-.087-.21 0-.045.012-.133.088-.209l8.41-8.349c.273-.269.889-.523 1.27-.523l3.033.071c.04.063.431.687.284 1.347-.109.49-.555.993-.525 1.036.177.25.614 1.33.749.36.02-.153.633-.62.677-1.277.048-.725-.271-1.483-.308-1.537h2.236c.165 0 .3.135.3.3v6.217c0 .38-.255.993-.523 1.262z" transform="translate(2)"/>
                                <path stroke-width=".65" d="M5.78 13.016c-.146-.147-.383-.147-.53 0-.146.146-.146.384 0 .53l3.062 3.062c.073.073.17.11.265.11.096 0 .192-.037.265-.11.147-.147.147-.384 0-.53l-3.061-3.062zM7.93 10.87c-.146-.147-.384-.147-.53 0-.147.146-.147.384 0 .53l3.061 3.061c.073.074.17.11.265.11.096 0 .192-.036.265-.11.147-.146.147-.383 0-.53L7.93 10.87z" transform="translate(2)"/>
                            </g>
                        </g>
                    </g>
                    <circle cx="15" cy="9.5" r="2" stroke="#FFF" stroke-width="1.3"/>
                </g>
            </g>
        </g>
    </g>
</svg>
