<svg xmlns="http://www.w3.org/2000/svg" width="24" height="24" viewBox="0 0 24 24">
    <path fill="#343434" fill-rule="evenodd" d="M16.5 8.5c.276 0 .5.224.5.5v8.03c0 1.364-1.113 2.47-2.487 2.47H9.487C8.113 19.5 7 18.394 7 17.03V9c0-.276.224-.5.5-.5h9zm-2.655-4.2c.152 0 .296.07.391.189l.677.853c.095.12.24.189.392.189H17.5c.276 0 .5.224.5.5V6.8c0 .276-.224.5-.5.5h-11c-.276 0-.5-.224-.5-.5v-.654c0-.276.224-.5.5-.5h1.832c.146 0 .285-.064.38-.174l.855-.997c.095-.111.233-.175.38-.175h3.898z"/>
</svg>
