<svg xmlns="http://www.w3.org/2000/svg" width="24" height="24" viewBox="0 0 24 24" class="icon icon-sidebar">
  <g fill-rule="evenodd">
    <path
      d="M20.43 13.58a.11.11 0 0 1-.08-.1v-8A1.45 1.45 0 0 0 18.9 4H7.11c-.8 0-1.45.65-1.45 1.45v8a.12.12 0 0 1-.07.1 1 1 0 0 0-.59.95v4.38a1 1 0 0 0 1 1h14a1 1 0 0 0 1-1V14.5a1 1 0 0 0-.57-.92zM6.37 5.45c0-.41.33-.745.74-.75H18.9a.76.76 0 0 1 .75.75v8H6.37v-8zm9 8.74v.32a.36.36 0 0 1-.36.36H11a.36.36 0 0 1-.36-.36v-.32h4.73zm5 4.69a.31.31 0 0 1-.31.31H6a.31.31 0 0 1-.31-.31V14.5a.31.31 0 0 1 .31-.31h4v.32a1.05 1.05 0 0 0 1 1.06h4a1.06 1.06 0 0 0 1-1.06v-.32h4a.31.31 0 0 1 .31.31l.06 4.38z"/>
    <rect width="6" height="1" x="8" y="6" rx=".5"/>
    <rect width="4" height="1" x="8" y="8" rx=".5"/>
  </g>
</svg>
