<svg xmlns="http://www.w3.org/2000/svg" width="24" height="24" viewBox="0 0 24 24">
    <path fill="#343434" fill-rule="evenodd" d="M8.767 4.8c-2.017 0-3.664 1.586-3.762 3.58L5 8.566v7.442c0 2.018 1.586 3.665 3.58 3.763l.187.005h1.86c.54 0 .978-.438.978-.977 0-.503-.381-.918-.87-.971l-.107-.006h-1.86c-.957 0-1.74-.74-1.81-1.678l-.005-.136V8.567c0-.956.74-1.74 1.68-1.809l.134-.005h1.86c.54 0 .978-.437.978-.976 0-.504-.381-.918-.87-.971l-.107-.006h-1.86zm5.106 3.898l-.094.065-.088.077-2.79 2.79c-.336.336-.362.864-.078 1.229l.077.087 2.791 2.79c.363.364.952.364 1.316 0 .335-.334.36-.862.077-1.227l-.077-.088-1.202-1.202h4.265c.514 0 .93-.417.93-.93 0-.478-.36-.87-.822-.925l-.108-.006h-4.265l1.202-1.203c.335-.335.36-.863.077-1.227l-.077-.088c-.308-.307-.777-.355-1.134-.142z"/>
</svg>
