<svg xmlns="http://www.w3.org/2000/svg" width="24" height="24" viewBox="0 0 24 24">
    <g fill="none" fill-rule="evenodd">
        <g fill="#343434">
            <g>
                <g>
                    <g>
                        <g>
                            <path d="M5.513 6.52c.293.294.293.769 0 1.061l-2.66 2.66h9.49c.415 0 .75.335.75.75 0 .414-.335.75-.75.75H2.896l2.618 2.619c.293.293.293.767 0 1.06-.293.293-.767.293-1.06 0l-3.89-3.889c-.154-.154-.227-.359-.218-.56-.009-.202.064-.407.219-.561l3.889-3.89c.293-.292.767-.292 1.06 0z" transform="translate(-195 -28) translate(175 19) translate(20 9) matrix(1 0 0 -1 5 22) translate(0 .8) matrix(0 1 1 0 -4.461 4.461)"/>
                            <path fill-rule="nonzero" d="M12.172.95c.457 0 .828.336.828.75 0 .38-.311.693-.715.743l-.113.007H.828C.37 2.45 0 2.114 0 1.7c0-.38.311-.693.715-.743L.828.95h11.344z" transform="translate(-195 -28) translate(175 19) translate(20 9) matrix(1 0 0 -1 5 22) translate(0 .8)"/>
                        </g>
                    </g>
                </g>
            </g>
        </g>
    </g>
</svg>
