<svg xmlns="http://www.w3.org/2000/svg" width="24" height="24" viewBox="0 0 24 24">
    <g fill="none" fill-rule="evenodd">
        <g>
            <g>
                <g>
                    <path d="M0 0L24 0 24 24 0 24z" transform="translate(-16 -656) translate(0 648) translate(16 8)"/>
                    <g>
                        <path class="stroke-change" fill-rule="nonzero" stroke="#343434" stroke-width="1.4" d="M8 0C3.584 0 0 3.584 0 8s3.584 8 8 8 8-3.584 8-8-3.584-8-8-8z" transform="translate(-16 -656) translate(0 648) translate(16 8) translate(4 4)"/>
                        <g class="fill-change" fill="#343434">
                            <path d="M2.25 9.5L3.75 9.5 3.75 8 2.25 8zM3 0C1.343 0 0 1.343 0 3h1.5c0-.825.675-1.5 1.5-1.5s1.5.675 1.5 1.5c0 1.5-2.25 1.313-2.25 3.75h1.5C3.75 5.062 6 4.875 6 3c0-1.657-1.343-3-3-3z" transform="translate(-16 -656) translate(0 648) translate(16 8) translate(4 4) translate(5 3)"/>
                        </g>
                    </g>
                </g>
            </g>
        </g>
    </g>
</svg>
