<svg width="42px" height="29px" viewBox="0 0 42 29" version="1.1" xmlns="http://www.w3.org/2000/svg" xmlns:xlink="http://www.w3.org/1999/xlink">
    <g   stroke="none" stroke-width="1" fill="none" fill-rule="evenodd">
        <g  transform="translate(-1052.000000, -579.000000)" fill="#343434" fill-rule="nonzero">
            <path d="M1085.01282,592.333333 C1088.5177,592.333333 1091.35897,595.174603 1091.35897,598.679487 C1091.35897,600.014826 1090.94655,601.253837 1090.24212,602.276089 L1093.13074,605.165626 L1093.22673,605.274327 C1093.57868,605.726971 1093.54669,606.381468 1093.13074,606.797411 C1092.71233,607.21583 1092.0525,607.245717 1091.5996,606.887072 L1091.49896,606.797411 L1088.60942,603.908789 C1087.58717,604.613213 1086.34816,605.025641 1085.01282,605.025641 C1081.50794,605.025641 1078.66667,602.184371 1078.66667,598.679487 C1078.66667,595.174603 1081.50794,592.333333 1085.01282,592.333333 Z M1087.2381,579 C1089.86802,579 1092,581.131977 1092,583.761905 L1092,590.428571 L1089.904,590.428 L1089.90476,583.761905 C1089.90476,582.343692 1088.79765,581.184058 1087.40054,581.100105 L1087.2381,581.095238 L1056.7619,581.095238 C1055.34369,581.095238 1054.18406,582.202346 1054.1001,583.599459 L1054.09524,583.761905 L1054.09524,600.904762 C1054.09524,602.322975 1055.20235,603.482608 1056.59946,603.566562 L1056.7619,603.571429 L1076.761,603.571 L1076.7619,605.666667 L1056.7619,605.666667 C1054.13198,605.666667 1052,603.534689 1052,600.904762 L1052,583.761905 C1052,581.131977 1054.13198,579 1056.7619,579 L1087.2381,579 Z M1085.01282,594.410256 C1082.65499,594.410256 1080.74359,596.321656 1080.74359,598.679487 C1080.74359,601.037318 1082.65499,602.948718 1085.01282,602.948718 C1087.37065,602.948718 1089.28205,601.037318 1089.28205,598.679487 C1089.28205,596.321656 1087.37065,594.410256 1085.01282,594.410256 Z M1067.66667,596 C1068.27155,596 1068.7619,596.490355 1068.7619,597.095238 C1068.7619,597.700121 1068.27155,598.190476 1067.66667,598.190476 L1057.85714,598.190476 C1057.25226,598.190476 1056.7619,597.700121 1056.7619,597.095238 C1056.7619,596.490355 1057.25226,596 1057.85714,596 L1067.66667,596 Z M1072.66667,591 C1073.27155,591 1073.7619,591.490355 1073.7619,592.095238 C1073.7619,592.700121 1073.27155,593.190476 1072.66667,593.190476 L1057.85714,593.190476 C1057.25226,593.190476 1056.7619,592.700121 1056.7619,592.095238 C1056.7619,591.490355 1057.25226,591 1057.85714,591 L1072.66667,591 Z M1084.66667,586 C1085.27155,586 1085.7619,586.490355 1085.7619,587.095238 C1085.7619,587.700121 1085.27155,588.190476 1084.66667,588.190476 L1057.85714,588.190476 C1057.25226,588.190476 1056.7619,587.700121 1056.7619,587.095238 C1056.7619,586.490355 1057.25226,586 1057.85714,586 L1084.66667,586 Z" id="Combined-Shape"></path>
        </g>
    </g>
</svg>