<svg xmlns="http://www.w3.org/2000/svg" width="24" height="24" viewBox="0 0 24 24">
    <g fill="none" fill-rule="evenodd" opacity=".6">
        <g>
            <g>
                <g>
                    <g>
                        <path fill="#FFF" fill-rule="nonzero" d="M19.337 1.327c.364 0 .663-.299.663-.664C20 .3 19.701 0 19.337 0H.663C.3 0 0 .299 0 .663c0 .365.299.664.663.664h.664v9.23H.663c-.364 0-.663.299-.663.664 0 .365.299.663.663.663h8.674v.627l-4.944 2.468c-.325.166-.457.564-.298.89.166.324.564.457.889.298l4.353-2.17v1.58c0 .364.298.663.663.663.365 0 .663-.299.663-.664v-1.579l4.346 2.176c.1.047.2.067.299.067.245 0 .478-.133.597-.365.166-.325.033-.723-.298-.89l-4.944-2.474v-.627h8.674c.364 0 .663-.298.663-.663 0-.365-.299-.664-.663-.664h-.664v-9.23h.664zM17.346 10.5H2.654V1.327h14.692V10.5z" transform="translate(-16 -290) translate(0 282) translate(16 8) translate(2 3)"/>
                        <path stroke="#FFF" stroke-width="1.3" d="M8.156 3.491l4.95 2.484L8.21 8.841l-.054-5.35z" transform="translate(-16 -290) translate(0 282) translate(16 8) translate(2 3)"/>
                    </g>
                </g>
            </g>
        </g>
    </g>
</svg>
