<svg xmlns="http://www.w3.org/2000/svg" width="24" height="24" viewBox="0 0 24 24">
    <g fill="none" fill-rule="evenodd">
        <g>
            <g>
                <g>
                    <path fill="#E7E7E7" d="M12 2C6.48 2 2 6.48 2 12s4.48 10 10 10 10-4.48 10-10S17.52 2 12 2z" transform="translate(-1229 -258) translate(1107 169) matrix(1 0 0 -1 122 113)"/>
                    <path fill="#343434" d="M12 7c.46 0 .833.373.833.833v3.333h3.334c.46 0 .833.374.833.834 0 .46-.373.833-.833.833h-3.334v3.334c0 .46-.373.833-.833.833-.46 0-.833-.373-.833-.833l-.001-3.334H7.833C7.373 12.833 7 12.46 7 12c0-.46.373-.833.833-.833l3.333-.001V7.833c0-.46.374-.833.834-.833z" transform="translate(-1229 -258) translate(1107 169) matrix(1 0 0 -1 122 113) rotate(45 12 12)"/>
                </g>
            </g>
        </g>
    </g>
</svg>
