<svg xmlns="http://www.w3.org/2000/svg" width="24" height="24" viewBox="0 0 24 24">
    <g fill="none" fill-rule="evenodd" opacity=".6">
        <g fill="#FFF" fill-rule="nonzero">
            <g>
                <g>
                    <path d="M17.38 3.5H7.525c-1.377 0-2.493 1.116-2.493 2.493v1.294H4.18c-.376 0-.68.305-.68.68 0 .376.304.68.68.68h.852v3.173H4.18c-.243 0-.467.13-.589.34-.121.21-.121.47 0 .68.122.21.346.34.589.34h.852v3.173H4.18c-.376 0-.68.304-.68.68 0 .375.304.68.68.68h.852v1.294c0 1.377 1.116 2.493 2.493 2.493h9.855c1.377 0 2.493-1.116 2.493-2.493V5.993c0-1.377-1.116-2.493-2.493-2.493zM7.525 20.14c-.3 0-.589-.12-.801-.332-.213-.212-.332-.5-.332-.801v-1.294h.907c.375 0 .68-.305.68-.68 0-.376-.305-.68-.68-.68h-.907V13.18h.907c.375 0 .68-.304.68-.68 0-.376-.305-.68-.68-.68h-.907V8.647h.907c.375 0 .68-.304.68-.68 0-.375-.305-.68-.68-.68h-.907V5.993c0-.626.507-1.133 1.133-1.133h1.61v15.28h-1.61zm10.988-1.133c0 .3-.12.589-.332.801-.213.213-.5.332-.801.332h-6.884V4.86h6.884c.625 0 1.133.507 1.133 1.133v13.014z" transform="translate(-16 -530) translate(0 522) translate(16 8)"/>
                </g>
            </g>
        </g>
    </g>
</svg>
