<svg xmlns="http://www.w3.org/2000/svg" width="24" height="24" viewBox="0 0 24 24">
    <g fill="none" fill-rule="evenodd" opacity=".6">
        <g fill="#FFF">
            <g>
                <g>
                    <g>
                        <path fill-rule="nonzero" stroke="#FFF" stroke-width=".4" d="M11.53 7.347c1.777 0 3.223-1.446 3.223-3.223S13.307.9 11.53.9 8.306 2.347 8.306 4.124c0 1.777 1.446 3.223 3.224 3.223zm0-5.44c1.222 0 2.216.994 2.216 2.217 0 1.222-.994 2.216-2.216 2.216-1.223 0-2.217-.994-2.217-2.216 0-1.223.994-2.217 2.217-2.217z" transform="translate(-16 -130) translate(0 122) translate(16 8) translate(.5 4)"/>
                        <g transform="translate(-16 -130) translate(0 122) translate(16 8) translate(.5 4) translate(.304 8.7)">
                            <path fill-rule="nonzero" stroke="#FFF" stroke-width=".4" d="M12.821.269H9.486c-2.083 0-3.778 1.694-3.778 3.778 0 .278.225.503.503.503s.503-.225.503-.503c0-1.529 1.244-2.772 2.772-2.772h3.335c1.528 0 2.771 1.243 2.771 2.772 0 .278.225.503.503.503.279 0 .503-.225.503-.503 0-2.084-1.694-3.778-3.777-3.778z"/>
                            <rect width="11.186" height="1.464" x="5.55" y="3.981" rx=".7"/>
                            <rect width="4.182" height="1.464" x="17.782" y="2.935" rx=".7"/>
                            <rect width="4.182" height="1.464" x=".48" y="2.935" rx=".7"/>
                            <path fill-rule="nonzero" stroke="#FFF" stroke-width=".4" d="M5.917.719c0-.278-.2-.503-.45-.503H3.284C1.854.216.69 1.517.69 3.116c0 .279.201.503.45.503s.45-.224.45-.503c0-1.044.76-1.894 1.694-1.894h2.183c.25 0 .45-.225.45-.503zM19.127.216h-2.183c-.25 0-.45.225-.45.503s.2.503.45.503h2.183c.934 0 1.694.85 1.694 1.894 0 .278.201.503.45.503s.45-.225.45-.503c0-1.599-1.164-2.9-2.594-2.9z"/>
                        </g>
                        <g fill-rule="nonzero" stroke="#FFF" stroke-width=".2">
                            <path d="M3.86 5.312c1.376 0 2.495-1.12 2.495-2.495S5.235.323 3.86.323 1.366 1.442 1.366 2.817c0 1.376 1.119 2.495 2.494 2.495zm0-3.983c.821 0 1.489.668 1.489 1.488 0 .821-.668 1.489-1.489 1.489-.82 0-1.488-.668-1.488-1.489 0-.82.668-1.488 1.488-1.488z" transform="translate(-16 -130) translate(0 122) translate(16 8) translate(.5 4) translate(.6 1.902)"/>
                        </g>
                        <g fill-rule="nonzero" stroke="#FFF" stroke-width=".3">
                            <path d="M2.809 5.312c1.375 0 2.494-1.12 2.494-2.495S4.183.323 2.809.323C1.433.323.314 1.442.314 2.817c0 1.376 1.119 2.495 2.495 2.495zm0-3.983c.82 0 1.488.668 1.488 1.488 0 .821-.668 1.489-1.488 1.489-.821 0-1.49-.668-1.49-1.489 0-.82.668-1.488 1.49-1.488z" transform="translate(-16 -130) translate(0 122) translate(16 8) translate(.5 4) translate(15.75 2.216)"/>
                        </g>
                    </g>
                </g>
            </g>
        </g>
    </g>
</svg>
