<svg xmlns="http://www.w3.org/2000/svg" width="24" height="24" viewBox="0 0 24 24">
    <g fill="none" fill-rule="evenodd">
        <g fill="#343434">
            <g>
                <g>
                    <g>
                        <path d="M7.42 5.03c.292.293.292.768 0 1.061L4.758 8.75h8.491c.414 0 .75.336.75.75s-.336.75-.75.75H4.801l2.618 2.62c.293.292.293.767 0 1.06-.292.293-.767.293-1.06 0l-3.89-3.89c-.154-.154-.227-.358-.218-.56-.009-.202.064-.406.219-.56l3.889-3.89c.293-.293.768-.293 1.06 0z" transform="translate(-418 -116) translate(230 88) translate(168 19) translate(20 9)"/>
                        <path d="M15.17 11.03c.292.293.292.768 0 1.061l-2.661 2.659H21c.414 0 .75.336.75.75s-.336.75-.75.75h-8.449l2.618 2.62c.293.292.293.767 0 1.06-.292.293-.767.293-1.06 0l-3.89-3.89c-.154-.154-.227-.358-.218-.56-.009-.202.064-.406.219-.56l3.889-3.89c.293-.293.768-.293 1.06 0z" transform="translate(-418 -116) translate(230 88) translate(168 19) translate(20 9) matrix(-1 0 0 1 31.75 0)"/>
                    </g>
                </g>
            </g>
        </g>
    </g>
</svg>
