<svg width="24px" height="24px" viewBox="0 0 24 24" version="1.1" xmlns="http://www.w3.org/2000/svg" xmlns:xlink="http://www.w3.org/1999/xlink">
    <title>Group 2</title>
    <g id="ადმინისტრირება/მაგიდები" stroke="none" stroke-width="1" fill="none" fill-rule="evenodd">
        <g id="მაგიდები-+-hover-state" transform="translate(-562.000000, -348.000000)">
            <g id="Group-10" transform="translate(230.000000, 88.000000)">
                <g id="Group-3" transform="translate(24.000000, 80.000000)">
                    <g id="Group-14" transform="translate(80.000000, 180.000000)">
                        <g id="Group-2" transform="translate(228.000000, 0.000000)">
                            <circle id="Oval" fill="#343434" cx="12" cy="12" r="11"></circle>
                            <g id="Icon/Close" fill="#FFFFFF">
                                <path d="M12,5 C12.5522847,5 13,5.44771525 13,6 L12.999,11 L18,11 C18.5522847,11 19,11.4477153 19,12 C19,12.5522847 18.5522847,13 18,13 L12.999,13 L13,18 C13,18.5522847 12.5522847,19 12,19 C11.4477153,19 11,18.5522847 11,18 L10.999,13 L6,13 C5.44771525,13 5,12.5522847 5,12 C5,11.4477153 5.44771525,11 6,11 L10.999,11 L11,6 C11,5.44771525 11.4477153,5 12,5 Z" id="Combined-Shape" transform="translate(12.000000, 12.000000) rotate(45.000000) translate(-12.000000, -12.000000) "></path>
                            </g>
                        </g>
                    </g>
                </g>
            </g>
        </g>
    </g>
</svg>