<svg xmlns="http://www.w3.org/2000/svg" width="24" height="24" viewBox="0 0 24 24">
    <g fill="none" fill-rule="evenodd" opacity=".6">
        <g fill="#FFF" fill-rule="nonzero">
            <g>
                <g>
                    <g>
                        <path d="M9.306 6.049c.199.51.624 1.55.959 2.051l.037.057c.283.433.812 1.24 2.466 1.24 1.653 0 2.182-.806 2.466-1.24l.038-.057c.334-.502.76-1.542.959-2.051.324-.165.546-.502.546-.89v-.803c0-.327-.158-.618-.402-.8v-.204c0-2.008-1.348-3.206-3.607-3.206-2.26 0-3.608 1.198-3.608 3.206v.21c-.242.184-.402.475-.402.794v.803c0 .388.223.725.548.89zm.643-1.532c.234-.08.402-.302.402-.563v-.602c0-1.338.814-2.016 2.417-2.016 1.604 0 2.417.678 2.417 2.016v.602c0 .262.169.483.402.563v.481c-.164.057-.3.184-.363.354-.161.43-.644 1.64-.942 2.088l-.043.065c-.216.33-.46.702-1.47.702-1.011 0-1.256-.373-1.471-.702l-.043-.065c-.298-.447-.78-1.659-.942-2.088-.064-.17-.199-.297-.364-.354v-.48zm9.896 8.242c-.146-.326-.324-.469-.493-.586-.503-.351-3.172-2.094-6.512-2.128l-.045-.002h-.024c-.04 0-.054 0-.075.002-3.34.034-6.008 1.777-6.51 2.127-.17.117-.346.26-.495.587-.111.247-.12.587-.119.715v2.452c0 .329.267.595.596.595h13.201c.33 0 .596-.266.596-.595V13.48c.001-.134-.008-.475-.12-.721zm-1.07 2.572H6.762v-1.863c0-.072.009-.197.013-.22.025-.054.025-.054.09-.099.278-.194 2.808-1.896 5.88-1.914h.045c3.07.018 5.602 1.72 5.88 1.914.064.045.064.045.081.08.012.04.023.156.022.245v1.857zM7.891 7.003c0-.328-.266-.595-.595-.595H4.559V3.67c0-.329-.267-.595-.595-.595-.33 0-.596.266-.596.595v2.738H.63c-.329 0-.595.267-.595.595 0 .33.266.596.595.596h2.738v2.738c0 .328.267.595.596.595.328 0 .595-.267.595-.595V7.599h2.738c.329 0 .595-.267.595-.596z" transform="translate(-16 -250) translate(0 242) translate(16 8) matrix(-1 0 0 1 23.3 3.5)"/>
                    </g>
                </g>
            </g>
        </g>
    </g>
</svg>
