<svg xmlns="http://www.w3.org/2000/svg" width="24" height="24" viewBox="0 0 24 24">
    <g fill="#343434" fill-rule="evenodd">
        <path d="M21 12l-.003.02C20.923 12.43 19.629 19 12 19c-1.495 0-2.746-.252-3.793-.66l1.688-1.689c.669.325 1.418.507 2.21.507 1.353 0 2.651-.544 3.608-1.51.958-.968 1.495-2.28 1.495-3.648 0-.78-.171-1.52-.479-2.184l2.092-2.09C20.629 9.69 21 12 21 12zm-9-7c2.287 0 4.004.59 5.29 1.428l-1.754 1.754c-.907-.833-2.11-1.34-3.432-1.34C9.285 6.842 7 9.152 7 12c0 1.316.488 2.516 1.29 3.428l-1.914 1.914C3.526 15.272 3 12 3 12c.037-.217 1.248-7 9-7zm3.02 7c.002 1.253-.78 2.37-1.95 2.785-.472.167-.965.205-1.436.127l2.565-2.564c.293-.045.576-.162.822-.348zm-2.267-2.87c-.41.345-.648.857-.649 1.396 0 .31.077.608.217.871l-2.473 2.474-.023-.028c-.774-.98-.85-2.346-.19-3.407.658-1.06 1.91-1.585 3.118-1.306z"/>
        <rect width="2.5" height="22" x="10.146" y=".646" rx="1.25" transform="rotate(45 11.396 11.646)"/>
    </g>
</svg>
