<svg width="24px" height="24px" viewBox="0 0 24 24" version="1.1" xmlns="http://www.w3.org/2000/svg" xmlns:xlink="http://www.w3.org/1999/xlink" >
   
    <g   stroke="none" stroke-width="1" fill="none" fill-rule="evenodd">
        <rect   x="0" y="0" width="24" height="24"></rect>
        <g >
            <rect   x="0" y="0" width="24" height="24"></rect>
            <g   transform="translate(2.000000, 4.750000)">
                <path d="M11.912132,6.04791847 L12.9020815,7.03786797 L10.9733319,8.966943 C10.9908372,9.05860837 11,9.15323414 11,9.25 C11,10.0784271 10.3284271,10.75 9.5,10.75 C8.67157288,10.75 8,10.0784271 8,9.25 C8,8.42157288 8.67157288,7.75 9.5,7.75 C9.70934841,7.75 9.90868006,7.79288682 10.0896885,7.870354 L11.912132,6.04791847 Z" id="Combined-Shape" fill="#343434"></path>
                <path d="M9.5,4.5 C11.8688699,4.5 14.0168223,5.46848024 15.5909003,7.03860986 C17.0095942,8.45374515 17.9626604,10.3571462 18.1949004,12.4840333 L18.1949004,12.4840333 L0.780874004,12.7385088 C0.958743012,10.5545175 1.89479994,8.59146151 3.31965777,7.12910743 C4.90134528,5.50579657 7.08593568,4.5 9.5,4.5 Z" id="Combined-Shape" stroke="#343434" stroke-width="1.5"></path>
                <polygon   fill="#343434" points="8.75 0.25 10.25 0.25 10.25 2.75 8.75 2.75"></polygon>
                <path d="M15.2,-4.5519144e-14 C15.6418278,-4.5519144e-14 16,0.3581722 16,0.8 C16,1.2418278 15.6418278,1.6 15.2,1.6 L3.8,1.6 C3.3581722,1.6 3,1.2418278 3,0.8 C3,0.3581722 3.3581722,-4.5519144e-14 3.8,-4.5519144e-14 L15.2,-4.5519144e-14 Z" id="Rectangle" fill="#343434" fill-rule="nonzero"></path>
            </g>
        </g>
    </g>
</svg>