<svg xmlns="http://www.w3.org/2000/svg" width="24" height="24" viewBox="0 0 24 24">
    <defs>
        <filter id="ior4fw87xa">
            <feColorMatrix in="SourceGraphic" values="0 0 0 0 1.000000 0 0 0 0 1.000000 0 0 0 0 1.000000 0 0 0 1.000000 0"/>
        </filter>
    </defs>
    <g fill="none" fill-rule="evenodd" opacity=".6">
        <g>
            <g>
                <g>
                    <g filter="url(#ior4fw87xa)" transform="translate(-16 -210) translate(0 202) translate(16 8) translate(3 5)">
                        <path stroke="#343434" stroke-width="1.3" d="M16 .65c.373 0 .71.151.955.395.244.245.395.582.395.955h0v8c0 .373-.151.71-.395.955-.245.244-.582.395-.955.395h0H2c-.373 0-.71-.151-.955-.395C.801 10.71.65 10.373.65 10h0V2c0-.373.151-.71.395-.955C1.29.801 1.627.65 2 .65h14z"/>
                        <rect width="7" height="1" x="3.5" y="3.8" fill="#D8D8D8" stroke="#979797" rx=".5"/>
                        <rect width="4" height="1" x="3.5" y="6.8" fill="#D8D8D8" stroke="#979797" rx=".5"/>
                        <path fill="#FFF" fill-rule="nonzero" d="M12.338 13.5c.366 0 .662.313.662.7 0 .354-.25.647-.572.694l-.09.006H5.662c-.366 0-.662-.313-.662-.7 0-.354.25-.647.572-.694l.09-.006h6.676z"/>
                    </g>
                </g>
            </g>
        </g>
    </g>
</svg>
