<svg xmlns="http://www.w3.org/2000/svg" width="24" height="24" viewBox="0 0 24 24">
    <g fill="none" fill-rule="evenodd" opacity=".6">
        <g fill="#FFF" fill-rule="nonzero">
            <g>
                <g>
                    <path d="M18.47 4c.88.004 1.068.173 1.53 1.021l2 4.162v.12c-.059 1.278-.889 2.297-2.17 2.341v7.77c0 .324-.465.586-.79.586H4.808c-.324 0-.586-.262-.586-.585v-7.768C2.934 11.628 2.079 10.623 2 9.341V9.31l2-4.288C4.428 4.173 4.807 4 5.67 4zm-7.591 10.243H7.896v4.586h2.983v-4.586zm6.772-3.45c-.47.55-1.159.866-1.883.866-.725 0-1.413-.316-1.883-.866-.47.55-1.159.866-1.883.866s-1.413-.316-1.883-.866c-.47.55-1.158.866-1.883.866-.724 0-1.412-.316-1.883-.866-.21.242-.466.441-.753.585v7.451h1.123v-5.286c0-.323.263-.585.586-.585h4.156c.324 0 .587.262.587.585v5.286h6.402v-7.428c-.308-.144-.581-.351-.803-.608zM16.458 13c.3 0 .542.24.542.538v2.924c0 .297-.243.538-.542.538h-2.916c-.3 0-.542-.24-.542-.538v-2.924c0-.297.243-.538.542-.538h2.916zm-.347.889H13.89v2.222h2.222V13.89zM6.77 5.17H5.177l-2 4.041c.002.011.002.022 0 .033 0 .714.58 1.293 1.296 1.293.716 0 1.297-.579 1.297-1.293v-.041l1-4.033zm9.294 0h-1.587v4.041c.002.011.002.022 0 .033 0 .712.58 1.29 1.294 1.29.714 0 1.293-.578 1.293-1.29v-.041l-1-4.033zm-2.766 0h-2.586V9.245c0 .712.579 1.29 1.293 1.29s1.293-.578 1.293-1.29V5.17zm-3.765 0H7.946l-1 4.041v.033c0 .712.579 1.29 1.293 1.29.715 0 1.294-.578 1.294-1.29V5.17zm9.297 0h-1.587l1 4.041c.002.011.002.022 0 .033 0 .712.58 1.29 1.293 1.29.715 0 1.294-.578 1.294-1.29v-.041l-2-4.033z" transform="translate(-16 -170) translate(0 162) translate(16 8)"/>
                </g>
            </g>
        </g>
    </g>
</svg>
