<svg xmlns="http://www.w3.org/2000/svg" width="24" height="24" viewBox="0 0 24 24">
    <g fill="none" fill-rule="evenodd">
        <g>
            <g>
                <g>
                    <g>
                        <path d="M0 0L24 0 24 24 0 24z" transform="translate(-569 -116) translate(230 88) translate(319 19) translate(20 9)"/>
                        <g>
                            <path d="M0 0H18V18H0z" transform="translate(-569 -116) translate(230 88) translate(319 19) translate(20 9) translate(2 2)"/>
                            <path fill="#343434" fill-rule="nonzero" stroke="#343434" stroke-width=".2" d="M10.847 10.936c0 .576.13 1.072.392 1.488.261.416.623.73 1.086.944.081.037.164.071.25.102-.003.142-.005.296-.006.457v.348l.001.12.005.242.006.192c-.34-.075-.659-.184-.958-.325-.655-.31-1.17-.768-1.544-1.376-.375-.608-.562-1.339-.562-2.192h0zM5.025 3.272l.257.007c.507.029.963.144 1.368.345.473.235.845.579 1.116 1.032.27.453.406.99.406 1.608 0 .757-.152 1.381-.458 1.872-.305.49-.763.832-1.374 1.024h0v.032l.176.043c.284.08.518.208.703.381.222.208.394.515.517.92.124.405.195.955.215 1.648.02.661.076 1.179.17 1.552.093.373.234.693.42.96h0-1.566l-.07-.115c-.04-.074-.068-.145-.085-.213-.024-.101-.056-.285-.096-.552h0l-.059-1.248-.018-.3c-.044-.498-.156-1.001-.337-1.508-.226-.619-.704-.933-1.433-.944h0-3.473v4.88H0V3.272h5.025zM13.67 3c.778 0 1.458.141 2.04.424.58.283 1.034.696 1.359 1.24.325.544.488 1.195.488 1.952h0-1.33c-.158-1.557-1.03-2.336-2.616-2.336-.759 0-1.343.17-1.751.512-.41.341-.614.821-.614 1.44 0 .416.178.784.532 1.104.345.277 1.296.587 2.853.928 1.152.256 2.002.645 2.549 1.168.359.343.6.767.723 1.27-.492-.13-1.02-.202-1.572-.202l-.145.001c-.184-.19-.444-.363-.78-.517-.428-.197-1.022-.37-1.78-.52-1.508-.32-2.513-.715-3.015-1.184-.512-.49-.769-1.136-.769-1.936 0-.683.165-1.277.495-1.784.33-.507.786-.893 1.367-1.16.582-.267 1.237-.4 1.966-.4zM4.95 4.552H1.405v3.984h3c.788 0 1.38-.165 1.773-.496.394-.33.591-.843.591-1.536 0-.619-.16-1.099-.48-1.44-.32-.341-.766-.512-1.337-.512h0z" transform="translate(-569 -116) translate(230 88) translate(319 19) translate(20 9) translate(2 2)"/>
                            <g>
                                <path stroke="#343434" stroke-linecap="round" stroke-linejoin="round" stroke-width="1.5" d="M3 0L0 3 3 6" transform="translate(-569 -116) translate(230 88) translate(319 19) translate(20 9) translate(2 2) matrix(0 -1 -1 0 20 19)"/>
                                <path fill="#343434" fill-rule="nonzero" d="M6.172 2.25C6.63 2.25 7 2.586 7 3c0 .38-.311.693-.715.743l-.113.007H1.828C1.37 3.75 1 3.414 1 3c0-.38.311-.693.715-.743l.113-.007h4.344z" transform="translate(-569 -116) translate(230 88) translate(319 19) translate(20 9) translate(2 2) matrix(0 -1 -1 0 20 19)"/>
                            </g>
                        </g>
                    </g>
                </g>
            </g>
        </g>
    </g>
</svg>
