<svg xmlns="http://www.w3.org/2000/svg" width="24" height="24" viewBox="0 0 24 24">
    <g fill="none" fill-rule="evenodd">
        <g fill="#343434">
            <g>
                <g>
                    <g>
                        <g>
                            <path d="M4.8 5c.442 0 .8.358.8.8v12.4c0 .442-.358.8-.8.8-.442 0-.8-.358-.8-.8V5.8c0-.442.358-.8.8-.8zm2.7 0c.276 0 .5.224.5.5v13c0 .276-.224.5-.5.5s-.5-.224-.5-.5v-13c0-.276.224-.5.5-.5zm2 0c.276 0 .5.224.5.5v13c0 .276-.224.5-.5.5s-.5-.224-.5-.5v-13c0-.276.224-.5.5-.5zm10 0c.276 0 .5.224.5.5v13c0 .276-.224.5-.5.5s-.5-.224-.5-.5v-13c0-.276.224-.5.5-.5zm-2 0c.276 0 .5.224.5.5v13c0 .276-.224.5-.5.5s-.5-.224-.5-.5v-13c0-.276.224-.5.5-.5zm-5.7 0c.442 0 .8.358.8.8v12.4c0 .442-.358.8-.8.8-.442 0-.8-.358-.8-.8V5.8c0-.442.358-.8.8-.8zm3.95 0c.414 0 .75.336.75.75v12.5c0 .414-.336.75-.75.75s-.75-.336-.75-.75V5.75c0-.414.336-.75.75-.75zM14 5c.276 0 .5.224.5.5v13c0 .276-.224.5-.5.5s-.5-.224-.5-.5v-13c0-.276.224-.5.5-.5z" transform="translate(-418 -116) translate(230 88) translate(24 19) translate(144) translate(20 9)"/>
                        </g>
                    </g>
                </g>
            </g>
        </g>
    </g>
</svg>
