<svg xmlns="http://www.w3.org/2000/svg" width="30" height="34" viewBox="0 0 30 34">
  <g fill="#888EA8" fill-rule="nonzero">
    <path
      d="M29.712 20.428a2.223 2.223 0 0 0-.947-.888 2.276 2.276 0 0 0-2.162.057l-5.711 3.294a2.264 2.264 0 0 0-.716-1.268 2.311 2.311 0 0 0-1.518-.569h-3.506a.569.569 0 0 1-.402-.166l-.14-.14a2.825 2.825 0 0 0-2.01-.832H8.229a2.845 2.845 0 0 0-2.014.833L4.723 22.24l-.531-.53a.569.569 0 0 0-.805 0l-3.22 3.213a.569.569 0 0 0 0 .805l8.046 8.052a.569.569 0 0 0 .805 0l3.22-3.22a.569.569 0 0 0 0-.805l-.45-.452.117-.117a.569.569 0 0 1 .402-.166h6.317c.5.001.99-.131 1.422-.384l8.832-5.098a2.254 2.254 0 0 0 1.138-1.972c0-.4-.105-.792-.304-1.139zM8.615 32.575l-7.241-7.247 2.415-2.411 7.242 7.242-2.416 2.416zm19.694-10.022l-8.836 5.102c-.257.15-.55.229-.849.228h-6.316a1.695 1.695 0 0 0-1.208.5l-.117.118-5.456-5.455 1.493-1.493a1.7 1.7 0 0 1 1.208-.499H12.6c.452 0 .886.179 1.205.5l.139.138c.32.322.754.502 1.207.5h3.506c.281 0 .553.101.765.285a1.116 1.116 0 0 1 .3 1.256 1.03 1.03 0 0 1-.255.403 1.128 1.128 0 0 1-.804.333H14.92a.569.569 0 0 0 0 1.138h3.744a2.26 2.26 0 0 0 2.053-1.301l6.452-3.725c.336-.19.745-.2 1.089-.023.196.096.36.249.468.438.1.174.152.37.152.57.003.407-.214.785-.569.987zM7.283 18.21H27.77a.569.569 0 0 0 .569-.57V.57a.569.569 0 0 0-.57-.569H7.284a.569.569 0 0 0-.569.569V17.64c0 .314.255.57.57.57zM18.664 1.137V5.69h-2.276V1.138h2.276zm-10.812 0h7.398V6.26c0 .315.255.57.569.57h3.414a.569.569 0 0 0 .57-.57V1.14H27.2V17.07H7.852V1.138z"/>
    <path
      d="M12.974 14.795H9.559a.569.569 0 1 0 0 1.138h3.415a.569.569 0 0 0 0-1.138zM12.974 13.088H9.559a.569.569 0 1 0 0 1.138h3.415a.569.569 0 1 0 0-1.138zM12.974 11.38H9.559a.569.569 0 0 0 0 1.139h3.415a.569.569 0 0 0 0-1.138zM25.492 12.519h-5.69a.569.569 0 0 0-.569.569v2.276c0 .314.255.57.57.57h5.69a.569.569 0 0 0 .569-.57v-2.276a.569.569 0 0 0-.57-.57zm-.569 2.276h-4.552v-1.138h4.552v1.138z"/>
  </g>
</svg>
