<?xml version="1.0" encoding="UTF-8"?>
<svg width="123px" height="32px" viewBox="0 0 123 32" version="1.1" xmlns="http://www.w3.org/2000/svg" xmlns:xlink="http://www.w3.org/1999/xlink">
    <!-- Generator: Sketch 58 (84663) - https://sketch.com -->
    <title>Group</title>
    <desc>Created with Sketch.</desc>
    <g id="Landing-/-Demo" stroke="none" stroke-width="1" fill="none" fill-rule="evenodd">
        <g id="Headers" transform="translate(-214.000000, -120.000000)" fill="#FFFFFF" fill-rule="nonzero">
            <g id="Group" transform="translate(214.000000, 120.000000)">
                <g id="Group-23" transform="translate(40.000000, 9.000000)">
                    <g id="Group-21">
                        <path d="M7.31687732,13.1300743 C2.88851301,13.1300743 -1.24344979e-14,10.5464312 -1.24344979e-14,6.58053903 C-1.24344979e-14,2.61464684 2.90659851,-1.54543045e-13 7.31687732,-1.54543045e-13 C11.7271561,-1.54543045e-13 14.6105019,2.60172862 14.6105019,6.58053903 C14.6105019,10.5593494 11.7478253,13.1300743 7.31687732,13.1300743 Z M7.29879182,9.62665428 C9.06858736,9.62665428 10.2053903,8.54152416 10.2053903,6.59862454 C10.2053903,4.65572491 9.05050186,3.49825279 7.28328996,3.49825279 C5.51607807,3.49825279 4.44128253,4.63505576 4.44128253,6.57795539 C4.44128253,8.52085502 5.51349442,9.62665428 7.29879182,9.62665428 Z" id="Shape"></path>
                        <path d="M28.6603532,5.21120818 C28.6603532,8.32966543 26.627026,10.3784944 23.1442751,10.3784944 L20.3255204,10.3784944 L20.3255204,12.9621375 L16.1064312,12.9621375 L16.1064312,0.173104089 L23.1365242,0.173104089 C26.627026,0.173104089 28.6603532,2.2348513 28.6603532,5.21120818 Z M24.4050929,5.26546468 C24.4050929,4.2655948 23.5809108,3.5886803 22.5965428,3.5886803 L20.3203532,3.5886803 L20.3203532,7.03009294 L22.5965428,7.03009294 C23.0760772,7.05634848 23.5446611,6.88039758 23.8883993,6.54500727 C24.2321376,6.20961697 24.4195533,5.74549961 24.4050929,5.26546468 L24.4050929,5.26546468 Z" id="Shape"></path>
                        <polygon id="Path" points="41.808513 3.5886803 37.6410967 3.5886803 37.6410967 12.9543866 33.4039219 12.9543866 33.4039219 3.5886803 29.2907621 3.5886803 29.2907621 0.173104089 41.808513 0.173104089"></polygon>
                        <polygon id="Path" points="43.2605204 0.173104089 47.4976952 0.173104089 47.4976952 12.9543866 43.2605204 12.9543866"></polygon>
                        <polygon id="Path" points="66.2136059 0.173104089 66.2136059 12.9543866 62.079777 12.9543866 62.0978625 4.70739777 62.0281041 4.70739777 59.444461 10.3035688 56.0857249 10.3035688 53.5640892 4.70739777 53.5124164 4.70739777 53.5124164 12.9543866 49.5568587 12.9543866 49.5568587 0.173104089 55.7007621 0.173104089 57.8891078 4.87791822 57.9769517 4.87791822 60.2686431 0.173104089"></polygon>
                        <path d="M75.0186617,13.1300743 C70.5902974,13.1300743 67.7017844,10.5464312 67.7017844,6.58053903 C67.7017844,2.61464684 70.6083829,-1.54543045e-13 75.0186617,-1.54543045e-13 C79.4289405,-1.54543045e-13 82.3200372,2.60689591 82.3200372,6.58053903 C82.3200372,10.5541822 79.4599442,13.1300743 75.0186617,13.1300743 Z M75.0005762,9.62665428 C76.7703717,9.62665428 77.9071747,8.54152416 77.9071747,6.59862454 C77.9071747,4.65572491 76.7522862,3.49825279 74.9850743,3.49825279 C73.2178625,3.49825279 72.1430669,4.63505576 72.1430669,6.57795539 C72.1430669,8.52085502 73.2152788,9.62665428 75.0005762,9.62665428 Z" id="Shape"></path>
                    </g>
                </g>
                <g id="Group-86">
                    <g id="Group-85">
                        <path d="M15.3775052,15.3463102 L15.3775052,1.77635684e-13 C6.8043478,0.281374613 -2.22044605e-13,7.31270772 -2.22044605e-13,15.8904813 C-2.22044605e-13,24.4682548 6.8043478,31.499588 15.3775052,31.7809626 L15.3775052,15.3531551 L15.3775052,15.3463102 Z" id="Path"></path>
                        <path d="M31.8121576,15.3463102 C31.8121576,15.2966845 31.8121576,15.2470588 31.8121576,15.1974332 C31.8121576,15.1478075 31.8121576,15.0776471 31.8121576,15.017754 L31.7967565,14.7935829 C31.7967565,14.7371123 31.7967565,14.6806417 31.7847779,14.6224599 C31.7727993,14.5642781 31.7710881,14.4684492 31.7642432,14.3914439 C31.7573982,14.3144385 31.755687,14.2836364 31.7488421,14.2305882 C31.7488421,14.1501604 31.7317298,14.0697326 31.7214624,13.9893048 C31.7214624,13.9396791 31.7094838,13.8900535 31.7043501,13.8404278 L31.6684143,13.5820321 C31.6684143,13.5392513 31.6564357,13.4964706 31.6495908,13.4536898 C31.6341897,13.357861 31.6170774,13.2603209 31.6016763,13.164492 C31.6016763,13.1319786 31.5914089,13.1011765 31.584564,13.0703743 C31.5640293,12.9471658 31.540072,12.8273797 31.5144036,12.7058824 C31.5144036,12.7058824 31.5144036,12.6939037 31.5144036,12.6887701 C31.4345462,12.3043137 31.3415694,11.9244207 31.2354731,11.5490909 C31.2354731,11.5302674 31.2234945,11.5114439 31.2183608,11.4926203 C31.1875587,11.3882353 31.1567565,11.2838503 31.1242432,11.1794652 C31.1242432,11.1520856 31.1071309,11.1264171 31.1002859,11.1007487 C31.0694838,11.0049198 31.0386817,10.9090909 31.0061683,10.813262 L30.9753662,10.7225668 C30.9428528,10.6318717 30.9120506,10.5411765 30.8795373,10.4521925 L30.8418902,10.3546524 C30.8093768,10.2673797 30.7768635,10.1835294 30.7426389,10.0928342 C30.7306603,10.0603209 30.7169704,10.0260963 30.7032806,9.99187166 C30.669056,9.90802139 30.6348314,9.82074866 30.5988956,9.74032086 L30.5561148,9.63764706 C30.520179,9.55379679 30.4842432,9.46652406 30.4465961,9.38951872 L30.4003929,9.28684492 C30.3627458,9.20641711 30.3250988,9.12427807 30.2857405,9.04385027 C30.2703394,9.00962567 30.2532271,8.97540107 30.237826,8.9428877 C30.1984678,8.86245989 30.1573982,8.78203209 30.1163287,8.70160428 C30.1009276,8.66909091 30.0838153,8.63486631 30.066703,8.60235294 L29.940072,8.36449198 C29.9229597,8.33197861 29.9058474,8.29946524 29.8870239,8.26695187 C29.8442432,8.18823529 29.7997512,8.10951872 29.7552592,8.03080214 C29.7364357,8 29.7193234,7.96919786 29.7022111,7.93839572 L29.5618902,7.70053476 L29.5088421,7.61497326 L29.3599651,7.37540107 L29.3086282,7.29497326 C29.2555801,7.21454545 29.2042432,7.13411765 29.1494838,7.05540107 C29.1340827,7.02973262 29.1169704,7.0057754 29.0998581,6.98010695 C29.0450988,6.89796791 28.9886282,6.81754011 28.9287351,6.7371123 L28.8825319,6.67208556 C28.8226389,6.58823529 28.7610346,6.50096257 28.6994303,6.42224599 L28.660072,6.36748663 L28.4632806,6.11080214 L28.4307672,6.06973262 L28.2117298,5.79764706 L28.1946175,5.77882353 C27.5487386,4.99462625 26.8289957,4.27431026 26.0453127,3.62780749 L26.0247779,3.61069519 C25.935794,3.5371123 25.8536549,3.46524064 25.7526924,3.39336898 C25.7403565,3.38161614 25.7272042,3.3707512 25.7133341,3.36085561 L25.4412485,3.16406417 L25.3882004,3.12299465 L25.1383608,2.94160428 L25.0733341,2.89540107 L24.8286282,2.72427807 L24.7567565,2.67294118 C24.6768991,2.61818182 24.5964713,2.56513369 24.5154731,2.51379679 L24.4350453,2.46245989 C24.3563287,2.41283422 24.2759009,2.36149733 24.1954731,2.31358289 L24.1099116,2.26053476 L23.8720506,2.1202139 L23.7796442,2.06716578 L23.5417833,1.93368984 L23.4459544,1.88235294 L23.2063822,1.75572193 L23.1088421,1.70438503 L22.8675587,1.58459893 L22.7665961,1.53668449 L22.5218902,1.42203209 L22.4209276,1.37582888 L22.1727993,1.26631016 L22.0701255,1.22352941 L21.8168635,1.11914439 L21.7159009,1.07807487 L21.455794,0.978823529 L21.3582539,0.942887701 C21.2692699,0.910374332 21.1871309,0.877860963 21.0861683,0.847058824 L20.9971843,0.816256684 L20.7096977,0.722139037 L20.6309811,0.696470588 L20.3144036,0.602352941 L20.2613555,0.586951872 C19.8865961,0.480855615 19.506703,0.386737968 19.1216763,0.30802139 L19.1096977,0.30802139 C18.9887708,0.282923351 18.8655622,0.258966132 18.740072,0.236149733 L18.6459544,0.220748663 L18.3567565,0.172834225 L18.226703,0.154010695 L17.9700186,0.118074866 L17.8194303,0.100962567 L17.5798581,0.0718716578 L17.4172913,0.0581818182 L17.1862752,0.0359358289 L17.0151522,0.0239572193 L16.7909811,0.0102673797 L16.6198581,0.0102673797 L16.4709811,0.0102673797 L16.4709811,15.3565775 L31.8121576,15.3463102 Z" id="Path"></path>
                        <path d="M16.4658474,31.7809626 L16.6147244,31.7809626 L16.7944036,31.7809626 L17.0168635,31.7672727 L17.1879865,31.7552941 L17.4172913,31.7347594 L17.5798581,31.7193583 L17.8211416,31.6919786 L17.9700186,31.6748663 L18.226703,31.6389305 L18.3567565,31.620107 L18.6442432,31.5721925 L18.740072,31.5550802 C18.8615694,31.5328342 18.9847779,31.5105882 19.104564,31.4849198 L19.1216763,31.4849198 C19.5072735,31.4062032 19.8871665,31.3132264 20.2613555,31.2059893 C20.2793196,31.20188 20.2970318,31.1967378 20.3144036,31.1905882 C20.4204998,31.1614973 20.5265961,31.128984 20.6309811,31.0964706 L20.7096977,31.0708021 L20.9971843,30.9783957 L21.0878795,30.9458824 L21.3582539,30.8517647 L21.455794,30.8141176 L21.7159009,30.7148663 L21.8168635,30.675508 L22.0701255,30.571123 L22.1727993,30.526631 C22.2549383,30.4924064 22.3439223,30.4564706 22.4209276,30.4188235 L22.5236014,30.3726203 L22.7665961,30.2579679 L22.8675587,30.2083422 L23.1088421,30.0885561 L23.2063822,30.0389305 L23.4459544,29.9122995 C23.4784678,29.8951872 23.5109811,29.8780749 23.5417833,29.8592513 C23.6222111,29.8164706 23.7009276,29.7719786 23.7796442,29.7257754 L23.8720506,29.6744385 L24.1099116,29.5324064 L24.1954731,29.4810695 L24.4350453,29.3321925 L24.5154731,29.2808556 L24.7550453,29.1217112 L24.8303394,29.0720856 L25.0716228,28.9009626 L25.1383608,28.8530481 L25.3882004,28.6716578 L25.4412485,28.6322995 C25.5285212,28.5672727 25.6123715,28.5005348 25.6996442,28.4337968 L25.7390025,28.4029947 C25.8314089,28.331123 25.9221041,28.2575401 26.0110881,28.1839572 L26.0316228,28.1668449 C26.8150035,27.5155471 27.5341563,26.790664 28.1792164,26.002139 L28.1963287,25.9816043 C28.2699116,25.8909091 28.3434945,25.8019251 28.4153662,25.7095187 C28.4252617,25.6956486 28.4361267,25.6824963 28.4478795,25.6701604 C28.5129063,25.5845989 28.5796442,25.4990374 28.644671,25.4117647 L28.6840293,25.3587166 C28.7456335,25.2748663 28.8072378,25.1875936 28.8671309,25.108877 L28.9133341,25.0438503 L29.0844571,24.8008556 C29.1015694,24.7751872 29.1186817,24.7512299 29.1340827,24.7255615 C29.1888421,24.6468449 29.240179,24.5664171 29.2932271,24.4859893 L29.344564,24.4055615 L29.493441,24.1659893 L29.5464891,24.0804278 L29.68681,23.8408556 L29.7398581,23.7501604 C29.7843501,23.6714439 29.8288421,23.5927273 29.8716228,23.5122995 L29.924671,23.4164706 L30.051302,23.1786096 L30.1009276,23.0793583 C30.1419972,22.9989305 30.1830667,22.9185027 30.222425,22.8380749 C30.237826,22.8038503 30.2549383,22.7713369 30.2703394,22.7371123 C30.3096977,22.6566845 30.3473448,22.5659893 30.3849918,22.4924064 L30.431195,22.3914439 C30.4688421,22.3093048 30.5047779,22.2203209 30.5407137,22.1433155 L30.5834945,22.0406417 C30.6194303,21.9567914 30.6536549,21.8695187 30.6878795,21.7873797 C30.7015694,21.7548663 30.7152592,21.7206417 30.7272378,21.6864171 C30.7614624,21.6008556 30.7939758,21.5152941 30.8264891,21.4263102 L30.8641362,21.3287701 C30.8966496,21.2397861 30.9274517,21.1576471 30.9599651,21.0583957 L30.9907672,20.9677005 C31.023851,20.8718717 31.0546531,20.7760428 31.0831736,20.6802139 C31.0831736,20.6545455 31.1019972,20.6271658 31.1088421,20.6014973 C31.1413555,20.4971123 31.1721576,20.3927273 31.2029597,20.2883422 C31.2029597,20.2695187 31.2149383,20.2506952 31.220072,20.2318717 C31.3261683,19.8565419 31.4191451,19.4766488 31.4990025,19.0921925 C31.4990025,19.0921925 31.4990025,19.0802139 31.4990025,19.0750802 C31.524671,18.9535829 31.546917,18.8320856 31.5691629,18.7105882 C31.5691629,18.6797861 31.5794303,18.6472727 31.5862752,18.6164706 C31.6016763,18.5206417 31.6187886,18.4231016 31.6341897,18.3272727 C31.6341897,18.284492 31.6461683,18.24 31.6530132,18.1972193 L31.688949,17.9405348 C31.688949,17.8909091 31.7009276,17.8395722 31.7060613,17.7899465 C31.7163287,17.7112299 31.7248849,17.6308021 31.733441,17.5503743 C31.733441,17.495615 31.7437084,17.4425668 31.7488421,17.3878075 C31.7539758,17.3330481 31.7642432,17.2337968 31.7693768,17.1567914 C31.7745105,17.0797861 31.777933,17.0438503 31.7813555,16.9856684 L31.7967565,16.7614973 C31.7967565,16.7033155 31.7967565,16.6434225 31.7967565,16.5903743 C31.7967565,16.5373262 31.7967565,16.491123 31.7967565,16.4414973 L16.4658474,16.4414973 L16.4658474,31.7809626 Z" id="Path"></path>
                    </g>
                </g>
            </g>
        </g>
    </g>
</svg>