<svg xmlns="http://www.w3.org/2000/svg" width="108" height="28" viewBox="0 0 108 28">
    <g fill="none" fill-rule="nonzero">
        <g fill="#3D1877">
            <path d="M41.402 19.364c-3.875 0-6.402-2.26-6.402-5.731 0-3.47 2.543-5.758 6.402-5.758 3.86 0 6.382 2.277 6.382 5.758s-2.505 5.73-6.382 5.73zm-.016-3.066c1.549 0 2.544-.95 2.544-2.65s-1.01-2.712-2.557-2.712c-1.546 0-2.487.995-2.487 2.695 0 1.7.938 2.667 2.5 2.667zM60.078 12.435c0 2.728-1.78 4.521-4.827 4.521h-2.466v2.26h-3.692V8.027h6.151c3.055 0 4.834 1.804 4.834 4.409zm-3.724.047c0-.875-.72-1.467-1.582-1.467H52.78v3.011h1.992a1.501 1.501 0 0 0 1.582-1.544zM71.582 11.015h-3.646v8.195h-3.708v-8.195H60.63V8.026h10.953zM72.853 8.026h3.707V19.21h-3.707zM92.937 8.026V19.21H89.32l.016-7.216h-.061l-2.261 4.897h-2.939l-2.206-4.897h-.046v7.216h-3.46V8.026h5.375l1.915 4.117h.077l2.005-4.117zM100.641 19.364c-3.874 0-6.402-2.26-6.402-5.731 0-3.47 2.543-5.758 6.402-5.758 3.86 0 6.389 2.281 6.389 5.758s-2.503 5.73-6.389 5.73zm-.015-3.066c1.548 0 2.543-.95 2.543-2.65s-1.01-2.712-2.557-2.712c-1.546 0-2.487.995-2.487 2.695 0 1.7.938 2.667 2.5 2.667z"/>
        </g>
        <g>
            <circle cx="13.994" cy="13.994" r="13.994" fill="#4563FF"/>
            <path fill="#FF6257" d="M27.989 13.995H13.995V.002c7.729 0 13.994 6.265 13.994 13.993z"/>
            <path fill="#3D1877" d="M27.989 13.995H13.995v13.992A13.992 13.992 0 0 0 27.99 13.995z"/>
        </g>
    </g>
</svg>
