<svg xmlns="http://www.w3.org/2000/svg" width="58" height="45" viewBox="0 0 58 45">
    <path fill="#343434" fill-opacity=".94" fill-rule="evenodd" d="M3.295.66C1.47.66 0 2.128 0 3.954v23.397l16.25-14.5c.19-.174.427-.288.68-.33.44-.062.88.1 1.174.433L29.783 25.85l9.145-7.745c.484-.413 1.194-.422 1.688-.02l7.765 6.323c.132-.006.259-.02.392-.02.914 0 1.79.131 2.636.35V3.955c0-1.826-1.47-3.296-3.295-3.296H3.295zm27.682 7.908c1.82 0 3.296 1.476 3.296 3.296 0 1.82-1.476 3.295-3.296 3.295-1.82 0-3.295-1.475-3.295-3.295 0-1.82 1.475-3.296 3.295-3.296zm-13.944 7.127L0 30.895v3.378c0 1.825 1.47 3.295 3.295 3.295h35.282c-.218-.846-.35-1.722-.35-2.636 0-4.506 2.841-8.335 6.818-9.845l-5.252-4.264-9.29 7.847c-.535.454-1.331.409-1.812-.102L17.033 15.695zm31.74 10.01c-5.096 0-9.228 4.13-9.228 9.227 0 5.096 4.132 9.227 9.228 9.227S58 40.028 58 34.932s-4.131-9.227-9.227-9.227zm0 3.295c.38 0 .707.175.947.433 1.097.977 2.18 2.198 3.275 3.254.53.53.515 1.339 0 1.853-.515.515-1.339.515-1.854 0l-1.05-1.05v6.055c0 .728-.59 1.319-1.318 1.319-.728 0-1.318-.59-1.318-1.319V33.49l-1.05 1.05c-.516.515-1.34.515-1.855 0-.514-.514-.525-1.323 0-1.853 1.073-1.08 2.197-2.257 3.275-3.254.24-.258.567-.433.948-.433z"/>
</svg>
