
<svg width="14px" height="15px" viewBox="0 0 14 15" version="1.1" xmlns="http://www.w3.org/2000/svg" xmlns:xlink="http://www.w3.org/1999/xlink">
    <title>Icon/out2</title>
    <defs>
        <filter id="filter-1">
            <feColorMatrix in="SourceGraphic" type="matrix" values="0 0 0 0 1.000000 0 0 0 0 1.000000 0 0 0 0 1.000000 0 0 0 1.000000 0"></feColorMatrix>
        </filter>
    </defs>
    <g id="მთავარი-გვერდი" stroke="none" stroke-width="1" fill="none" fill-rule="evenodd">
        <g id="მთავარი-გვერდი-/-restyle-+-hover-v2" transform="translate(-1835.000000, -338.000000)">
            <g id="Group-40" transform="translate(254.000000, 167.000000)">
                <g id="Group-44-Copy-4" transform="translate(1248.000000, 0.000000)">
                    <g id="Icon/out" transform="translate(328.000000, 167.000000)" >
                        <g>
                            <path d="M11.1176471,6.52941176 C11.5399825,6.52941176 11.8823529,6.87178225 11.8823529,7.29411765 C11.8823529,7.68628623 11.5871457,8.00950548 11.2068279,8.05367879 L11.1176471,8.05882353 L7.29411765,8.05882353 C6.90194906,8.05882353 6.57872982,8.35403073 6.5345565,8.73434855 L6.52941176,8.82352941 L6.52941176,16.705882 C6.52941176,17.0980506 6.82461897,17.4212697 7.20493679,17.465443 L7.29411765,17.470588 L15.176471,17.470588 C15.5686396,17.470588 15.8918587,17.1753808 15.936032,16.795063 L15.941176,16.705882 L15.941176,11.882353 C15.941176,11.4600176 16.2835466,11.117647 16.705882,11.117647 C17.0980506,11.117647 17.4212697,11.4128542 17.465443,11.793172 L17.470588,11.882353 L17.470588,16.705882 C17.470588,17.927638 16.5155314,18.9263293 15.311267,18.996106 L15.176471,19 L7.29411765,19 C6.07236168,19 5.07367109,18.0449434 5.00389441,16.840679 L5,16.705882 L5,8.82352941 C5,7.60177344 5.95505644,6.60308286 7.15932081,6.53330618 L7.29411765,6.52941176 L11.1176471,6.52941176 Z M18.2352941,4 C18.6576295,4 19,4.34237049 19,4.76470588 L19,4.76470588 L19,8.58823529 C19,9.01057069 18.6576295,9.35294118 18.2352941,9.35294118 C17.8129587,9.35294118 17.4705882,9.01057069 17.4705882,8.58823529 L17.4705882,8.58823529 L17.471,6.61 L13.5542844,10.527173 C13.2556482,10.8258092 12.7714632,10.8258092 12.472827,10.527173 C12.1741908,10.2285368 12.1741908,9.74435178 12.472827,9.44571556 L16.389,5.528 L14.4117647,5.52941176 C14.0246239,5.52941176 13.7046759,5.24172545 13.6540397,4.86847194 L13.6470588,4.76470588 C13.6470588,4.34237049 13.9894293,4 14.4117647,4 L14.4117647,4 Z" id="Combined-Shape" fill="#343434"></path>
                        </g>
                    </g>
                </g>
            </g>
        </g>
    </g>
</svg>