<svg xmlns="http://www.w3.org/2000/svg" width="24" height="24" viewBox="0 0 24 24">
    <defs>
        <filter id="cjjjevmlta">
            <feColorMatrix in="SourceGraphic" values="0 0 0 0 0.080777 0 0 0 0 0.675243 0 0 0 0 0.450954 0 0 0 1.000000 0"/>
        </filter>
        <filter id="li6r7cmu6b">
            <feColorMatrix in="SourceGraphic" values="0 0 0 0 0.080777 0 0 0 0 0.675243 0 0 0 0 0.450954 0 0 0 1.000000 0"/>
        </filter>
    </defs>
    <g fill="none" fill-rule="evenodd">
        <g>
            <g>
                <g>
                    <g   transform="translate(-543 -349) translate(254 167) translate(13 92) translate(276 90)">
                        <g  >
                            <g>
                                <path  fill="#15ac73" d="M4.999.538c.264-.006.529.09.73.291l3.517 3.518c.389.388.389 1.018 0 1.407-.389.388-1.019.388-1.407 0L5.996 3.909c.003.03.004.06.004.091v6c0 .552-.448 1-1 1s-1-.448-1-1V4l.004-.092-1.843 1.846c-.389.388-1.019.388-1.407 0-.389-.389-.389-1.019 0-1.407L4.27.829c.2-.2.465-.297.728-.291z" transform="translate(7 7)"/>
                            </g>
                        </g>
                    </g>
                </g>
            </g>
        </g>
    </g>
</svg>
