<svg xmlns="http://www.w3.org/2000/svg" width="24" height="24" viewBox="0 0 24 24">
    <g fill="none" fill-rule="evenodd">
        <g>
            <g>
                <g>
                    <path d="M0 0L24 0 24 24 0 24z" transform="translate(-16 -576) translate(0 568) translate(16 8)"/>
                    <g fill="#343434" fill-rule="nonzero">
                        <path d="M1 2.3c.387 0 .7.313.7.7v6.5l.006.148c.075.925.85 1.652 1.794 1.652H15l.095.006c.342.047.605.34.605.694 0 .387-.313.7-.7.7H3.5l-.182-.005C1.636 12.6.3 11.206.3 9.5V3l.006-.095C.353 2.563.646 2.3 1 2.3zM15 .35c.326 0 .597.24.643.554L15.65 1v4.021c0 .359-.291.65-.65.65-.326 0-.597-.24-.643-.554l-.007-.096v-2.31L9.923 7.159 7.442 4.667 4.526 7.535c-.269.264-.686.284-.977.064l-.084-.073c-.264-.269-.284-.686-.064-.977l.073-.084 3.98-3.911 2.468 2.478 3.367-3.383L11 1.65c-.326 0-.597-.24-.643-.554L10.35 1c0-.326.24-.597.554-.643L11 .35h4z" transform="translate(-16 -576) translate(0 568) translate(16 8) translate(4 5)"/>
                    </g>
                </g>
            </g>
        </g>
    </g>
</svg>
