<svg xmlns="http://www.w3.org/2000/svg" width="20" height="20" viewBox="0 0 20 20">
    <path fill="#4562FF" d="M10 0C4.486 0 0 4.486 0 10s4.486 10 10 10 10-4.486 10-10S15.514 0 10 0zm2.215 15.237c-.55.216-2.46 1.128-3.56.159a1.397 1.397 0 01-.492-1.098c0-.832.274-1.557.766-3.298.087-.33.193-.756.193-1.094 0-.584-.222-.74-.823-.74-.293 0-.618.105-.912.215l.162-.666c.656-.267 1.48-.592 2.184-.592 1.058 0 1.836.528 1.836 1.531 0 .29-.05.796-.155 1.146l-.608 2.152c-.126.435-.353 1.394-.001 1.678.347.28 1.168.132 1.573-.06l-.163.667zm-1.005-8.57a1.25 1.25 0 110-2.501 1.25 1.25 0 010 2.5z"/>
</svg>
