<svg width="24px" height="24px" viewBox="0 0 24 24" version="1.1" xmlns="http://www.w3.org/2000/svg" xmlns:xlink="http://www.w3.org/1999/xlink"  >
    <title>Icon/lari</title>
    <g id="Icon/lari" stroke="none" stroke-width="1" fill="none" fill-rule="evenodd">
        <rect   x="0" y="0" width="24" height="24"></rect>
        <g id="Group-43">
            <polygon id="Path" points="0 0 24 0 24 24 1.56298585e-15 24"></polygon>
            <g id="Sign_of_Georgian_Lari" transform="translate(3.000000, 2.000000)">
                <path d="M6.16074468,0.65 L5.11111702,1.70409574 L4.98042553,1.82398936 L4.98452128,3.30776596 L4.84340426,3.35207447 L4.72760638,3.39228723 L4.60510638,3.42989362 L4.51239362,3.47010638 L4.40515957,3.51218085 L4.28712766,3.55648936 L4.18175532,3.60712766 L4.07414894,3.65329787 L3.97734043,3.69984043 L3.89505319,3.73781915 L3.7937766,3.79255319 L3.7137234,3.83909574 L3.63143617,3.88526596 L3.53053191,3.94 L3.45010638,3.98430851 L3.33430851,4.05393617 L3.20771277,4.1362234 L3.07106383,4.22893617 L2.96569149,4.29819149 L2.84542553,4.38904255 L2.76946809,4.44787234 L2.67265957,4.52382979 L2.58404255,4.59345745 L2.48909574,4.66941489 L2.40271277,4.73904255 L2.33531915,4.80643617 L2.25303191,4.88202128 L2.10335106,5.02351064 L2.03819149,5.08643617 L1.98531915,5.14154255 L1.91382979,5.21079787 L1.82744681,5.30388298 L1.74515957,5.39212766 L1.69265957,5.46175532 L1.62712766,5.53324468 L1.56829787,5.61143617 L1.50909574,5.68739362 L1.45212766,5.76297872 L1.39329787,5.83484043 L1.34042553,5.90632979 L1.28569149,5.97409574 L1.24361702,6.03702128 L1.19521277,6.11521277 L1.14457447,6.1975 L1.10026596,6.25632979 L1.05819149,6.31962766 L0.992659574,6.425 L0.963244681,6.48606383 L0.9275,6.5493617 L0.876861702,6.63164894 L0.837021277,6.69457447 L0.81356383,6.75787234 L0.765159574,6.84015957 L0.718989362,6.92430851 L0.668351064,7.02781915 L0.63037234,7.12462766 L0.588297872,7.22776596 L0.545851064,7.31452128 L0.512340426,7.39010638 L0.480691489,7.4787234 L0.432287234,7.58819149 L0.394308511,7.70212766 L0.339574468,7.86446809 L0.309787234,7.96351064 L0.276276596,8.07521277 L0.246861702,8.17835106 L0.221542553,8.2818617 L0.156010638,8.56819149 L0.139255319,8.65680851 L0.111702128,8.76031915 L0.092712766,8.88654255 L0.0800531915,8.97106383 L0.0610638298,9.10361702 L0.0424468085,9.24920213 L0.0234574468,9.48079787 L0.00856382979,9.6431383 L0.00223404255,9.7675 L0,9.91718085 L0.00223404255,10.2817021 L0.00632978723,10.4019681 L0.0189893617,10.574734 L0.029787234,10.7158511 L0.040212766,10.8171277 L0.0506382979,10.924734 L0.0610638298,11.011117 L0.0800531915,11.1187234 L0.0949468085,11.2218617 L0.109840426,11.3145739 L0.128829787,11.4072872 L0.145585106,11.4873398 L0.170904255,11.599042 L0.193989362,11.6962234 L0.215212766,11.795266 L0.248723404,11.9025 L0.276276596,12.012341 L0.303457447,12.1050532 L0.328776596,12.185107 L0.356329787,12.2778191 L0.387978723,12.3642021 L0.41962766,12.4569143 L0.45537234,12.5473936 L0.487021277,12.6274474 L0.51643617,12.6970745 L0.556648936,12.796117 L0.596489362,12.8932973 L0.640797872,12.9837766 L0.678776596,13.0742559 L0.716755319,13.1483511 L0.754734043,13.2157453 L0.799042553,13.3125538 L0.838882979,13.386276 L0.879095745,13.4622334 L0.923404255,13.5381909 L0.950585106,13.5865963 L0.978138298,13.6327666 L1.01797872,13.6982985 L1.05409574,13.7593623 L1.08760638,13.8122334 L1.12781915,13.8669681 L1.16132979,13.9257979 L1.21420213,14.0058505 L1.26037234,14.0732447 L1.31101064,14.1410106 L1.34675532,14.1957453 L1.38696809,14.2482447 L1.43760638,14.3137766 L1.47968085,14.3685112 L1.53851064,14.4400006 L1.61260638,14.5286164 L1.67367021,14.6086702 L1.74515957,14.6868617 L1.79803191,14.7520207 L1.85462766,14.8089894 L1.92239362,14.8804787 L1.98345745,14.9482447 L2.04452128,15.0093085 L2.09069149,15.0536176 L2.14765957,15.106117 L2.2068617,15.1653197 L2.2575,15.21149 L2.31223404,15.2621283 L2.35654255,15.3042021 L2.41537234,15.3548404 L2.47010638,15.4054787 L2.51888298,15.4389894 L2.56281915,15.4814362 L2.6093617,15.5171809 L2.64734043,15.5443611 L2.68941489,15.5782447 L2.74005319,15.6184574 L2.78845745,15.6560632 L2.84132979,15.6940431 L2.89792553,15.736117 L2.94856383,15.7740957 L2.98430851,15.7975526 L3.01409574,15.8206389 L3.04760638,15.8437228 L3.0837234,15.869042 L3.115,15.890266 L3.14255319,15.9047866 L1.16989362,15.9047866 L0.00223404255,17.0724462 L7.737288,17.0724462 L8.900851,15.9047866 L6.78441489,15.9029255 L6.6518617,15.9006915 L6.49138298,15.8839356 L6.25978723,15.8649468 L6.04680851,15.8228717 L5.88260638,15.7930845 L5.71170213,15.7532447 L5.56425532,15.7215951 L5.40191489,15.6813824 L5.29430851,15.649734 L5.1237766,15.5886702 L4.97819149,15.5361708 L4.85382979,15.4918617 L4.73803191,15.4434574 L4.61776596,15.3823936 L4.50829787,15.3295213 L4.36718085,15.2643611 L4.22792553,15.1884037 L4.10356383,15.1146814 L3.98367021,15.0428191 L3.89281915,14.9839894 L3.77478723,14.9143611 L3.66718085,14.8343085 L3.57446809,14.775107 L3.48398936,14.7077128 L3.38085106,14.6213298 L3.27547872,14.5371809 L3.16787234,14.4422334 L3.06473404,14.3536176 L2.95489362,14.2463836 L2.85398936,14.1473398 L2.7843617,14.0795751 L2.70207447,13.9805313 L2.63691489,13.9112772 L2.57138298,13.8416489 L2.48909574,13.7403723 L2.39861702,13.6286702 C2.39861702,13.6286702 2.31856383,13.5213015 2.31856383,13.5128717 C2.31856383,13.504442 2.24037234,13.4138304 2.24037234,13.4138304 L2.15212766,13.2809043 L2.08026596,13.1755325 L2.0087766,13.0638304 L1.94138298,12.9480319 L1.88441489,12.8508517 L1.83601064,12.7540431 L1.76414894,12.621117 L1.70941489,12.4948942 L1.65654255,12.3723936 L1.59771277,12.2461708 L1.5575,12.1512234 L1.52398936,12.0648404 L1.48824468,11.9553723 L1.43946809,11.8034574 L1.38920213,11.6433511 L1.33856383,11.4642559 L1.30691489,11.3104787 L1.27303191,11.1418085 L1.24138298,10.9984574 L1.22053191,10.8275532 L1.20340426,10.6674468 L1.18664894,10.486117 L1.17845745,10.3807447 L1.16989362,10.258617 L1.16989362,10.1469149 L1.17212766,10.0415426 L1.17845745,9.93207447 L1.18255319,9.75707447 L1.19074468,9.62638298 L1.19707447,9.4893617 L1.20787234,9.39441489 L1.22462766,9.2637234 L1.24361702,9.14382979 L1.25851064,9.02132979 L1.2793617,8.91819149 L1.30691489,8.78973404 L1.32776596,8.6843617 L1.34675532,8.60430851 L1.37430851,8.49893617 L1.4037234,8.40808511 L1.43760638,8.2818617 L1.47111702,8.19101064 L1.51542553,8.06478723 L1.5575,7.94675532 L1.59994681,7.84324468 L1.64611702,7.71255319 L1.70531915,7.58632979 L1.74739362,7.51037234 L1.79579787,7.40723404 L1.85053191,7.29739362 L1.89484043,7.21510638 L1.95590426,7.10787234 L2.02553191,7.00026596 L2.07207447,6.91611702 L2.12680851,6.83606383 L2.2068617,6.71989362 L2.27425532,6.62308511 L2.33531915,6.53260638 L2.39861702,6.44808511 L2.45335106,6.37212766 L2.50398936,6.31515957 L2.56505319,6.24776596 L2.61345745,6.18670213 L2.66,6.13606383 L2.71696809,6.07946809 L2.76537234,6.02026596 L2.8368617,5.95510638 L2.90015957,5.88957447 L3.02675532,5.76744681 L3.07106383,5.72090426 L3.12989362,5.66840426 L3.18909574,5.61553191 L3.24159574,5.56712766 L3.30489362,5.51239362 L3.37861702,5.45542553 L3.44824468,5.40292553 L3.51787234,5.34781915 L3.5893617,5.30388298 L3.67574468,5.23835106 L3.75803191,5.17952128 L3.84664894,5.12255319 L3.90957447,5.07601064 L3.99409574,5.02760638 L4.07005319,4.98106383 L4.12664894,4.94345745 L4.19851064,4.91180851 L4.25324468,4.87792553 L4.32696809,4.83994681 L4.40925532,4.79787234 L4.49154255,4.75989362 L4.53994681,4.73047872 L4.61776596,4.70106383 L4.68515957,4.6712766 L4.76335106,4.63553191 L4.82664894,4.60835106 L4.88957447,4.58303191 L4.95101064,4.56180851 L4.98452128,4.54691489 L4.98452128,10.0415426 L6.15851064,8.87202128 L6.16074468,4.24345745 L6.17526596,4.23712766 L6.22590426,4.22893617 L6.28510638,4.22260638 L6.36515957,4.20994681 L6.44297872,4.20361702 L6.4925,4.20175532 L6.5137234,4.20473404 L6.61164894,4.19393617 L6.71702128,4.18760638 L6.8443617,4.18351064 L7.23755319,4.1812766 L7.38090426,4.1887234 L7.50303191,4.19728723 L7.595,4.20547872 L7.6825,4.21515957 L7.77707447,4.22670213 L7.84781915,4.23712766 L7.91111702,4.24569149 L7.91297872,10.0437766 L9.09031915,8.87388298 L9.09031915,4.55138298 L9.10819149,4.55659574 L9.14803132,4.57335106 L9.20388357,4.59569149 L9.2787234,4.62287234 L9.33047932,4.64819149 L9.40643677,4.68095745 L9.49058451,4.71893617 L9.56877719,4.75691489 L9.64547813,4.7956383 L9.73,4.83696809 L9.82345804,4.88648936 L9.89010638,4.92111702 L9.94893617,4.95276596 L9.99845685,4.98664894 L10.056542,5.02015957 L10.1038298,5.04547872 L10.1648936,5.08643617 L10.217766,5.12143617 L10.2821814,5.16053191 L10.3380313,5.1981383 L10.3938836,5.23835106 L10.4504793,5.27930851 L10.5063292,5.31840426 L10.5718611,5.36792553 L10.6318085,5.41446809 L10.6783517,5.45132979 L10.7278723,5.49117021 L10.7814894,5.53324468 L10.8395745,5.58090426 L10.9092027,5.64606383 L10.9691489,5.69781915 L11.0261164,5.75255319 L11.0882979,5.80728723 L11.1493617,5.87058511 L11.1955319,5.90856383 L11.2387234,5.95510638 L11.3083517,6.02882979 L11.3686696,6.09287234 L11.4096283,6.14053191 L11.4528197,6.18893617 L11.517234,6.26154255 L11.5846271,6.34382979 L11.6415957,6.41234043 L12.1895244,7.1406383 C12.4232324,7.00288365 12.6048729,6.90135883 12.7344461,6.83606383 C12.8640192,6.77076883 13.0480362,6.68803007 13.2864971,6.58784755 L12.5192027,5.62297872 L12.495,5.59356383 L12.4540426,5.54292553 L12.4160638,5.4975 L12.3739888,5.44797872 L12.3095745,5.37202128 L12.2559574,5.31095745 L12.2064368,5.26143617 L12.1587772,5.20893617 L12.1062766,5.15606383 L12.0292027,5.07712766 L11.9629249,5.01494681 L11.9081915,4.96132979 L11.8415431,4.89579787 L11.7815957,4.83808511 L11.7287234,4.7937766 L11.6594681,4.72824468 L11.601383,4.68095745 L11.5529787,4.63664894 L11.4885644,4.58712766 L11.4338298,4.54281915 L11.3705319,4.49106383 L11.3094681,4.44601064 L11.2420739,4.39760638 L11.1821277,4.35515957 L11.113617,4.30154255 L11.0480851,4.255 L10.9955857,4.2162766 L10.9404793,4.18053191 L10.882766,4.14329787 L10.817234,4.10234043 L10.7479787,4.05803191 L10.6846809,4.01595745 L10.6299462,3.98319149 L10.5644143,3.94744681 L10.5063292,3.91356383 L10.4411702,3.87893617 L10.3726596,3.83909574 L10.3138298,3.80819149 L10.2453191,3.77244681 L10.1786696,3.73968085 L10.119841,3.71026596 L10.0375532,3.67154255 L9.96382979,3.63654255 L9.88787234,3.60079787 L9.79404255,3.55984043 L9.72367081,3.52893617 L9.6424994,3.49765957 L9.57287234,3.47010638 L9.50845685,3.44702128 L9.43882979,3.42170213 L9.34537294,3.38595745 L9.27574468,3.36361702 L9.19680851,3.33643617 L9.13239421,3.31744681 L9.09218145,3.31 L9.09031915,0.653351064 L7.91111702,1.8262234 L7.9118617,3.06015957 L7.81728723,3.04526596 L7.69180851,3.03074468 L7.59164894,3.01994681 L7.42297872,3.00728723 L7.2662234,3.00207447 L7.17351064,2.99909574 L6.94787234,3.00132979 L6.80042553,3.00319149 L6.62840426,3.00952128 L6.50925532,3.01585106 L6.47797872,3.02329787 L6.37558511,3.0318617 L6.27021277,3.04005319 L6.19648936,3.05494681 L6.16260638,3.06946809 L6.16074468,0.65 Z" id="path2995" stroke="#343434" stroke-width="0.2" fill="#343434" fill-rule="nonzero"></path>
                <g id="Group-24-Copy" transform="translate(10.000000, 8.000000)">
                    <g id="sync-24px-4" transform="translate(5.500000, 6.000000) scale(-1, 1) translate(-5.500000, -6.000000) ">
                        <g id="Group-37" transform="translate(0.000000, 0.000000)">
                            <path d="M5.56228269,10 C7.77142169,10 9.56228269,8.209139 9.56228269,6 C9.56228269,3.790861 7.77142169,2 5.56228269,2 C3.35314369,2 1.56228269,3.790861 1.56228269,6 C1.56228269,8.209139 3.35314369,10 5.56228269,10 Z" id="Oval" stroke="#343434" stroke-width="1.5" stroke-linecap="round" stroke-dasharray="8,314" transform="translate(5.562283, 6.000000) rotate(-119.000000) translate(-5.562283, -6.000000) "></path>
                            <path d="M4.49,0.85 C4.81635008,0.85 5.08652646,1.09050819 5.13295233,1.40394776 L5.14,1.5 L5.14,4.5 C5.14,4.85898509 4.84898509,5.15 4.49,5.15 C4.16364992,5.15 3.89347354,4.90949157 3.84704767,4.596052 L3.84,4.5 L3.83953314,2.15 L1.49,2.15 C1.16364992,2.15 0.89347387,1.90949181 0.847048,1.59605224 L0.84,1.5 C0.84,1.17364992 1.08050843,0.903473539 1.393948,0.857047669 L1.49,0.85 L4.49,0.85 Z" id="Path-6-Copy" fill="#343434" fill-rule="nonzero" transform="translate(2.990000, 3.000000) scale(-1, 1) rotate(90.000000) translate(-2.990000, -3.000000) "></path>
                        </g>
                    </g>
                    <g id="sync-24px-4" transform="translate(5.500000, 6.000000) scale(1, -1) translate(-5.500000, -6.000000) ">
                        <g id="Group-37" transform="translate(0.000000, 0.000000)">
                            <path d="M5.56228269,10 C7.77142169,10 9.56228269,8.209139 9.56228269,6 C9.56228269,3.790861 7.77142169,2 5.56228269,2 C3.35314369,2 1.56228269,3.790861 1.56228269,6 C1.56228269,8.209139 3.35314369,10 5.56228269,10 Z" id="Oval" stroke="#343434" stroke-width="1.5" stroke-linecap="round" stroke-dasharray="8,314" transform="translate(5.562283, 6.000000) rotate(-119.000000) translate(-5.562283, -6.000000) "></path>
                            <path d="M4.49,0.85 C4.81635008,0.85 5.08652646,1.09050819 5.13295233,1.40394776 L5.14,1.5 L5.14,4.5 C5.14,4.85898509 4.84898509,5.15 4.49,5.15 C4.16364992,5.15 3.89347354,4.90949157 3.84704767,4.596052 L3.84,4.5 L3.83953314,2.15 L1.49,2.15 C1.16364992,2.15 0.89347387,1.90949181 0.847048,1.59605224 L0.84,1.5 C0.84,1.17364992 1.08050843,0.903473539 1.393948,0.857047669 L1.49,0.85 L4.49,0.85 Z" id="Path-6-Copy" fill="#343434" fill-rule="nonzero" transform="translate(2.990000, 3.000000) scale(-1, 1) rotate(90.000000) translate(-2.990000, -3.000000) "></path>
                        </g>
                    </g>
                </g>
            </g>
        </g>
    </g>
</svg>